<ttFont>
<head>
    <!-- Most of this table will be recalculated by the compiler -->
    <tableVersion value="1.0"/>
    <fontRevision value="2.004"/>
    <checkSumAdjustment value="0x554d28f4"/>
    <magicNumber value="0x5f0f3cf5"/>
    <flags value="00000000 00000011"/>
    <unitsPerEm value="1000"/>
    <created value="Thu Oct  8 09:59:47 2009"/>
    <modified value="Thu Oct  8 09:59:47 2009"/>
    <xMin value="-450"/>
    <yMin value="-280"/>
    <xMax value="1423"/>
    <yMax value="1127"/>
    <macStyle value="00000000 00000000"/>
    <lowestRecPPEM value="3"/>
    <fontDirectionHint value="2"/>
    <indexToLocFormat value="0"/>
    <glyphDataFormat value="0"/>
  </head>
          <CharString index="0">
            hstemhm
            -106 callgsubr
            return
          </CharString>
          <CharString index="1">
            rmoveto
            4 20 -8 19 -15 11 rrcurveto
            12 -19 -24 -40 callgsubr
            -2 10 -11 15 hhcurveto
            14 15 11 16 2 hvcurveto
            17 3 -11 11 -14 hhcurveto
            -1 hlineto
            14 15 25 9 26 hhcurveto
            19 14 -4 -9 8 hvcurveto
            6 -7 1 174 callsubr
            -7 -11 -9 -6 -32 -23 -25 -31 -5 -34 -3 -19 rcurveline
            -5 -1 65 callsubr
            5 4 3 5 1 hvcurveto
            3 19 5 31 29 23 43 20 rlinecurve
            19 9 14 182 callgsubr
          </CharString>
          <CharString index="2">
            hstemhm
            hintmask 11100000
            -107 callgsubr
            return
          </CharString>
          <CharString index="3">
            495 214 rmoveto
            129 21 -81 103 -116 hhcurveto
            -120 -112 -106 141 callgsubr
            -22 84 -96 114 hhcurveto
            118 114 98 126 21 hvcurveto
            -75 9 rmoveto
            -6 -35 -10 -62 -34 -47 rrcurveto
            -48 -36 -49 -19 -38 hhcurveto
            -37 -42 16 49 -21 hvcurveto
            -20 45 9 59 7 42 7 38 10 61 38 45 rrcurveto
            43 35 47 16 35 hhcurveto
            39 39 -18 -39 21 hvcurveto
            23 -46 -11 -63 -6 -37 rrcurveto
            return
          </CharString>
          <CharString index="4">
            732 87 rmoveto
            6 1 1 9 -11 hhcurveto
            -10 -1 -6 -10 -3 hvcurveto
            -60 -15 -33 -27 -32 hhcurveto
            -46 -2 47 53 1 hvcurveto
            2 75 1 50 2 32 -25 31 rlinecurve
            -9 11 -22 27 -52 15 103 23 87 63 13 77 rrcurveto
            97 16 -99 83 -144 hhcurveto
            -299 39 callgsubr
            2 23 82 0 29 hhcurveto
            29 83 0 -2 23 1 callgsubr
            42 256 rlineto
            116 hlineto
            39 36 -11 -28 22 hvcurveto
            28 -38 -4 -21 -11 -69 -14 -79 -4 -26 37 -43 rrcurveto
            -15 12 38 -23 56 hhcurveto
            78 28 87 21 4 hvcurveto
            -143 416 rmoveto
            -87 -15 -57 -64 -130 hhcurveto
            -112 hlineto
            43 262 4 23 2 12 22 4 rlinecurve
            1 9 30 0 20 hhcurveto
            81 128 0 -151 -25 hvcurveto
            return
          </CharString>
          <CharString index="5">
            rmoveto
            -46 callgsubr
            -67 callsubr
            -5 19 -22 26 hhcurveto
            30 23 24 24 4 hvcurveto
            return
          </CharString>
          <CharString index="6">
            hintmask 11000000
            -104 callsubr
            return
          </CharString>
          <CharString index="7">
            317 26 callgsubr
            -22 hlineto
            -75 -7 callgsubr
            75 hhcurveto
            22 31 callsubr
            -86 0 -30 hhcurveto
            -30 -87 -57 callgsubr
            22 hlineto
            75 -69 callsubr
            -88 -531 rlineto
            -37 -6 -5 -10 -75 hhcurveto
            -22 hlineto
            -53 callgsubr
            24 86 0 30 hhcurveto
            30 87 47 callgsubr
            return
          </CharString>
          <CharString index="8">
            hstemhm
            452 -100 callgsubr
            return
          </CharString>
          <CharString index="9">
            rmoveto
            18 3 -10 28 -35 hhcurveto
            -52 -44 -32 -15 -16 hvcurveto
            23 -27 -32 13 -38 hhcurveto
            -90 -79 -68 -77 -13 hvcurveto
            -9 -57 29 -37 8 -9 -14 -15 -23 -29 -7 -39 -9 -58 31 -25 7 -5 -48 -13 -53 -36 -8 -52 rrcurveto
            -69 -12 85 -57 123 hhcurveto
            119 108 53 75 12 hvcurveto
            4 25 3 59 -55 31 rrcurveto
            26 -46 -50 0 -86 hhcurveto
            -61 -7 0 19 -15 hvcurveto
            -8 10 -6 19 3 21 3 17 9 17 12 14 rrcurveto
            -31 42 40 0 11 hhcurveto
            hintmask 1111001110000000
            90 78 68 77 13 hvcurveto
            5 27 -2 38 -27 32 rrcurveto
            40 46 47 0 5 hhcurveto
            4 5 0 -2 4 hvcurveto
            -11 -4 -7 -10 -1 -11 rrcurveto
            -14 -3 8 -12 16 hhcurveto
            8 19 5 22 4 hvcurveto
            -189 -110 rmoveto
            -3 -18 -6 -41 -22 -27 rrcurveto
            -29 -24 -31 -10 -21 hhcurveto
            -88 16 101 23 4 hvcurveto
            3 18 7 41 22 27 rrcurveto
            29 23 32 10 21 hhcurveto
            88 -17 -101 -23 -4 hvcurveto
            46 -374 rmoveto
            -59 -10 -84 -47 -92 hhcurveto
            -96 -65 49 57 10 hvcurveto
            1 8 9 39 42 26 rrcurveto
            14 25 9 0 70 hhcurveto
            hintmask 0000000001000000
            83 113 0 -87 -15 hvcurveto
            return
          </CharString>
          <CharString index="10">
            62 hintmask 11000000
            427 119 rmoveto
            6 1 -4 4 -6 hhcurveto
            -8 -3 -5 -5 -3 hvcurveto
            -84 -40 -71 -23 -42 hhcurveto
            -42 -96 28 173 29 hvcurveto
            3 19 rlineto
            277 hlineto
            hintmask 10110010
            22 2 0 19 3 hvcurveto
            101 17 -39 94 -121 hhcurveto
            -114 -105 -103 -124 -20 hvcurveto
            -132 -22 85 -97 111 hhcurveto
            119 63 108 21 4 hvcurveto
            -40 132 rmoveto
            -238 hlineto
            157 34 91 18 28 hhcurveto
            107 -17 -141 -34 -5 hvcurveto
            return
          </CharString>
          <CharString index="11">
            -89 callgsubr
            -70 callgsubr
            return
          </CharString>
          <CharString index="12">
            692 39 callsubr
            -80 callsubr
            72 1 -10 -37 -6 hvcurveto
            -39 -237 rlineto
            -299 hlineto
            39 237 rlineto
            37 6 5 10 72 hhcurveto
            20 hlineto
            5 29 rlineto
            -2 -24 -82 0 -29 hhcurveto
            -30 -82 0 2 -24 hvcurveto
            43 callsubr
            44 265 rlineto
            299 hlineto
            -44 -265 rlineto
            -37 -6 -5 -10 -72 hhcurveto
            -20 hlineto
            -60 callgsubr
            return
          </CharString>
          <CharString index="13">
            832 113 callsubr
            -93 -2 rlineto
            -27 -50 0 2 -25 122 callgsubr
            29 19 -13 -24 -4 hvcurveto
            -2 -13 -3 -3 -12 -16 -215 -275 rcurveline
            -136 301 -4 10 -2 3 1 6 rlinecurve
            21 4 26 3 36 49 callgsubr
            -81 0 -28 hhcurveto
            -28 -71 -57 callgsubr
            71 13 -3 -36 16 hvcurveto
            154 -342 -33 -197 -87 callsubr
            2 23 82 0 29 hhcurveto
            29 29 callgsubr
            -73 0 10 35 5 hvcurveto
            34 200 247 315 rlineto
            53 42 48 12 43 hhcurveto
            return
          </CharString>
          <CharString index="14">
            rmoveto
            18 3 -15 15 -17 hhcurveto
            -14 -7 -7 -11 -10 hvcurveto
            -144 -152 4 -6 4 -5 5 -5 rlinecurve
            170 124 18 13 2 11 86 callsubr
          </CharString>
          <CharString index="15">
            373 127 rmoveto
            9 54 -27 32 -8 9 -31 31 -26 6 -64 12 -29 6 -70 14 10 60 rrcurveto
            31 5 28 46 90 hhcurveto
            109 -9 -93 -31 -3 hvcurveto
            -8 -1 7 0 3 hhcurveto
            11 1 5 18 3 hvcurveto
            18 104 rlineto
            18 3 0 5 -10 hhcurveto
            -8 -22 -22 -9 -9 hvcurveto
            25 -27 -30 6 -32 hhcurveto
            -121 -47 -66 -55 -9 hvcurveto
            -2 -11 -5 -35 32 -35 27 -28 33 -7 44 -9 54 -11 12 -3 22 -20 15 -15 10 -22 -5 -28 rrcurveto
            -43 -7 -33 -48 -88 hhcurveto
            -66 -42 38 100 -5 hvcurveto
            -1 18 -1 2 0 vvcurveto
            4 -1 -4 0 -3 hhcurveto
            -11 -1 -5 -18 -3 hvcurveto
            -23 -136 rlineto
            -18 -3 -1 -5 10 hhcurveto
            5 1 1 21 21 hvcurveto
            6 7 1 2 17 16 rrcurveto
            -47 30 54 0 17 hhcurveto
            105 62 58 79 13 hvcurveto
            return
          </CharString>
          <CharString index="16">
            -20 -90 callgsubr
            return
          </CharString>
          <CharString index="17">
            rmoveto
            -132 117 -170 -117 7 -16 151 66 129 -66 rlineto
            return
          </CharString>
          <CharString index="18">
            rlineto
            -45 -7 -11 0 -65 hhcurveto
            -5 62 callgsubr
            return
          </CharString>
          <CharString index="19">
            -89 callsubr
            -65 callsubr
            31 186 rlineto
            105 18 78 56 62 hhcurveto
            return
          </CharString>
          <CharString index="20">
            rlineto
            -37 -6 -5 -10 -72 -28 callsubr
            return
          </CharString>
          <CharString index="21">
            -56 callgsubr
            -19 callsubr
            32 103 0 39 hhcurveto
            39 104 0 -2 32 hvcurveto
            -73 callsubr
            -36 hlineto
            -98 2 14 34 6 hvcurveto
            89 532 4 25 3 9 17 4 rlinecurve
            2 8 29 0 19 hhcurveto
            158 3 -36 -158 -12 hvcurveto
            return
          </CharString>
          <CharString index="22">
            -5 -29 rlineto
            return
          </CharString>
          <CharString index="23">
            -33 -20 -24 -24 -4 hvcurveto
            -25 -4 12 -24 33 hhcurveto
            5 4 1 1 4 hvcurveto
            -13 -20 -22 -15 -22 -5 rrcurveto
            37 -46 -59 22 -64 hhcurveto
            -89 -88 -41 -66 -70 hvcurveto
            -75 -71 -49 -92 -15 -95 -16 -94 18 -91 51 -69 rrcurveto
            -66 48 76 -40 88 hhcurveto
            88 90 40 66 70 hvcurveto
            75 69 47 91 16 94 rrcurveto
            -90 16 rmoveto
            -14 -88 -29 -89 -62 -74 rrcurveto
            -59 -48 -69 -43 -70 hhcurveto
            -70 -54 43 59 -29 hvcurveto
            -36 74 1 89 14 88 14 82 29 83 59 67 rrcurveto
            hintmask 00100000
            56 49 68 39 69 hhcurveto
            return
          </CharString>
          <CharString index="24">
            -53 callsubr
            -529 -87 callsubr
            return
          </CharString>
          <CharString index="25">
            36 callgsubr
            64 8 -6 115 callgsubr
            -272 -64 callgsubr
            48 0 29 hhcurveto
            11 58 0 -2 34 hvcurveto
            return
          </CharString>
          <CharString index="26">
            -11 -85 callsubr
            68 7 -7 -49 -8 hvcurveto
            return
          </CharString>
          <CharString index="27">
            -77 callgsubr
            20 hlineto
            return
          </CharString>
          <CharString index="28">
            -136 -81 callsubr
            -46 -271 20 callsubr
            26 157 rlineto
            97 16 55 91 77 hhcurveto
            8 2 0 -1 4 hvcurveto
            return
          </CharString>
          <CharString index="29">
            691 232 rmoveto
            11 2 1 6 -11 hhcurveto
            -10 -2 -5 -7 -1 hvcurveto
            -159 -36 -128 -70 -97 hhcurveto
            -70 -184 42 292 49 hvcurveto
            289 48 196 44 72 hhcurveto
            105 77 -89 -150 -5 hvcurveto
            -12 -1 -3 12 14 1 3 20 3 vhcurveto
            40 237 rlineto
            18 3 0 5 -10 hhcurveto
            -6 -1 -2 -10 -8 hvcurveto
            -62 -79 rlineto
            56 -35 -63 35 -72 hhcurveto
            -183 -184 -158 -204 -34 hvcurveto
            return
          </CharString>
          <CharString index="30">
            755 402 -38 callgsubr
            -25 -18 0 -31 hhcurveto
            -85 2 -5 -29 45 -2 7 -27 -3 -19 rlinecurve
            0 -1 -8 -6 -10 vhcurveto
            -136 -262 -52 283 rlineto
            -3 12 0 2 3 vvcurveto
            28 5 37 0 21 7 callgsubr
            -28 -41 0 -29 hhcurveto
            -90 86 callgsubr
            38 13 -2 -13 9 hvcurveto
            4 -6 6 -33 4 -20 -126 -244 rcurveline
            -51 272 -2 13 0 2 1 4 rlinecurve
            27 4 39 0 19 144 callsubr
            -50 0 -27 hhcurveto
            -93 2 rlineto
            return
          </CharString>
          <CharString index="31">
            -64 callgsubr
            49 0 30 hhcurveto
            30 50 0 -2 28 hvcurveto
            return
          </CharString>
          <CharString index="32">
            -92 callgsubr
            endchar
          </CharString>
          <CharString index="33">
            -65 callgsubr
            -18 13 -23 hhcurveto
            return
          </CharString>
          <CharString index="34">
            5 29 rlineto
            return
          </CharString>
          <CharString index="35">
            26 callgsubr
            -50 -25 0 30 4 hvcurveto
            31 184 15 93 5 28 -18 32 rlinecurve
            39 -22 -46 6 -34 hhcurveto
            return
          </CharString>
          <CharString index="36">
            rmoveto
            -94 152 rlineto
            11 -6 -5 7 -14 hhcurveto
            -17 -19 -15 -18 151 callgsubr
            -2 -11 14 -13 128 -124 rcurveline
            7 5 6 5 6 6 rrcurveto
            endchar
          </CharString>
          <CharString index="37">
            27 5 -16 22 -30 hhcurveto
            -27 -16 -20 0 7 0 5 2 13 hvcurveto
            3 14 13 81 81 69 10 9 0 2 1 3 rrcurveto
            5 1 -4 5 -5 hhcurveto
            -9 -92 -74 -114 -19 hvcurveto
            -62 -10 16 -40 40 hhcurveto
            29 23 22 26 4 hvcurveto
            return
          </CharString>
          <CharString index="38">
            1 -10 -37 -6 hvcurveto
            return
          </CharString>
          <CharString index="39">
            82 callsubr
            -88 -531 rlineto
            -37 -6 -5 -10 -72 hhcurveto
            -20 hlineto
            -5 -29 rlineto
            350 hlineto
            167 159 150 185 31 hvcurveto
            -91 1 rmoveto
            -9 -56 -17 -94 -69 -74 rrcurveto
            -42 -40 -67 -41 -84 hhcurveto
            -105 hlineto
            -44 -1 7 33 6 hvcurveto
            90 545 -42 callsubr
            105 hlineto
            83 59 -40 -66 30 hvcurveto
            34 -71 -17 -101 -7 -40 rrcurveto
            return
          </CharString>
          <CharString index="40">
            -28 -25 -22 -27 -4 hvcurveto
            -26 return
          </CharString>
          <CharString index="41">
            rmoveto
            -125 162 -179 -162 11 -14 157 108 121 -108 rlineto
            return
          </CharString>
          <CharString index="42">
            -73 callsubr
            -64 -12 0 45 7 hvcurveto
            return
          </CharString>
          <CharString index="43">
            -22 -3 11 -19 26 hhcurveto
            25 20 15 29 5 hvcurveto
            52 8 -29 51 -87 hhcurveto
            -126 -154 -129 -220 -36 hvcurveto
            -275 -46 109 -62 85 hhcurveto
            109 109 95 130 22 hvcurveto
            -82 1 rmoveto
            -8 -51 -8 -45 -25 -38 rrcurveto
            -48 -33 -39 -17 -40 hhcurveto
            -63 -21 56 21 -5 hvcurveto
            -5 26 -2 49 12 70 rrcurveto
            79 13 53 99 90 hhcurveto
            55 23 -37 -34 9 hvcurveto
            10 -37 -9 -50 -7 -43 rrcurveto
            endchar
          </CharString>
          <CharString index="44">
            -14 rlineto
            29 34 24 20 32 hhcurveto
            15 return
          </CharString>
          <CharString index="45">
            490 214 rmoveto
            13 80 -25 69 -46 42 85 117 rcurveline
            -15 11 -86 -117 rlineto
            20 -27 -35 10 -35 hhcurveto
            -116 -111 -105 -127 -21 hvcurveto
            -11 -66 15 -73 57 -46 -88 -121 rcurveline
            15 -10 87 119 rlineto
            -17 27 35 -10 34 hhcurveto
            114 113 97 127 21 hvcurveto
            -93 178 rmoveto
            -244 -335 -34 45 10 70 7 42 rlinecurve
            6 38 12 60 36 46 rrcurveto
            48 37 49 20 39 hhcurveto
            38 28 -18 -16 16 hvcurveto
            28 -178 rmoveto
            -6 -37 -11 -56 -35 -46 rrcurveto
            -37 -30 -46 -28 -51 hhcurveto
            -48 -30 29 2 -3 hvcurveto
            245 334 27 -43 -2 -57 -10 -61 rlinecurve
            return
          </CharString>
          <CharString index="46">
            62 10 -16 40 -40 hhcurveto
            -29 -23 -22 -26 -4 hvcurveto
            -27 -5 16 -22 30 hhcurveto
            27 16 20 0 -7 0 -5 -2 -13 hvcurveto
            -3 -14 -13 -81 -81 -69 -10 -9 0 -2 -1 -3 rrcurveto
            -5 -1 4 -5 5 hhcurveto
            9 92 74 114 19 hvcurveto
            return
          </CharString>
          <CharString index="47">
            -79 callgsubr
            endchar
          </CharString>
          <CharString index="48">
            740 342 rmoveto
            188 31 -127 153 -188 hhcurveto
            -189 -179 -153 -188 -31 hvcurveto
            -189 -31 127 -153 189 hhcurveto
            188 179 153 189 31 hvcurveto
            -36 hmoveto
            -169 -28 -160 -137 -168 hhcurveto
            -169 -114 141 callsubr
            168 28 160 137 169 hhcurveto
            168 114 -137 -168 -28 hvcurveto
            return
          </CharString>
          <CharString index="49">
            764 339 rmoveto
            29 176 -92 97 -11 10 86 104 rcurveline
            -15 12 -86 -101 rlineto
            23 -24 -62 44 -91 hhcurveto
            -178 -175 -160 -205 -34 hvcurveto
            -17 -102 22 -106 69 -71 -86 -103 rcurveline
            15 -12 85 100 rlineto
            -54 63 66 -12 48 hhcurveto
            179 175 159 201 34 hvcurveto
            -116 268 rmoveto
            -433 -512 -36 62 -5 78 18 105 rlinecurve
            330 55 212 14 35 hhcurveto
            90 44 -53 -24 20 hvcurveto
            35 -267 rmoveto
            -318 -53 -202 -23 -47 hhcurveto
            -93 -46 57 20 -16 hvcurveto
            434 512 42 -75 -6 -95 -13 -78 rlinecurve
            return
          </CharString>
          <CharString index="50">
            -90 callsubr
            98 278 rmoveto
            -73 callgsubr
          </CharString>
          <CharString index="51">
            14 callgsubr
            -34 -21 -30 -19 -30 hhcurveto
            -34 -46 22 44 8 hvcurveto
            return
          </CharString>
          <CharString index="52">
            5 -50 callgsubr
            return
          </CharString>
          <CharString index="53">
            72 -69 callsubr
            return
          </CharString>
          <CharString index="54">
            hlineto
            7 callsubr
            return
          </CharString>
          <CharString index="55">
            -26 callgsubr
            190 hmoveto
            -4 callsubr
          </CharString>
          <CharString index="56">
            0 2 -24 hvcurveto
            7 callsubr
            -531 -87 callsubr
            return
          </CharString>
          <CharString index="57">
            -20 hstemhm
            71 76 172 83 -34 83 hintmask 11100110
            426 119 rmoveto
            9 1 -7 0 -3 hhcurveto
            -9 -1 -3 -12 -5 hvcurveto
            -71 -34 -59 -30 -54 hhcurveto
            -61 -72 53 152 25 hvcurveto
            166 28 92 41 50 hhcurveto
            38 52 -15 -39 17 hvcurveto
            hintmask 00000001
            -12 -37 0 -41 -7 hvcurveto
            hintmask 01000010
            -24 -4 14 -17 24 hhcurveto
            hintmask 00000001
            23 21 14 29 5 hvcurveto
            hintmask 10100110
            67 11 -62 48 -81 hhcurveto
            -117 -110 -104 141 callgsubr
            -21 79 -98 113 hhcurveto
            132 50 120 9 2 hvcurveto
            hintmask 00011000
            return
          </CharString>
          <CharString index="58">
            -73 callsubr
            -2 return
          </CharString>
          <CharString index="59">
            515 76 callsubr
            102 609 -141 -81 callsubr
            -37 -221 rlineto
            29 -16 -37 35 -61 hhcurveto
            -116 -117 -98 -128 -21 hvcurveto
            -127 -21 78 -98 110 hhcurveto
            76 53 50 19 17 hvcurveto
            -12 -69 rlineto
            22 127 rmoveto
            -3 -18 -1 -3 -18 -22 rrcurveto
            return
          </CharString>
          <CharString index="60">
            310 -45 callgsubr
            return
          </CharString>
          <CharString index="61">
            rmoveto
            13 2 -9 6 -8 hhcurveto
            -10 -4 -5 -10 -9 hvcurveto
            -86 -79 -86 -8 -38 hhcurveto
            -19 -86 0 78 -68 hvcurveto
            21 -18 -20 10 -26 hhcurveto
            -73 -85 -83 -118 -19 hvcurveto
            -122 -21 59 -80 72 hhcurveto
            72 71 90 111 18 hvcurveto
            5 29 4 37 -11 50 rrcurveto
            -38 58 56 -5 29 hhcurveto
            27 55 5 33 59 hvcurveto
            1 -1 -559 -678 -8 -9 -2 -3 -1 -5 rlinecurve
            -11 -2 8 -8 10 hhcurveto
            9 6 7 7 6 hvcurveto
            623 756 8 9 2 3 1 5 rlinecurve
            return
          </CharString>
          <CharString index="62">
            -21 callsubr
            -54 callsubr
            return
          </CharString>
          <CharString index="63">
            0 29 373 29 273 -20 hstemhm
            167 70 -40 63 -55 65 -33 63 -63 65 119 70 -32 70 hintmask 1110100001000000
            491 174 rmoveto
            18 110 -48 102 -93 33 78 20 71 54 12 70 rrcurveto
            75 12 -61 66 -95 hhcurveto
            -80 -92 -51 -96 -16 hvcurveto
            -21 -126 rlineto
            -76 hlineto
            -85 callsubr
            76 hlineto
            -55 -328 -88 callgsubr
            27 30 0 27 hhcurveto
            hintmask 1001000000000000
            18 23 0 -2 14 hvcurveto
            hintmask 0000100001000000
            93 557 rlineto
            121 20 88 6 14 hhcurveto
            41 51 -32 -88 -15 hvcurveto
            hintmask 0100001000000000
            -20 -122 -114 -9 -25 -2 rrcurveto
            -7 -1 -2 -9 0 vvcurveto
            hintmask 0000000110000000
            -1 -9 5 0 7 -1 105 -10 34 -109 -20 -118 rrcurveto
            -132 -22 -73 -32 -37 hhcurveto
            -6 -29 1 19 -17 hvcurveto
            hintmask 0000010010000000
            22 4 9 16 2 12 rrcurveto
            22 4 -14 11 -16 hhcurveto
            -17 -18 -11 -23 -4 hvcurveto
            -37 -6 31 -34 57 hhcurveto
            88 98 74 110 18 hvcurveto
            endchar
          </CharString>
          <CharString index="64">
            rrcurveto
            -44 -7 38 -41 60 hhcurveto
            48 55 37 54 24 hvcurveto
            return
          </CharString>
          <CharString index="65">
            rlineto
            33 6 3 7 44 hhcurveto
            return
          </CharString>
          <CharString index="66">
            26 callgsubr
            -27 -31 0 41 -21 hvcurveto
            -102 195 -5 10 rlineto
            3 72 54 10 8 vhcurveto
            79 60 44 1 21 1 5 29 rcurveline
            -2 -20 -26 0 -30 hhcurveto
            -26 -51 78 callsubr
            17 -1 10 -9 -2 -16 rlinecurve
            -4 -20 -24 -18 0 vvcurveto
            -164 -126 81 482 rlineto
            return
          </CharString>
          <CharString index="67">
            -20 -3 12 -17 22 hhcurveto
            11 10 6 3 return
          </CharString>
          <CharString index="68">
            rmoveto
            3 23 rlineto
            -241 hlineto
            -121 1 13 19 -1 hvcurveto
            -22 hlineto
            -65 -200 rlineto
            22 hlineto
            6 18 20 62 15 11 rrcurveto
            6 9 75 0 14 hhcurveto
            212 hlineto
            -132 -152 -33 -39 -129 -164 -31 -188 rlinecurve
            -11 -2 -7 -40 41 hhcurveto
            42 7 39 13 2 hvcurveto
            return
          </CharString>
          <CharString index="69">
            76 hintmask 00100000
            547 470 rmoveto
            31 6 -16 27 152 callgsubr
            -25 -24 -4 hvcurveto
            -24 -4 12 -25 32 hhcurveto
            5 5 1 1 4 hvcurveto
            -14 -20 -22 -15 -24 -5 rrcurveto
            return
          </CharString>
          <CharString index="70">
            -208 -10 22 201 19 0 19 195 -20 return
          </CharString>
          <CharString index="71">
            119 -10 22 220 19 195 -20 hstem
            239 71 102 71 97 65 69 62 vstem
            754 119 rmoveto
            6 1 -4 4 -6 hhcurveto
            -8 -3 -6 -3 -2 hvcurveto
            -92 -42 -70 -16 -31 hhcurveto
            -47 -33 28 33 -19 hvcurveto
            -29 54 11 66 7 39 rrcurveto
            270 hlineto
            22 2 0 19 3 hvcurveto
            114 19 -47 81 -103 hhcurveto
            -74 -66 -47 -55 -41 hvcurveto
            76 -34 -64 26 -56 hhcurveto
            -110 -112 -98 -130 -22 hvcurveto
            -128 -21 78 -100 111 hhcurveto
            59 73 29 75 57 hvcurveto
            -90 44 74 -14 39 hhcurveto
            111 60 110 19 3 hvcurveto
            -40 132 rmoveto
            -231 hlineto
            152 36 90 23 31 hhcurveto
            97 -18 -138 -37 -5 hvcurveto
            -302 -28 rmoveto
            -202 -33 -120 -11 -20 hhcurveto
            -18 -117 6 207 34 hvcurveto
            196 33 116 7 21 hhcurveto
            7 131 0 -203 -34 hvcurveto
            endchar
          </CharString>
          <CharString index="72">
            -20 callgsubr
            hintmask 00000110
            3 callsubr
            return
          </CharString>
          <CharString index="73">
            -1 10 37 6 hvcurveto
            return
          </CharString>
          <CharString index="74">
            417 383 rmoveto
            30 5 -22 28 -43 hhcurveto
            -85 -45 -92 -19 -9 hvcurveto
            -1 hlineto
            19 111 rlineto
            return
          </CharString>
          <CharString index="75">
            171 rmoveto
            15 92 -62 72 -93 17 91 25 68 73 13 78 rrcurveto
            79 13 -72 58 -97 hhcurveto
            -100 -84 -61 -73 -12 hvcurveto
            hintmask 0001101100000000
            -40 -7 30 -8 15 hhcurveto
            21 26 15 30 5 hvcurveto
            32 5 -21 14 -22 hhcurveto
            165 callgsubr
            68 49 94 0 5 hhcurveto
            33 62 -15 -98 -16 hvcurveto
            -3 -19 -12 -56 -37 -43 -37 -44 -34 -3 -28 -1 rrcurveto
            hintmask 0001000010000000
            -30 -3 -17 -1 -4 -1 -2 -9 rlinecurve
            -10 -2 5 0 18 hhcurveto
            hintmask 1101000101000000
            46 hlineto
            85 27 -70 -96 -16 hvcurveto
            -131 -22 -74 -35 -49 hhcurveto
            -48 -78 23 66 -18 hvcurveto
            hintmask 0010000000000000
            31 -5 32 18 6 36 rrcurveto
            hintmask 1100000000000000
            29 5 -18 20 -28 hhcurveto
            -24 -28 -14 -38 -6 hvcurveto
            -89 -15 76 -73 111 hhcurveto
            hintmask 0010000001000000
            119 104 91 101 17 hvcurveto
            endchar
          </CharString>
          <CharString index="76">
            -23 rmoveto
            16 92 -62 72 -94 17 92 25 68 73 13 78 rrcurveto
            79 13 -72 58 -97 hhcurveto
            hintmask 0000100100000000
            -100 -85 -61 -73 -12 hvcurveto
            -40 -6 29 -8 15 hhcurveto
            21 27 15 30 5 hvcurveto
            32 5 -22 14 -22 hhcurveto
            hintmask 0000000010000000
            165 callgsubr
            hintmask 0000001000100100
            68 50 94 0 5 hhcurveto
            33 62 -15 -98 -16 hvcurveto
            hintmask 0001000000010000
            -3 -19 -13 -56 -36 -43 -37 -44 -35 -3 -27 -1 -30 -3 rcurveline
            -18 -1 -4 -1 -1 -9 rrcurveto
            -10 -2 5 0 18 hhcurveto
            hintmask 1111000010001000
            46 hlineto
            85 26 -70 -96 -16 hvcurveto
            -131 -22 -73 -35 -49 hhcurveto
            -48 -79 23 66 -18 hvcurveto
            32 -5 32 18 6 36 rrcurveto
            29 4 -17 20 -28 hhcurveto
            -24 -29 -14 -38 -6 hvcurveto
            hintmask 1100000001001000
            -89 -15 77 -73 111 hhcurveto
            119 103 91 101 17 hvcurveto
            endchar
          </CharString>
          <CharString index="77">
            64 0 59 645 -20 hstem
            130 93 412 93 vstem
            688 156 rmoveto
            -22 hlineto
            -9 -26 -10 -26 -11 -21 rrcurveto
            -16 -8 -4 -8 -58 hhcurveto
            -79 hlineto
            21 56 37 48 52 62 59 73 58 73 14 83 rrcurveto
            138 23 -114 112 -167 hhcurveto
            -168 -149 -113 -137 -23 hvcurveto
            -14 -82 33 -72 35 -73 31 -65 22 -47 2 -56 rrcurveto
            -79 hlineto
            -58 -2 8 15 -2 hvcurveto
            -5 21 0 29 -1 24 rrcurveto
            -22 hlineto
            6 -156 rlineto
            155 hlineto
            22 2 0 18 3 hvcurveto
            12 71 -18 87 -11 51 -16 79 -15 73 13 76 rrcurveto
            154 26 119 75 99 hhcurveto
            99 95 -75 -154 -26 hvcurveto
            -13 -76 -40 -75 -41 -74 -25 -48 -50 -92 -12 -71 rrcurveto
            -19 -3 3 0 22 hhcurveto
            154 hlineto
            endchar
          </CharString>
          <CharString index="78">
            0 -2 26 hvcurveto
            return
          </CharString>
          <CharString index="79">
            hhcurveto
            -20 hlineto
            -85 callsubr
            return
          </CharString>
          <CharString index="80">
            38 callsubr
            48 0 30 hhcurveto
            30 48 102 callgsubr
            18 106 73 56 73 -138 12 -21 5 -11 -2 -14 rlinecurve
            -18 -3 -15 -5 -21 20 callgsubr
            25 49 0 27 hhcurveto
            43 2 0 -2 43 hvcurveto
            return
          </CharString>
          <CharString index="81">
            115 19 -42 87 -71 hhcurveto
            -73 -85 -83 -118 -20 hvcurveto
            -122 -20 59 -80 72 hhcurveto
            72 71 90 111 18 hvcurveto
            return
          </CharString>
          <CharString index="82">
            22 4 -20 11 -13 hhcurveto
            -21 -9 -17 -11 -6 hvcurveto
            -78 182 callsubr
            4 -3 6 -3 rlinecurve
            112 126 13 15 1 6 1 5 rlinecurve
            return
          </CharString>
          <CharString index="83">
            -35 -29 -46 -29 -50 hhcurveto
            -26 -107 10 194 33 hvcurveto
            12 72 18 40 28 33 rrcurveto
            31 25 45 31 50 hhcurveto
            62 28 -45 -16 7 hvcurveto
            9 -17 0 -2 -3 -18 rrcurveto
            return
          </CharString>
          <CharString index="84">
            -29 callsubr
            5 29 return
          </CharString>
          <CharString index="85">
            rmoveto
            -73 callsubr
            -353 hlineto
            -85 callsubr
            endchar
          </CharString>
          <CharString index="86">
            -85 callsubr
            20 hlineto
            return
          </CharString>
          <CharString index="87">
            495 214 rmoveto
            129 21 -81 103 -116 hhcurveto
            -120 -112 -106 84 callgsubr
            -19 -114 65 -89 95 -18 -39 -31 -35 -40 -7 -39 0 callsubr
            15 15 13 12 13 10 14 9 117 2 111 97 21 125 rrcurveto
            -75 9 rmoveto
            -6 -35 -10 -62 -34 -47 rrcurveto
            -48 -36 -49 -19 -38 hhcurveto
            -37 -42 16 49 -21 hvcurveto
            -20 45 9 59 7 42 7 38 10 61 38 45 rrcurveto
            43 35 47 16 35 hhcurveto
            39 39 -18 -39 21 hvcurveto
            23 -46 -11 -63 -6 -37 rrcurveto
            return
          </CharString>
          <CharString index="88">
            19 -3 -1 -12 -3 -23 -89 -532 rcurveline
            -34 -6 -2 -14 -98 hhcurveto
            -36 hlineto
            -53 callgsubr
            return
          </CharString>
          <CharString index="89">
            -344 0 29 373 29 273 -20 hstemhm
            121 79 -24 63 130 79 hintmask 01110000
            448 638 rmoveto
            37 7 -32 29 -48 hhcurveto
            -70 -88 -54 -102 -17 hvcurveto
            -19 -117 91 callsubr
            hintmask 01001000
            78 hlineto
            hintmask 10010000
            -55 -328 20 callsubr
            hintmask 01001100
            54 326 rlineto
            113 37 callgsubr
            -115 hlineto
            19 117 rlineto
            90 15 54 46 41 hhcurveto
            8 15 -2 -6 11 hvcurveto
            -4 -1 -27 -9 -5 -29 rrcurveto
            -23 -4 14 -16 23 hhcurveto
            24 18 16 24 4 hvcurveto
            endchar
          </CharString>
          <CharString index="90">
            2 0 1 -2 2 vhcurveto
            -52 65 -36 78 -15 87 rrcurveto
            3 -1 -3 3 -4 hhcurveto
            -3 hlineto
            -4 -4 -3 -5 hvcurveto
            6 -82 20 -79 33 -71 -57 -72 -46 -78 -33 -82 rrcurveto
            -1 -1 -1 -1 vvcurveto
            -4 4 -4 4 vhcurveto
            3 hlineto
            3 3 2 2 1 hvcurveto
            45 87 61 79 76 66 rrcurveto
            1 1 1 2 3 vvcurveto
            return
          </CharString>
          <CharString index="91">
            29 -5 33 18 6 36 rrcurveto
            24 4 -12 25 -34 hhcurveto
            -23 -28 -14 -37 -6 hvcurveto
            -71 -12 54 -62 87 hhcurveto
            84 104 60 110 18 hvcurveto
            77 461 rlineto
            return
          </CharString>
          <CharString index="92">
            hstemhm
            hintmask 10100000
            764 339 rmoveto
            207 34 -126 158 -174 hhcurveto
            -178 -175 -160 -205 -34 hvcurveto
            -32 -189 106 -149 157 -20 -34 -29 -27 -35 -6 -34 0 callsubr
            16 15 rrcurveto
            hintmask 01100000
            7 7 8 7 8 6 179 2 172 158 34 200 rrcurveto
            -91 15 rmoveto
            -260 -43 -152 -92 -97 hhcurveto
            -102 -116 96 256 43 hvcurveto
            245 41 153 83 94 hhcurveto
            99 120 -86 -242 -40 hvcurveto
            return
          </CharString>
          <CharString index="93">
            -20 hstemhm
            195 87 101 87 hintmask 10011000
            -4 callgsubr
            hintmask 01100000
            return
          </CharString>
          <CharString index="94">
            rmoveto
            5 -3 3 -5 vhcurveto
            -3 hlineto
            -3 -3 -1 -3 -1 hvcurveto
            -44 -87 -62 -79 -75 -65 rrcurveto
            -2 -2 -1 -2 -2 vvcurveto
            -2 1 -2 1 -1 vhcurveto
            53 -66 35 -78 15 -86 rrcurveto
            -4 1 65 callsubr
            3 hlineto
            5 3 4 5 hvcurveto
            -5 82 -20 78 -33 72 57 71 46 78 33 82 rrcurveto
            return
          </CharString>
          <CharString index="95">
            23 0 29 289 24 312 29 hstem
            601 93 vstem
            694 498 rmoveto
            97 16 -82 88 -135 hhcurveto
            -337 hlineto
            43 callsubr
            40 242 rlineto
            169 hlineto
            117 120 79 101 17 hvcurveto
            -93 hmoveto
            -42 -7 -19 -114 -163 hhcurveto
            -139 hlineto
            45 272 -42 callsubr
            94 hlineto
            162 -19 -113 -43 -7 hvcurveto
            endchar
          </CharString>
          <CharString index="96">
            42 -105 callsubr
            return
          </CharString>
          <CharString index="97">
            hstemhm
            242 -38 callsubr
            return
          </CharString>
          <CharString index="98">
            26 callgsubr
            -101 hlineto
            72 431 rlineto
            19 3 1 5 -14 hhcurveto
            hintmask 0010000010000000
            -8 -3 0 -12 -10 hvcurveto
            -375 -443 -85 callsubr
            hintmask 0010010000000000
            263 hlineto
            hintmask 0100100000000000
            -20 -118 rlineto
            -37 -6 -4 -10 -73 hhcurveto
            -20 hlineto
            hintmask 1000000000000000
            -4 -29 rlineto
            hintmask 0100001000000000
            167 callgsubr
            hintmask 1000100000000000
            28 80 46 callsubr
            4 -50 callgsubr
            hintmask 0010010000000000
            20 118 rlineto
            -61 29 rmoveto
            -243 hlineto
            hintmask 0000001000000000
            302 353 rlineto
            hintmask 0010000100000000
            endchar
          </CharString>
          <CharString index="99">
            rlineto
            36 6 4 12 87 hhcurveto
            30 23 callgsubr
            return
          </CharString>
          <CharString index="100">
            91 0 12 callsubr
            return
          </CharString>
          <CharString index="101">
            451 rmoveto
            -70 callsubr
            return
          </CharString>
          <CharString index="102">
            225 rmoveto
            11 66 1 67 -33 51 rrcurveto
            44 -29 -55 18 -58 hhcurveto
            -58 -61 -18 -44 -45 hvcurveto
            -49 -51 -21 -67 -11 -66 -11 -66 -2 -67 33 -51 rrcurveto
            -44 29 55 -18 58 hhcurveto
            58 61 18 44 45 hvcurveto
            49 51 22 67 11 66 rrcurveto
            -77 hmoveto
            -10 -58 -13 -60 -38 -51 rrcurveto
            -35 -24 -40 -22 -40 hhcurveto
            -40 -32 22 35 -14 hvcurveto
            -20 51 7 60 10 58 9 58 13 60 38 51 rrcurveto
            35 25 39 22 40 hhcurveto
            40 33 -22 -35 13 hvcurveto
            20 -51 -7 -60 -9 -58 rrcurveto
            endchar
          </CharString>
          <CharString index="103">
            -67 callgsubr
            endchar
          </CharString>
          <CharString index="104">
            -43 614 -92 callgsubr
            return
          </CharString>
          <CharString index="105">
            168 rmoveto
            -22 hlineto
            -6 -17 -17 -55 -13 -16 rrcurveto
            -9 -8 -57 0 -30 hhcurveto
            -185 hlineto
            31 23 71 64 30 24 176 140 64 52 17 99 rrcurveto
            115 19 -78 77 -116 hhcurveto
            -116 -85 -99 -86 -14 hvcurveto
            -51 -8 44 0 3 hhcurveto
            21 28 15 32 5 hvcurveto
            28 5 -16 19 -28 hhcurveto
            -9 -2 0 -1 -3 hvcurveto
            68 30 62 46 65 hhcurveto
            85 40 -71 -92 -15 hvcurveto
            -14 -85 -62 -74 -67 -64 -240 -226 rcurveline
            -4 -24 rlineto
            365 hlineto
            endchar
          </CharString>
          <CharString index="106">
            104 callgsubr
            hintmask 11010000
            521 -72 callsubr
            return
          </CharString>
          <CharString index="107">
            -43 callsubr
            -22 callgsubr
            return
          </CharString>
          <CharString index="108">
            62 hintmask 11000000
            427 119 rmoveto
            6 1 -4 4 -6 hhcurveto
            -8 -3 -5 -5 -3 hvcurveto
            -84 -40 -71 -23 -42 hhcurveto
            -42 -96 28 173 29 hvcurveto
            3 19 rlineto
            277 hlineto
            hintmask 10110001
            22 2 0 19 3 hvcurveto
            101 17 -39 94 -121 hhcurveto
            -114 -105 -103 -124 -20 hvcurveto
            -132 -22 85 -97 111 hhcurveto
            119 63 108 21 4 hvcurveto
            -40 132 rmoveto
            -238 hlineto
            157 34 91 18 28 hhcurveto
            107 -17 -141 -34 -5 hvcurveto
            hintmask 00001110
            return
          </CharString>
          <CharString index="109">
            41 callgsubr
            11 36 6 hvcurveto
            return
          </CharString>
          <CharString index="110">
            154 450 -82 callgsubr
            return
          </CharString>
          <CharString index="111">
            -29 -24 -23 -25 168 callgsubr
            22 -19 23 hhcurveto
            27 return
          </CharString>
          <CharString index="112">
            167 rmoveto
            -73 callsubr
            -101 hlineto
            76 455 rlineto
            19 3 1 5 -14 hhcurveto
            -8 -3 0 -12 -10 hvcurveto
            -379 -467 -85 callsubr
            263 hlineto
            -15 -91 rlineto
            -37 -6 -4 -10 -73 hhcurveto
            -20 hlineto
            181 callsubr
            80 0 -2 23 1 callgsubr
            15 91 rlineto
            -61 29 rmoveto
            -243 hlineto
            306 377 rlineto
            hintmask 01001000
            endchar
          </CharString>
          <CharString index="113">
            122 callsubr
            372 29 -29 40 return
          </CharString>
          <CharString index="114">
            -45 callsubr
            -88 return
          </CharString>
          <CharString index="115">
            -3 17 -21 hhcurveto
            -13 -24 -11 -22 return
          </CharString>
          <CharString index="116">
            -90 callsubr
            -8 171 5 callgsubr
            -17 79 callgsubr
            return
          </CharString>
          <CharString index="117">
            204 rmoveto
            133 22 -78 89 -100 hhcurveto
            -89 -46 -77 -28 -14 hvcurveto
            4 27 rlineto
            253 42 130 40 54 hhcurveto
            return
          </CharString>
          <CharString index="118">
            11 35 callgsubr
            return
          </CharString>
          <CharString index="119">
            29 204 29 452 return
          </CharString>
          <CharString index="120">
            -259 -21 144 73 return
          </CharString>
          <CharString index="121">
            rmoveto
            -211 hlineto
            19 113 rlineto
            95 16 83 45 73 hhcurveto
            35 2 0 -7 23 hvcurveto
            -1 -5 -12 -9 -10 -10 -3 -16 rlinecurve
            -1 -8 0 -17 16 -9 rrcurveto
            return
          </CharString>
          <CharString index="122">
            1008 256 rmoveto
            -22 hlineto
            -155 -50 -32 -72 -165 hhcurveto
            -116 hlineto
            -44 -1 7 33 6 hvcurveto
            45 271 rlineto
            110 hlineto
            100 9 -30 -87 -15 hvcurveto
            22 hlineto
            44 263 rlineto
            -22 hlineto
            -86 -14 -19 -31 -100 hhcurveto
            -110 hlineto
            40 245 -42 callsubr
            118 hlineto
            return
          </CharString>
          <CharString index="123">
            hlineto
            -28 callgsubr
            return
          </CharString>
          <CharString index="124">
            26 callgsubr
            -31 hlineto
            -88 -1 12 36 6 hvcurveto
            94 564 rlineto
            23 4 0 1 -20 hhcurveto
            -27 -29 -56 -37 -103 hhcurveto
            -85 callsubr
            23 50 0 26 60 hvcurveto
            -87 -521 rlineto
            -36 -6 -5 -12 -88 hhcurveto
            -31 hlineto
            -53 callgsubr
            27 97 0 33 hhcurveto
            33 96 0 -2 27 hvcurveto
            endchar
          </CharString>
          <CharString index="125">
            -126 -183 -21 38 76 445 76 -29 29 return
          </CharString>
          <CharString index="126">
            156 934 rlineto
            14 2 3 19 -20 hhcurveto
            -20 -3 -19 -14 -2 hvcurveto
            -156 -934 rlineto
            -14 -3 -3 -19 20 hhcurveto
            20 3 19 14 3 hvcurveto
            return
          </CharString>
          <CharString index="127">
            53 callgsubr
            2 callsubr
            return
          </CharString>
          <CharString index="128">
            505 27 callsubr
            return
          </CharString>
          <CharString index="129">
            -9 -49 -43 callsubr
            return
          </CharString>
          <CharString index="130">
            9 44 16 0 14 hhcurveto
            383 hlineto
            -365 342 rmoveto
            -16 -98 -16 -96 -10 -36 rrcurveto
            -59 -17 -15 -54 -91 hhcurveto
            -129 -82 155 200 33 hvcurveto
            194 32 136 136 123 hhcurveto
            87 3 -48 -57 -3 hvcurveto
            -1 -24 -2 -21 -32 -192 rrcurveto
            endchar
          </CharString>
          <CharString index="131">
            -208 -200 22 93 22 hstem
            197 44 9 76 vstem
            326 -131 rmoveto
            47 8 -52 21 -53 hhcurveto
            12 67 rlineto
            -44 hlineto
            -15 -89 rlineto
            37 15 callgsubr
            endchar
          </CharString>
          <CharString index="132">
            34 callsubr
            -356 403 rmoveto
            return
          </CharString>
          <CharString index="133">
            -26 callsubr
            -322 hmoveto
            -26 callsubr
            return
          </CharString>
          <CharString index="134">
            690 -82 callgsubr
            return
          </CharString>
          <CharString index="135">
            56 callgsubr
            168 callsubr
            return
          </CharString>
          <CharString index="136">
            -36 callgsubr
            111 -21 return
          </CharString>
          <CharString index="137">
            13 callsubr
            63 29 return
          </CharString>
          <CharString index="138">
            23 callgsubr
            -24 return
          </CharString>
          <CharString index="139">
            41 244 -42 callsubr
            133 hlineto
            147 22 -50 -144 -9 hvcurveto
            22 hlineto
            12 223 rlineto
            -544 -83 callsubr
            return
          </CharString>
          <CharString index="140">
            -45 callgsubr
            endchar
          </CharString>
          <CharString index="141">
            -106 -17 -37 callgsubr
            -18 hvcurveto
            -322 hmoveto
            -106 -17 -37 callgsubr
            -18 hvcurveto
            return
          </CharString>
          <CharString index="142">
            rmoveto
            9 54 rlineto
            -260 hlineto
            hintmask 11000000
            -9 -54 rlineto
            endchar
          </CharString>
          <CharString index="143">
            69 54 -39 -56 31 hvcurveto
            37 -67 1 -83 -14 -82 rrcurveto
            return
          </CharString>
          <CharString index="144">
            340 451 173 callsubr
            -26 -25 -22 -26 -5 hvcurveto
            -28 -4 18 -21 27 hhcurveto
            26 26 22 26 4 hvcurveto
            55 -521 rmoveto
            36 6 -25 8 -15 hhcurveto
            -17 -26 -12 -30 -5 hvcurveto
            -23 -4 14 -18 25 hhcurveto
            return
          </CharString>
          <CharString index="145">
            -141 -81 callsubr
            -88 -524 -64 callgsubr
            return
          </CharString>
          <CharString index="146">
            hmoveto
            5 29 rlineto
            -20 hlineto
            -72 -7 callgsubr
            72 hhcurveto
            20 37 callgsubr
            return
          </CharString>
          <CharString index="147">
            20 1 29 303 20 302 29 return
          </CharString>
          <CharString index="148">
            91 -21 29 646 29 return
          </CharString>
          <CharString index="149">
            0 94 callgsubr
            return
          </CharString>
          <CharString index="150">
            7 callsubr
            -531 rlineto
            -37 -6 -5 -10 -72 hhcurveto
            -20 hlineto
            -60 callgsubr
            -73 callsubr
            -20 hlineto
            -72 -1 10 37 6 hvcurveto
            return
          </CharString>
          <CharString index="151">
            2 11 -6 13 -2 11 -23 109 rcurveline
            15 -4 -4 14 -18 hhcurveto
            -4 hlineto
            -18 -2 -17 -13 -3 -17 -3 -17 14 -16 7 -14 36 -64 rcurveline
            -12 7 10 -28 8 hhcurveto
            1 hlineto
            5 1 10 4 2 5 rrcurveto
            return
          </CharString>
          <CharString index="152">
            10 4 11 2 5 rlinecurve
            endchar
          </CharString>
          <CharString index="153">
            0 -2 23 hvcurveto
            return
          </CharString>
          <CharString index="154">
            7 7 3 6 4 hvcurveto
            498 643 3 3 1 3 1 3 rlinecurve
            return
          </CharString>
          <CharString index="155">
            347 124 rmoveto
            9 57 rlineto
            -22 hlineto
            return
          </CharString>
          <CharString index="156">
            135 rmoveto
            269 44 -100 67 -88 hhcurveto
            -110 -113 52 callgsubr
            29 hvcurveto
            -6 -33 rlineto
            -236 -39 -113 -49 -60 hhcurveto
            return
          </CharString>
          <CharString index="157">
            78 -21 40 callsubr
            return
          </CharString>
          <CharString index="158">
            82 callgsubr
            89 0 30 hhcurveto
            35 88 0 -2 29 hvcurveto
            -73 callsubr
            return
          </CharString>
          <CharString index="159">
            -21 27 198 24 93 27 58 20 92 82 -41 82 0 24 hstemhm
            return
          </CharString>
          <CharString index="160">
            -73 callsubr
            -20 hlineto
            return
          </CharString>
          <CharString index="161">
            -56 callsubr
            3 19 return
          </CharString>
          <CharString index="162">
            -290 42 callsubr
            return
          </CharString>
          <CharString index="163">
            91 42 callsubr
            return
          </CharString>
          <CharString index="164">
            79 callsubr
            hstemhm
            return
          </CharString>
          <CharString index="165">
            -31 -27 13 19 -17 hvcurveto
            -19 23 -12 20 5 28 34 206 rcurveline
            3 19 1 1 13 16 rrcurveto
            45 38 52 19 38 hhcurveto
            75 45 -91 -112 -19 hvcurveto
            endchar
          </CharString>
          <CharString index="166">
            91 -21 29 583 27 36 27 -27 29 return
          </CharString>
          <CharString index="167">
            -1 -2 -2 0 -14 hhcurveto
            -117 hlineto
            19 113 rlineto
            102 17 93 38 59 hhcurveto
            10 48 -1 -34 24 hvcurveto
            -42 -8 -31 -11 -2 hvcurveto
            -29 -5 22 -13 17 hhcurveto
            return
          </CharString>
          <CharString index="168">
            521 -72 callsubr
            -86 -51 -65 -31 -19 hvcurveto
            -1 hlineto
            return
          </CharString>
          <CharString index="169">
            38 35 -14 -32 -5 hvcurveto
            -47 -8 -96 0 -78 hhcurveto
            -11 hlineto
            -3 -22 rlineto
            22 hlineto
            108 131 0 69 11 hvcurveto
            47 8 -51 21 -54 hhcurveto
            7 42 return
          </CharString>
          <CharString index="170">
            -20 hstem
            21 callgsubr
            return
          </CharString>
          <CharString index="171">
            30 callsubr
            625 29 return
          </CharString>
          <CharString index="172">
            3 -3 4 hhcurveto
            return
          </CharString>
          <CharString index="173">
            -25 -52 -55 hvcurveto
            return
          </CharString>
          <CharString index="174">
            -276 hlineto
            46 276 rlineto
            14 2 3 18 -18 hhcurveto
            -19 -3 -17 -15 -2 hvcurveto
            -46 -276 rlineto
            -276 hlineto
            -14 -18 0 -18 -3 hvcurveto
            -19 return
          </CharString>
          <CharString index="175">
            148 callgsubr
            13 17 15 15 return
          </CharString>
          <CharString index="176">
            -154 -10 22 414 20 -20 102 return
          </CharString>
          <CharString index="177">
            -208 -10 22 276 82 54 22 return
          </CharString>
          <CharString index="178">
            91 0 29 312 29 284 29 return
          </CharString>
          <CharString index="179">
            154 24 77 24 390 24 return
          </CharString>
          <CharString index="180">
            -34 callsubr
            88 return
          </CharString>
          <CharString index="181">
            -11 -20 -14 -61 -44 rcurveline
            hintmask 10010000
            11 -17 rlineto
            41 56 58 30 51 hhcurveto
            40 26 -17 -20 32 hvcurveto
            -17 26 28 -17 40 hhcurveto
            hintmask 01000000
            25 return
          </CharString>
          <CharString index="182">
            125 -21 91 callgsubr
            return
          </CharString>
          <CharString index="183">
            26 callgsubr
            -68 -7 7 49 8 hvcurveto
            return
          </CharString>
          <CharString index="184">
            vstem
            556 242 rmoveto
            76 13 -54 58 -70 hhcurveto
            -80 -67 -64 -70 -12 hvcurveto
            -83 -13 61 -53 64 hhcurveto
            75 70 58 78 13 hvcurveto
            return
          </CharString>
          <CharString index="185">
            0 2 -23 hvcurveto
            -5 -29 return
          </CharString>
          <CharString index="186">
            -21 186 -20 return
          </CharString>
          <CharString index="187">
            3 1 0 9 -10 hhcurveto
            -11 0 -4 -18 -3 hvcurveto
            -3 -17 -7 -44 -19 -111 -122 -92 rlinecurve
            -26 -19 -28 -30 -8 -53 return
          </CharString>
          <CharString index="188">
            hlineto
            128 296 rlineto
            6 14 1 4 0 vvcurveto
            11 1 -6 8 -11 hhcurveto
            -14 -5 -13 -10 -5 hvcurveto
            -134 -310 rlineto
            return
          </CharString>
          <CharString index="189">
            749 335 rmoveto
            193 32 -109 155 -166 hhcurveto
            -350 hlineto
            -45 callsubr
            return
          </CharString>
          <CharString index="190">
            147 rlineto
            11 -2 return
          </CharString>
          <CharString index="191">
            76 43 91 87 14 hvcurveto
            -378 -29 rmoveto
            -68 -11 -75 -46 -73 hhcurveto
            -42 -27 36 43 7 hvcurveto
            53 9 64 27 59 hhcurveto
            return
          </CharString>
          <CharString index="192">
            112 callgsubr
            105 93 return
          </CharString>
          <CharString index="193">
            1 5 rlinecurve
            endchar
          </CharString>
          <CharString index="194">
            rmoveto
            -106 -17 -37 callgsubr
            -18 hvcurveto
            return
          </CharString>
          <CharString index="195">
            -99 0 111 callsubr
            return
          </CharString>
          <CharString index="196">
            rmoveto
            19 3 -17 0 -15 hhcurveto
            return
          </CharString>
          <CharString index="197">
            22 390 29 184 -20 return
          </CharString>
          <CharString index="198">
            rlineto
            -78 hlineto
            -85 callsubr
            return
          </CharString>
          <CharString index="199">
            -38 callgsubr
            -26 return
          </CharString>
          <CharString index="200">
            rmoveto
            23 4 -16 19 -23 hhcurveto
            -23 -22 -19 -23 -4 hvcurveto
            -24 -4 16 -18 23 hhcurveto
            23 22 18 24 4 hvcurveto
            return
          </CharString>
          <CharString index="201">
            -20 101 callgsubr
            return
          </CharString>
          <CharString index="202">
            46 40 46 0 46 222 41 hintmask 01101010
            return
          </CharString>
          <CharString index="203">
            -14 hvcurveto
            22 hlineto
            44 263 rlineto
            -22 hlineto
            return
          </CharString>
          <CharString index="204">
            544 216 rmoveto
            127 21 -77 98 return
          </CharString>
          <CharString index="205">
            91 57 callsubr
            return
          </CharString>
          <CharString index="206">
            96 158 callsubr
            hstemhm
            return
          </CharString>
          <CharString index="207">
            180 callsubr
            hintmask 0000000010000000
            48 callsubr
            return
          </CharString>
          <CharString index="208">
            4 -18 5 rrcurveto
            6 -18 -28 8 -21 hhcurveto
            -35 -6 -28 -5 -1 hvcurveto
            -13 -2 2 -21 31 hhcurveto
            21 return
          </CharString>
          <CharString index="209">
            29 280 29 63 29 -29 40 return
          </CharString>
          <CharString index="210">
            64 11 -21 338 29 45 29 return
          </CharString>
          <CharString index="211">
            -56 callsubr
            6 38 41 return
          </CharString>
          <CharString index="212">
            205 155 -90 callsubr
            return
          </CharString>
          <CharString index="213">
            149 44 116 58 67 rlinecurve
            endchar
          </CharString>
          <CharString index="214">
            126 callgsubr
            83 14 -60 65 -85 hhcurveto
            -114 -84 -125 -127 -21 hvcurveto
            return
          </CharString>
          <CharString index="215">
            11 -63 callsubr
            14 -3 -21 27 hvcurveto
            -12 18 18 -13 23 hhcurveto
            return
          </CharString>
          <CharString index="216">
            20 -20 39 121 callsubr
            40 hstemhm
            71 76 return
          </CharString>
          <CharString index="217">
            hmoveto
            -55 callsubr
            return
          </CharString>
          <CharString index="218">
            29 121 callsubr
            29 -29 40 return
          </CharString>
          <CharString index="219">
            -229 -21 1000 -20 return
          </CharString>
          <CharString index="220">
            654 rmoveto
            5 29 return
          </CharString>
          <CharString index="221">
            hvcurveto
            62 368 return
          </CharString>
          <CharString index="222">
            rrcurveto
            18 -26 -29 13 -36 hhcurveto
            -71 -75 -37 -65 -11 hvcurveto
            -55 -9 35 -46 54 hhcurveto
            return
          </CharString>
          <CharString index="223">
            rmoveto
            13 2 -3 21 -31 hhcurveto
            -21 -30 -8 -6 -22 hvcurveto
            -3 -1 -26 -7 -21 -2 return
          </CharString>
          <CharString index="224">
            -18 callgsubr
            61 -21 return
          </CharString>
          <CharString index="225">
            119 -34 -21 34 20 685 20 34 -20 return
          </CharString>
          <CharString index="226">
            -208 0 22 409 -20 return
          </CharString>
          <CharString index="227">
            403 97 193 -20 hstem
            return
          </CharString>
          <CharString index="228">
            392 20 213 return
          </CharString>
          <CharString index="229">
            -371 0 29 return
          </CharString>
          <CharString index="230">
            -57 14 39 -15 hvcurveto
            23 -3 23 11 3 22 rrcurveto
            17 3 -13 12 -20 hhcurveto
            return
          </CharString>
          <CharString index="231">
            65 callgsubr
            111 -21 return
          </CharString>
          <CharString index="232">
            -99 -21 29 669 27 return
          </CharString>
          <CharString index="233">
            72 -21 133 -20 hstemhm
            return
          </CharString>
          <CharString index="234">
            64 0 29 620 29 return
          </CharString>
          <CharString index="235">
            -14 -2 -3 -19 20 hhcurveto
            20 3 19 14 2 hvcurveto
            136 815 rlineto
            return
          </CharString>
          <CharString index="236">
            -208 -202 44 47 19 82 22 201 19 0 19 195 -20 return
          </CharString>
          <CharString index="237">
            11 5 vvcurveto
            21 1 20 18 20 hhcurveto
            150 callsubr
            7 hvcurveto
            endchar
          </CharString>
          <CharString index="238">
            -262 -10 90 callsubr
            return
          </CharString>
          <CharString index="239">
            22 54 22 -13 22 return
          </CharString>
          <CharString index="240">
            91 -50 91 -51 99 -89 99 -72 99 10 93 -51 84 hintmask 0000010001000100
            return
          </CharString>
          <CharString index="241">
            hlineto
            -4 -3 -3 -3 -2 hvcurveto
            -5 -12 rlineto
            -5 -2 3 -5 5 hhcurveto
            return
          </CharString>
          <CharString index="242">
            -206 -35 128 -154 171 hhcurveto
            24 21 4 8 35 hvcurveto
            return
          </CharString>
          <CharString index="243">
            350 0 -21 21 29 311 29 285 29 21 -20 hstemhm
            return
          </CharString>
          <CharString index="244">
            36 30 49 29 49 hhcurveto
            30 103 -12 -192 -32 hvcurveto
            endchar
          </CharString>
          <CharString index="245">
            363 0 -21 602 29 44 29 return
          </CharString>
          <CharString index="246">
            -21 594 71 32 -20 hstem
            return
          </CharString>
          <CharString index="247">
            3 2 0 0 vvcurveto
            0 -1 return
          </CharString>
          <CharString index="248">
            137 169 28 hvcurveto
            return
          </CharString>
          <CharString index="249">
            28 5 -19 21 -27 hhcurveto
            return
          </CharString>
          <CharString index="250">
            8 7 6 8 1 hvcurveto
            return
          </CharString>
          <CharString index="251">
            7 callgsubr
            -25 return
          </CharString>
          <CharString index="252">
            hstemhm
            120 65 return
          </CharString>
          <CharString index="253">
            0 28 hhcurveto
            28 return
          </CharString>
          <CharString index="254">
            90 callgsubr
            -6 -34 -3 -19 rcurveline
            -5 -1 return
          </CharString>
          <CharString index="255">
            -129 3 -6 3 -6 4 -6 rlinecurve
            184 96 20 10 return
          </CharString>
          <CharString index="256">
            7 1 3 6 1 6 rrcurveto
            endchar
          </CharString>
          <CharString index="257">
            10 5 -6 -8 return
          </CharString>
          <CharString index="258">
            28 120 28 return
          </CharString>
          <CharString index="259">
            169 callsubr
            hintmask 11001000
            return
          </CharString>
          <CharString index="260">
            9 26 hhcurveto
            19 14 -4 -9 8 hvcurveto
            7 -7 0 -11 return
          </CharString>
          <CharString index="261">
            336 22 -21 230 38 -37 38 230 -20 hstemhm
            return
          </CharString>
          <CharString index="262">
            hhcurveto
            -29 -22 -22 -26 -5 hvcurveto
            -27 -4 15 -22 30 hhcurveto
            return
          </CharString>
          <CharString index="263">
            rmoveto
            21 5 -13 18 -21 hhcurveto
            -10 -7 -6 -8 -9 hvcurveto
            return
          </CharString>
          <CharString index="264">
            90 callsubr
            hstemhm
            return
          </CharString>
          <CharString index="265">
            -21 176 -20 return
          </CharString>
          <CharString index="266">
            93 103 30 76 23 hvcurveto
            -55 55 50 -64 84 hhcurveto
            return
          </CharString>
          <CharString index="267">
            -8 -1 6 -6 7 hhcurveto
            143 callsubr
            return
          </CharString>
          <CharString index="268">
            15 19 9 18 3 hvcurveto
            19 3 -16 9 -16 hhcurveto
            return
          </CharString>
          <CharString index="269">
            hvcurveto
            -73 callsubr
            125 callgsubr
            return
          </CharString>
          <CharString index="270">
            -142 -11 -85 callsubr
            70 4 -8 -50 -8 hvcurveto
            return
          </CharString>
          <CharString index="271">
            -2 -2 -2 -4 -1 -3 return
          </CharString>
          <CharString index="272">
            -194 29 155 20 return
          </CharString>
          <CharString index="273">
            -140 0 -21 81 103 return
          </CharString>
          <CharString index="274">
            20 callgsubr
            24 return
          </CharString>
          <CharString index="275">
            -37 -26 -25 -52 return
          </CharString>
          <CharString index="276">
            35 177 42 -28 35 -7 35 -28 42 hstemhm
            return
          </CharString>
          <CharString index="277">
            hvcurveto
            -17 -3 10 -11 15 hhcurveto
            14 15 11 16 return
          </CharString>
          <CharString index="278">
            -18 98 callgsubr
            return
          </CharString>
          <CharString index="279">
            65 14 132 callsubr
            return
          </CharString>
          <CharString index="280">
            rmoveto
            142 callsubr
            return
          </CharString>
          <CharString index="281">
            -11 -4 -20 -2 -12 return
          </CharString>
          <CharString index="282">
            -1 4 -3 4 hhcurveto
            return
          </CharString>
          <CharString index="283">
            55 328 rlineto
            return
          </CharString>
          <CharString index="284">
            17 -3 18 -17 17 -8 17 0 14 hstemhm
            return
          </CharString>
          <CharString index="285">
            -65 -3 5 39 6 114 callsubr
            rlineto
            return
          </CharString>
          <CharString index="286">
            0 29 -26 26 370 29 43 -20 hstemhm
            return
          </CharString>
          <CharString index="287">
            hstemhm
            170 172 callsubr
            return
          </CharString>
          <CharString index="288">
            -5 -29 rlineto
            167 callgsubr
            28 return
          </CharString>
          <CharString index="289">
            -147 6 -4 return
          </CharString>
        <CharString name=".notdef">
          -363 endchar
        </CharString>
        <CharString name="A">
          -18 callgsubr
          hstem
          -107 callgsubr
          endchar
        </CharString>
        <CharString name="AE">
          132 callgsubr
          hstem
          706 22 0 22 0 22 cntrmask 00011100
          50 callgsubr
          44 callgsubr
          -31 callgsubr
          163 hlineto
          16 callgsubr
          endchar
        </CharString>
        <CharString name="AE.dup">
          132 callgsubr
          129 callgsubr
          hintmask 1001000010000000
          50 callgsubr
          hintmask 0100101100000000
          44 callgsubr
          hintmask 1110010001000000
          -31 callgsubr
          hintmask 0100100000000000
          163 hlineto
          hintmask 1101000010000000
          16 callgsubr
          hintmask 0100010000000000
          endchar
        </CharString>
        <CharString name="AEacute">
          132 callgsubr
          82 -21 161 -20 129 callgsubr
          hintmask 1000010000100000
          50 callgsubr
          hintmask 0100001011000000
          44 callgsubr
          hintmask 1110000100010000
          -31 callgsubr
          hintmask 0100001000000000
          163 hlineto
          hintmask 1100010000100000
          16 callgsubr
          hintmask 0100000100000000
          hintmask 0001100000000000
          212 261 -96 callgsubr
        </CharString>
        <CharString name="Aacute">
          -18 callgsubr
          71 -21 161 -20 -105 callsubr
          hintmask 00011000
          207 271 -96 callgsubr
        </CharString>
        <CharString name="Abreve">
          -18 callgsubr
          50 35 137 -24 callgsubr
          endchar
        </CharString>
        <CharString name="Abreveacute">
          -18 callgsubr
          50 35 318 -24 callgsubr
          -22 142 -96 callgsubr
        </CharString>
        <CharString name="Abrevedotbelow">
          -18 callgsubr
          50 35 137 -20 hstemhm
          294 97 hintmask 11111000
          -107 callgsubr
          4 callgsubr
          hintmask 00000100
          -274 -1068 -102 callsubr
          endchar
        </CharString>
        <CharString name="Abrevegrave">
          -18 callgsubr
          50 35 137 -24 callgsubr
          -38 38 5 callgsubr
          -16 10 -1 130 callsubr
        </CharString>
        <CharString name="Abrevehookabove">
          -18 callgsubr
          50 35 348 -24 callgsubr
          -26 145 137 callgsubr
          -46 -25 -41 -7 170 callsubr
          3 hvcurveto
          17 2 -11 11 -14 hhcurveto
          -1 hlineto
          14 16 24 153 callsubr
          -3 -20 -2 -12 -7 147 callsubr
          4 -3 4 hhcurveto
          5 3 3 5 1 hvcurveto
          3 19 5 31 29 23 43 20 rlinecurve
          19 9 15 182 callgsubr
        </CharString>
        <CharString name="Abrevetilde">
          -18 callgsubr
          50 35 177 42 -28 35 -7 35 -28 -11 callsubr
          hintmask 00011001
          4 callgsubr
          36 117 rmoveto
          -12 14 rlineto
          -29 -33 -25 -74 callsubr
          hintmask 00000100
          -37 -26 66 callsubr
          hintmask 00001001
          108 callsubr
          hintmask 00000010
          37 26 25 52 56 hvcurveto
          endchar
        </CharString>
        <CharString name="Acaron">
          117 callsubr
          133 -20 -105 callsubr
          hintmask 00011000
          222 256 -59 callgsubr
        </CharString>
        <CharString name="Acircumflex">
          117 callsubr
          133 -20 -105 callsubr
          hintmask 00011000
          105 callsubr
          endchar
        </CharString>
        <CharString name="Acircumflexacute">
          117 callsubr
          314 -20 -105 callsubr
          hintmask 00011000
          105 callsubr
          8 275 rmoveto
          21 6 -13 18 -21 hhcurveto
          -10 -7 -6 -8 -10 -23 callgsubr
        </CharString>
        <CharString name="Acircumflexdotbelow">
          117 callsubr
          133 -20 hstemhm
          294 97 hintmask 11111000
          -107 callgsubr
          105 callsubr
          hintmask 00000100
          -237 -886 -102 callsubr
          endchar
        </CharString>
        <CharString name="Acircumflexgrave">
          117 callsubr
          133 -20 -105 callsubr
          hintmask 00011000
          205 155 2 callgsubr
        </CharString>
        <CharString name="Acircumflexhookabove">
          117 callsubr
          344 -20 -105 callsubr
          hintmask 00011000
          205 155 -57 callsubr
        </CharString>
        <CharString name="Acircumflextilde">
          117 callsubr
          173 42 7 -11 callsubr
          hintmask 00011100
          105 callsubr
          66 250 rmoveto
          -12 14 rlineto
          -29 -34 -24 -20 -32 hhcurveto
          -15 -13 3 21 -28 -63 callgsubr
        </CharString>
        <CharString name="Adblgrave">
          -18 callgsubr
          71 146 callgsubr
          -105 callsubr
          hintmask 00011000
          146 159 -75 callgsubr
        </CharString>
        <CharString name="Adieresis">
          -18 callgsubr
          40 87 hstemhm
          359 87 101 87 hintmask 11100000
          -107 callgsubr
          hintmask 00011100
          8 182 -80 callgsubr
        </CharString>
        <CharString name="Adotbelow">
          -18 callgsubr
          hstemhm
          294 97 hintmask 11100000
          -107 callgsubr
          hintmask 00010000
          -47 -747 -102 callsubr
          endchar
        </CharString>
        <CharString name="Agrave">
          -18 callgsubr
          71 -21 161 -20 -105 callsubr
          hintmask 00011000
          124 167 -76 callgsubr
        </CharString>
        <CharString name="Ahookabove">
          -18 callgsubr
          82 -21 211 -20 -105 callsubr
          hintmask 00011000
          174 305 -106 callsubr
        </CharString>
        <CharString name="Alpha">
          -18 callgsubr
          hstem
          -107 callgsubr
          endchar
        </CharString>
        <CharString name="Amacron">
          -18 callgsubr
          60 29 -105 callsubr
          hintmask 00010000
          231 159 9 callgsubr
        </CharString>
        <CharString name="Aogonek">
          154 callgsubr
          hstem
          184 45 225 45 vstem
          -30 callgsubr
          endchar
        </CharString>
        <CharString name="Aogonekacute">
          154 callgsubr
          71 -21 161 -20 hstemhm
          184 45 225 45 hintmask 11110011
          -30 callgsubr
          hintmask 00001100
          207 271 -96 callgsubr
        </CharString>
        <CharString name="Aring">
          -7 callsubr
          151 callsubr
          -105 callsubr
          hintmask 00110000
          126 207 -60 callsubr
        </CharString>
        <CharString name="Aringacute">
          -7 callsubr
          151 callsubr
          181 -20 -105 callsubr
          hintmask 00111000
          126 207 -79 callgsubr
          47 231 -54 callgsubr
        </CharString>
        <CharString name="Atilde">
          -18 callgsubr
          40 42 7 -11 callsubr
          hintmask 00011000
          226 216 -104 callgsubr
        </CharString>
        <CharString name="B">
          -27 callgsubr
        </CharString>
        <CharString name="Beta">
          -27 callgsubr
        </CharString>
        <CharString name="C">
          142 callgsubr
          hstem
          111 93 vstem
          -78 callsubr
          -207 -34 133 -156 181 hhcurveto
          164 117 143 110 19 hvcurveto
          endchar
        </CharString>
        <CharString name="Cacute">
          142 callgsubr
          61 -21 161 -20 hstemhm
          111 93 hintmask 11001000
          -78 callsubr
          -207 -34 133 -156 181 hhcurveto
          164 117 143 110 19 hvcurveto
          hintmask 00110000
          -24 634 -96 callgsubr
        </CharString>
        <CharString name="Ccaron">
          142 callgsubr
          51 -21 133 -20 hstemhm
          111 93 hintmask 11001000
          -78 callsubr
          -207 -34 133 -156 181 hhcurveto
          164 117 143 110 19 hvcurveto
          hintmask 00110000
          -9 619 -59 callgsubr
        </CharString>
        <CharString name="Ccedilla">
          142 callgsubr
          hstem
          111 93 vstem
          -78 callsubr
          -33 -196 119 -151 167 -15 -11 -65 rcurveline
          62 callsubr
          156 9 110 138 18 106 rlinecurve
          endchar
        </CharString>
        <CharString name="Ccircumflex">
          142 callgsubr
          51 -21 133 -20 hstemhm
          111 93 hintmask 11001000
          -78 callsubr
          -207 -34 133 -156 181 hhcurveto
          164 117 143 110 19 hvcurveto
          hintmask 00110000
          -26 518 -44 callgsubr
        </CharString>
        <CharString name="Cdotaccent">
          142 callgsubr
          51 97 hstemhm
          111 93 271 97 hintmask 11010000
          -78 callsubr
          -207 -34 133 -156 181 hhcurveto
          164 117 143 110 19 hvcurveto
          hintmask 00101000
          -119 571 -41 callgsubr
        </CharString>
        <CharString name="Chi">
          -43 callgsubr
        </CharString>
        <CharString name="D">
          105 42 callsubr
          hstem
          658 91 vstem
          -68 callsubr
          endchar
        </CharString>
        <CharString name="Dcaron">
          105 42 callsubr
          126 callsubr
          658 91 hintmask 11001000
          -68 callsubr
          hintmask 00110000
          -50 515 -59 callgsubr
        </CharString>
        <CharString name="Dcroat">
          -25 callgsubr
        </CharString>
        <CharString name="Ddotbelow">
          105 144 callgsubr
          242 97 319 91 hintmask 11010000
          -68 callsubr
          hintmask 00100000
          -319 -488 -102 callsubr
          endchar
        </CharString>
        <CharString name="Delta">
          173 0 69 645 -20 hstem
          47 723 vstem
          770 7 rmoveto
          1 4 -1 6 -2 3 -221 676 rcurveline
          14 -5 -1 4 -14 hhcurveto
          -15 -3 -4 -14 -9 hvcurveto
          -447 -676 -2 -3 -3 -6 -1 -4 rlinecurve
          -6 -1 1 -1 20 hhcurveto
          681 hlineto
          20 1 1 6 1 hvcurveto
          -108 62 rmoveto
          -545 hlineto
          364 553 rlineto
          endchar
        </CharString>
        <CharString name="Dlinebelow">
          105 -165 29 136 94 callgsubr
          hstemhm
          658 91 hintmask 01110000
          -68 callsubr
          hintmask 10000000
          -195 -501 -22 callsubr
        </CharString>
        <CharString name="E">
          0 callgsubr
          hstem
          452 22 0 22 0 22 cntrmask 00011100
          681 256 rmoveto
          -22 hlineto
          -156 -50 -36 -71 -169 hhcurveto
          -136 hlineto
          -44 -1 7 33 6 hvcurveto
          45 270 rlineto
          91 hlineto
          96 5 -31 -86 96 callsubr
          -86 -14 -17 -31 -96 hhcurveto
          -91 hlineto
          32 callsubr
          557 hlineto
          endchar
        </CharString>
        <CharString name="Eacute">
          0 callgsubr
          84 -21 161 -98 callgsubr
          hintmask 0001100000000000
          13 866 -96 callgsubr
        </CharString>
        <CharString name="Ebreve">
          0 callgsubr
          63 35 137 -98 callgsubr
          hintmask 0001100000000000
          33 916 -74 callgsubr
          endchar
        </CharString>
        <CharString name="Ecaron">
          119 callgsubr
          133 -98 callgsubr
          hintmask 0001100000000000
          28 851 -59 callgsubr
        </CharString>
        <CharString name="Ecircumflex">
          119 callgsubr
          133 -98 callgsubr
          hintmask 0001100000000000
          11 106 callgsubr
        </CharString>
        <CharString name="Ecircumflexacute">
          119 callgsubr
          314 -98 callgsubr
          hintmask 0001100000000000
          11 callsubr
          8 275 rmoveto
          21 6 -13 18 -21 hhcurveto
          -10 -7 -6 -8 -10 -23 callgsubr
        </CharString>
        <CharString name="Ecircumflexdotbelow">
          119 callgsubr
          133 -20 hstemhm
          260 97 95 22 22 22 141 22 -16 22 hintmask 1110001110000000
          -51 callgsubr
          hintmask 0001100010000000
          11 callsubr
          hintmask 0000010000000000
          -237 -886 -102 callsubr
          endchar
        </CharString>
        <CharString name="Ecircumflexgrave">
          119 callgsubr
          133 -98 callgsubr
          hintmask 0001100000000000
          11 750 2 callgsubr
        </CharString>
        <CharString name="Ecircumflexhookabove">
          119 callgsubr
          344 -98 callgsubr
          hintmask 0001100000000000
          11 750 -57 callsubr
        </CharString>
        <CharString name="Ecircumflextilde">
          119 callgsubr
          173 42 7 42 hstemhm
          452 22 22 22 141 22 -16 22 hintmask 1110001110000000
          -51 callgsubr
          hintmask 0000000010000000
          hintmask 0001110000000000
          11 callsubr
          66 250 rmoveto
          -12 14 rlineto
          -29 -34 -24 -20 -32 hhcurveto
          -15 -13 3 21 -28 -63 callgsubr
        </CharString>
        <CharString name="Edblgrave">
          0 callgsubr
          84 -21 185 -98 callgsubr
          hintmask 0001100000000000
          -21 754 -75 callgsubr
        </CharString>
        <CharString name="Edieresis">
          0 callgsubr
          53 87 hstemhm
          325 87 40 22 22 22 -5 87 59 22 -16 22 hintmask 1110011010000000
          -51 callgsubr
          hintmask 0000000010000000
          hintmask 0001100100000000
          -186 777 -80 callgsubr
        </CharString>
        <CharString name="Edotaccent">
          0 callgsubr
          74 97 hstemhm
          419 97 -64 -100 callgsubr
          hintmask 0001100000000000
          -82 803 -41 callgsubr
        </CharString>
        <CharString name="Edotbelow">
          0 callgsubr
          hstemhm
          260 97 95 -11 callgsubr
          -241 -152 -102 callsubr
          endchar
        </CharString>
        <CharString name="Egrave">
          0 callgsubr
          84 -21 161 -98 callgsubr
          hintmask 0001100000000000
          -70 762 -76 callgsubr
        </CharString>
        <CharString name="Ehookabove">
          0 callgsubr
          95 -21 211 -98 callgsubr
          hintmask 0001110000000000
          -20 900 -106 callsubr
        </CharString>
        <CharString name="Emacron">
          0 callgsubr
          73 29 hstemhm
          452 -11 callgsubr
          37 754 9 callgsubr
        </CharString>
        <CharString name="Eng">
          91 -21 84 -63 29 541 84 0 29 -1 22 hstemhm
          145 92 -88 81 0 92 129 81 131 92 hintmask 0000100000000000
          755 342 rmoveto
          189 32 -90 173 -176 hhcurveto
          -77 -73 -37 -58 -52 hvcurveto
          hintmask 0001010000000000
          12 74 rlineto
          -1 -13 -14 -1 -13 hhcurveto
          -30 -87 -57 callgsubr
          22 hlineto
          75 -69 callsubr
          hintmask 0100001000000000
          -88 -531 rlineto
          -37 -6 -5 -10 -75 hhcurveto
          -22 hlineto
          -53 callgsubr
          24 86 0 30 hhcurveto
          30 87 47 callgsubr
          hintmask 0110100111000000
          -73 callsubr
          -22 hlineto
          -75 -34 callsubr
          82 494 rlineto
          67 48 77 45 81 hhcurveto
          145 28 -173 -167 -28 hvcurveto
          -22 -135 -27 -157 -82 -40 1 4 1 3 1 4 rrcurveto
          hintmask 1000000011000000
          23 3 -14 19 -24 hhcurveto
          -23 -23 -19 -23 -3 hvcurveto
          -23 -4 15 -19 23 hhcurveto
          154 86 185 178 30 hvcurveto
          endchar
        </CharString>
        <CharString name="Eogonek">
          23 -202 44 158 29 310 29 284 29 179 callgsubr
          hintmask 01101010
          681 256 rmoveto
          -22 hlineto
          -156 -50 -36 -71 -169 hhcurveto
          -136 hlineto
          -44 -1 7 33 6 hvcurveto
          45 270 rlineto
          91 hlineto
          96 5 -31 -86 96 callsubr
          -86 -14 -17 -31 -96 hhcurveto
          -91 hlineto
          hintmask 11010111
          -2 callgsubr
          endchar
        </CharString>
        <CharString name="Eogonekacute">
          23 -202 44 158 29 310 29 284 29 84 -21 161 -20 179 callgsubr
          hintmask 0110001010000000
          681 256 rmoveto
          -22 hlineto
          -156 -50 -36 -71 -169 hhcurveto
          -136 hlineto
          -44 -1 7 33 6 hvcurveto
          45 270 rlineto
          91 hlineto
          96 5 -31 -86 96 callsubr
          -86 -14 -17 -31 -96 hhcurveto
          -91 hlineto
          hintmask 1101000111000000
          -2 callgsubr
          hintmask 0000110000000000
          13 866 -96 callgsubr
        </CharString>
        <CharString name="Epsilon">
          0 callgsubr
          hstemhm
          452 22 22 22 141 22 -16 22 hintmask 11111100
          681 256 rmoveto
          -22 hlineto
          -156 -50 -36 -71 -169 hhcurveto
          -136 hlineto
          -44 -1 7 33 6 hvcurveto
          45 270 rlineto
          91 hlineto
          96 5 -31 -86 96 callsubr
          -86 -14 -17 -31 -96 hhcurveto
          -91 hlineto
          41 244 -42 callsubr
          133 hlineto
          hintmask 10100010
          147 22 -50 -144 -9 hvcurveto
          22 hlineto
          12 223 rlineto
          -544 -83 callsubr
          557 hlineto
          hintmask 00000100
          endchar
        </CharString>
        <CharString name="Ereversed">
          0 callgsubr
          hstem
          84 22 38 22 113 22 22 22 vstem
          638 87 callgsubr
          -544 hlineto
          -64 -223 rlineto
          22 hlineto
          144 39 40 50 147 hhcurveto
          133 hlineto
          44 1 -7 -33 -6 hvcurveto
          -41 -244 rlineto
          -91 hlineto
          -96 -5 31 86 14 hvcurveto
          -22 hlineto
          -44 -263 rlineto
          22 hlineto
          86 14 17 31 96 hhcurveto
          91 hlineto
          -45 -270 rlineto
          -33 -6 -3 -7 -44 hhcurveto
          -136 hlineto
          -169 -12 71 156 2 hvcurveto
          -22 hlineto
          -3 -256 rlineto
          endchar
        </CharString>
        <CharString name="Eta">
          71 callsubr
          hstem
          46 callgsubr
          211 81 7 81 vstem
          -95 callsubr
          endchar
        </CharString>
        <CharString name="Eth">
          -25 callgsubr
        </CharString>
        <CharString name="Etilde">
          0 callgsubr
          53 42 7 42 -99 callsubr
          hintmask 0001110000000000
          32 811 -104 callgsubr
        </CharString>
        <CharString name="Euro">
          -30 -21 28 267 28 80 28 266 28 hstem
          546 92 -82 92 -82 92 cntrmask 00001110
          556 -13 rmoveto
          26 158 rlineto
          5 1 -3 3 -4 hhcurveto
          -10 hlineto
          -5 -4 -3 -4 -1 hvcurveto
          -74 -20 -62 -65 -72 hhcurveto
          -63 -47 41 54 -24 hvcurveto
          -23 52 -3 59 6 61 rrcurveto
          262 hlineto
          3 4 2 3 1 hvcurveto
          6 15 rlineto
          4 2 -3 4 -5 hhcurveto
          -267 hlineto
          6 40 7 40 rlineto
          294 hlineto
          4 3 2 3 2 hvcurveto
          6 15 rlineto
          4 2 -4 4 -5 hhcurveto
          -296 hlineto
          15 60 22 59 40 52 rrcurveto
          55 43 61 40 63 hhcurveto
          71 41 -64 -75 -4 hvcurveto
          -4 -1 65 callsubr
          10 hlineto
          5 4 4 4 1 hvcurveto
          26 158 rlineto
          5 1 -3 3 -5 hhcurveto
          -3 hlineto
          -2 -3 -1 -2 -1 hvcurveto
          -45 -45 rlineto
          30 -25 -36 18 -45 hhcurveto
          -80 -78 -43 -64 -60 hvcurveto
          -51 -54 -36 -65 -21 -68 rrcurveto
          -49 134 callsubr
          49 hlineto
          -3 -14 -3 -13 -2 -13 -2 -14 -2 -13 -1 -13 rrcurveto
          -46 134 callsubr
          52 hlineto
          -1 -68 14 -65 33 -55 rrcurveto
          -63 38 65 -44 79 hhcurveto
          45 42 19 29 35 hvcurveto
          30 -45 rlineto
          -2 1 2 -1 2 hhcurveto
          3 hlineto
          5 4 4 4 1 hvcurveto
          endchar
        </CharString>
        <CharString name="F">
          -4 0 29 297 29 297 29 hstem
          444 22 0 22 0 22 cntrmask 11111100
          673 458 rmoveto
          12 223 rlineto
          -530 51 callsubr
          -30 hlineto
          -87 0 12 36 6 hvcurveto
          41 249 rlineto
          88 hlineto
          94 5 -33 -84 96 callsubr
          -84 -14 -16 -33 -94 hhcurveto
          -88 hlineto
          43 257 -42 callsubr
          125 hlineto
          144 20 -53 -141 -10 hvcurveto
          endchar
        </CharString>
        <CharString name="G">
          75 callsubr
          hstem
          73 callgsubr
          vstem
          -95 callgsubr
          endchar
        </CharString>
        <CharString name="Gacute">
          75 callsubr
          61 -21 161 -20 hstemhm
          73 callgsubr
          hintmask 11100111
          -95 callgsubr
          hintmask 00011000
          -97 624 -96 callgsubr
        </CharString>
        <CharString name="Gamma">
          -31 0 29 623 29 hstemhm
          149 81 0 81 hintmask 11100000
          646 458 rmoveto
          12 223 rlineto
          -503 51 callsubr
          hintmask 11010000
          125 callgsubr
          89 535 -42 callsubr
          107 hlineto
          138 17 -54 -140 -10 hvcurveto
          endchar
        </CharString>
        <CharString name="Gbreve">
          75 callsubr
          40 35 137 -20 hstemhm
          73 callgsubr
          hintmask 11100111
          -95 callgsubr
          hintmask 00011000
          -77 674 -74 callgsubr
          endchar
        </CharString>
        <CharString name="Gcaron">
          75 callsubr
          51 -21 133 -20 hstemhm
          73 callgsubr
          hintmask 11100111
          -95 callgsubr
          hintmask 00011000
          -82 609 -59 callgsubr
        </CharString>
        <CharString name="Gcedilla">
          125 140 callgsubr
          91 callgsubr
          hstem
          73 callgsubr
          vstem
          -95 callgsubr
          -358 -381 -101 callgsubr
        </CharString>
        <CharString name="Gcircumflex">
          75 callsubr
          51 -21 133 -20 hstemhm
          73 callgsubr
          hintmask 11100111
          -95 callgsubr
          hintmask 00011000
          -99 508 -44 callgsubr
        </CharString>
        <CharString name="Gcommaaccent">
          125 140 callgsubr
          91 callgsubr
          hstemhm
          73 callgsubr
          hintmask 00111111
          -95 callgsubr
          hintmask 11000000
          -358 -381 -101 callgsubr
        </CharString>
        <CharString name="Gdotaccent">
          75 callsubr
          51 97 hstemhm
          111 93 266 97 -56 81 92 81 hintmask 11101011
          -95 callgsubr
          hintmask 00010100
          -192 561 -41 callgsubr
        </CharString>
        <CharString name="H">
          71 callsubr
          hstem
          46 callgsubr
          211 81 7 81 vstem
          -95 callsubr
          endchar
        </CharString>
        <CharString name="H_uni0303">
          71 callsubr
          51 42 7 42 74 callgsubr
          211 81 7 81 hintmask 1110011110000000
          -95 callsubr
          hintmask 0001100000000000
          -28 811 -104 callgsubr
        </CharString>
        <CharString name="Hbar">
          91 0 29 312 29 129 28 127 29 hstemhm
          149 81 -11 81 -76 81 -68 81 211 81 -11 81 -76 81 -68 81 hintmask 1000000010000000
          692 110 callsubr
          hintmask 0010000001000000
          70 423 rlineto
          95 hlineto
          5 28 rlineto
          hintmask 0010000000100000
          -95 hlineto
          hintmask 0001000000010000
          13 80 rlineto
          37 6 5 10 72 hhcurveto
          20 hlineto
          5 29 rlineto
          -80 callsubr
          72 1 -10 -37 -6 hvcurveto
          hintmask 0010001000100000
          -13 -80 rlineto
          -299 hlineto
          hintmask 0001000100000000
          13 80 rlineto
          37 6 5 10 72 hhcurveto
          20 hlineto
          5 29 rlineto
          -80 callsubr
          72 1 -10 -37 -6 hvcurveto
          hintmask 0010001000000000
          -13 -80 rlineto
          -95 hlineto
          -5 -28 rlineto
          hintmask 0010010000000000
          95 hlineto
          hintmask 1100100010000000
          -70 -423 rlineto
          -37 -6 -5 -10 -72 hhcurveto
          -20 hlineto
          -60 callgsubr
          -73 callsubr
          -20 hlineto
          -72 -1 10 37 6 hvcurveto
          44 265 rlineto
          299 hlineto
          -44 -265 rlineto
          -37 -6 -5 -10 -72 hhcurveto
          -20 hlineto
          -60 callgsubr
          -114 370 rmoveto
          -299 hlineto
          hintmask 0110010001000000
          21 129 rlineto
          299 hlineto
          endchar
        </CharString>
        <CharString name="Hbrevebelow">
          91 166 callgsubr
          85 29 312 29 284 29 74 callgsubr
          211 81 7 81 hintmask 0011111110000000
          -95 callsubr
          hintmask 1100010000000000
          -191 -65 -82 callgsubr
          endchar
        </CharString>
        <CharString name="Hcircumflex">
          71 callsubr
          72 -21 133 -20 74 callgsubr
          211 81 7 81 hintmask 1110011110000000
          -95 callsubr
          hintmask 0001100000000000
          -49 106 callgsubr
        </CharString>
        <CharString name="Hdieresis">
          71 callsubr
          51 87 74 callgsubr
          41 87 83 81 -63 87 -17 81 hintmask 1110111101000000
          -95 callsubr
          hintmask 0001001010000000
          -246 777 -80 callgsubr
        </CharString>
        <CharString name="Hdotbelow">
          71 callsubr
          74 callgsubr
          -24 97 138 81 7 81 hintmask 11111011
          -95 callsubr
          hintmask 00000100
          -301 -152 -102 callsubr
          endchar
        </CharString>
        <CharString name="I">
          55 callsubr
          hstem
          46 callgsubr
          vstem
          -100 callsubr
          endchar
        </CharString>
        <CharString name="I_J">
          178 0 -21 21 29 31 103 491 29 74 callgsubr
          121 callgsubr
          hintmask 0101110110000000
          -100 callsubr
          561 -33 callgsubr
          hintmask 1011001010000000
          -16 callsubr
          39 6 5 5 67 hhcurveto
          endchar
        </CharString>
        <CharString name="Iacute">
          55 callsubr
          82 -21 161 -20 74 callgsubr
          hintmask 11001100
          -100 callsubr
          hintmask 00110000
          138 866 -96 callgsubr
        </CharString>
        <CharString name="Ibreve">
          55 callsubr
          61 35 137 -20 74 callgsubr
          hintmask 11001100
          -100 callsubr
          hintmask 00110000
          158 916 -74 callgsubr
          endchar
        </CharString>
        <CharString name="Icaron">
          55 callsubr
          72 -21 133 -20 74 callgsubr
          hintmask 11001100
          -100 callsubr
          hintmask 00110000
          153 851 -59 callgsubr
        </CharString>
        <CharString name="Icircumflex">
          55 callsubr
          72 -21 133 -20 74 callgsubr
          hintmask 11001100
          -100 callsubr
          hintmask 00110000
          136 106 callgsubr
        </CharString>
        <CharString name="Idblgrave">
          55 callsubr
          82 146 callgsubr
          74 callgsubr
          hintmask 11001100
          -100 callsubr
          hintmask 00110000
          104 754 -75 callgsubr
        </CharString>
        <CharString name="Idieresis">
          55 callsubr
          51 87 181 callgsubr
          hintmask 11010100
          -100 callsubr
          hintmask 00101010
          -61 777 -80 callgsubr
        </CharString>
        <CharString name="Idieresisacute">
          55 callsubr
          51 87 81 -21 161 -20 181 callgsubr
          hintmask 1100010100000000
          -100 callsubr
          hintmask 0011101010000000
          -61 777 -93 callgsubr
          34 226 -96 callgsubr
        </CharString>
        <CharString name="Idotaccent">
          55 callsubr
          72 97 74 callgsubr
          -56 97 hintmask 11011000
          -100 callsubr
          hintmask 00100100
          42 803 -41 callgsubr
        </CharString>
        <CharString name="Idotbelow">
          55 callsubr
          hstemhm
          104 97 -52 81 7 81 hintmask 11011000
          -100 callsubr
          hintmask 00100000
          -116 -152 -102 callsubr
          endchar
        </CharString>
        <CharString name="Igrave">
          55 callsubr
          82 -21 161 -20 74 callgsubr
          hintmask 11001100
          -100 callsubr
          hintmask 00110000
          55 762 -76 callgsubr
        </CharString>
        <CharString name="Ihookabove">
          55 callsubr
          93 -21 211 -20 74 callgsubr
          hintmask 11001100
          -100 callsubr
          hintmask 00110000
          104 900 -106 callsubr
        </CharString>
        <CharString name="Imacron">
          55 callsubr
          71 29 74 callgsubr
          hintmask 11011000
          -100 callsubr
          hintmask 00100000
          162 754 9 callgsubr
        </CharString>
        <CharString name="Imacron.alt">
          55 callsubr
          71 29 74 callgsubr
          hintmask 11011000
          -100 callsubr
          hintmask 00100000
          80 754 117 callgsubr
        </CharString>
        <CharString name="Iogonek">
          -290 -202 44 158 94 callgsubr
          hstemhm
          149 81 -28 81 -46 81 hintmask 11001000
          298 -111 rmoveto
          -22 callgsubr
          15 15 18 17 21 15 22 11 96 -2 rcurveline
          -73 callsubr
          -22 hlineto
          hintmask 11110100
          -75 -7 callgsubr
          75 hhcurveto
          22 31 callsubr
          -86 0 -30 hhcurveto
          -30 -87 -57 callgsubr
          22 hlineto
          75 -69 callsubr
          -88 -531 rlineto
          -37 -6 -5 -10 -75 hhcurveto
          -22 hlineto
          -53 callgsubr
          23 81 0 32 hhcurveto
          -44 -32 -40 -44 -8 -43 -43 callsubr
          endchar
        </CharString>
        <CharString name="Iogonekacute">
          -290 -202 44 158 94 callgsubr
          82 -21 161 -20 hstemhm
          149 81 -28 81 -46 81 hintmask 11000010
          298 -111 rmoveto
          -22 callgsubr
          15 15 18 17 21 15 22 11 96 -2 rcurveline
          -73 callsubr
          -22 hlineto
          hintmask 11100101
          -75 -7 callgsubr
          75 hhcurveto
          22 31 callsubr
          -86 0 -30 hhcurveto
          -30 -87 -57 callgsubr
          22 hlineto
          75 -69 callsubr
          -88 -531 rlineto
          -37 -6 -5 -10 -75 hhcurveto
          -22 hlineto
          -53 callgsubr
          23 81 0 32 hhcurveto
          -44 -32 -40 -44 -8 -43 -43 callsubr
          hintmask 00011000
          157 977 -96 callgsubr
        </CharString>
        <CharString name="Iota">
          55 callsubr
          hstem
          46 callgsubr
          vstem
          -100 callsubr
          endchar
        </CharString>
        <CharString name="Itilde">
          55 callsubr
          51 42 7 42 74 callgsubr
          hintmask 11001100
          -100 callsubr
          hintmask 00110000
          157 811 -104 callgsubr
        </CharString>
        <CharString name="J">
          166 callsubr
          491 29 hstemhm
          121 callgsubr
          hintmask 00101100
          560 -33 callgsubr
          hintmask 11110100
          -16 callsubr
          39 6 5 5 67 hhcurveto
          endchar
        </CharString>
        <CharString name="J_uni030C.cap">
          166 callsubr
          324 -21 144 73 -29 29 hstemhm
          121 callgsubr
          hintmask 00001011
          560 -33 callgsubr
          hintmask 11010101
          -16 callsubr
          hintmask 00001000
          39 6 5 5 67 hhcurveto
          109 -47 rmoveto
          78 callgsubr
          hintmask 00110000
          -20 -3 12 -16 callgsubr
        </CharString>
        <CharString name="Jacute">
          166 callsubr
          491 29 82 -21 161 -20 hstemhm
          121 callgsubr
          hintmask 00100011
          560 -33 callgsubr
          hintmask 11100101
          -16 callsubr
          39 6 5 5 67 hhcurveto
          hintmask 00011000
          32 212 -96 callgsubr
        </CharString>
        <CharString name="Jcircumflex">
          166 callsubr
          491 29 126 callsubr
          121 callgsubr
          hintmask 00100011
          560 -33 callgsubr
          hintmask 11100101
          -16 callsubr
          39 6 5 5 67 hhcurveto
          hintmask 00011000
          30 96 -44 callgsubr
        </CharString>
        <CharString name="K">
          118 42 callsubr
          hstem
          46 callgsubr
          143 81 192 81 vstem
          -81 callgsubr
          endchar
        </CharString>
        <CharString name="Kappa">
          118 42 callsubr
          hstem
          46 callgsubr
          143 81 192 81 vstem
          -81 callgsubr
          endchar
        </CharString>
        <CharString name="Kcedilla">
          118 64 callsubr
          hstem
          46 callgsubr
          143 81 192 81 vstem
          -81 callgsubr
          -321 -139 -101 callgsubr
        </CharString>
        <CharString name="Kcommaaccent">
          118 163 callgsubr
          149 81 7 81 143 81 192 81 hintmask 00111111
          -81 callgsubr
          hintmask 11000000
          -321 -139 -101 callgsubr
        </CharString>
        <CharString name="L">
          -31 42 callsubr
          hstem
          237 81 vstem
          -86 callgsubr
          endchar
        </CharString>
        <CharString name="L_uni0303">
          -31 42 callsubr
          51 42 7 42 hstemhm
          237 81 hintmask 11001000
          -86 callgsubr
          hintmask 00110000
          -63 811 -104 callgsubr
        </CharString>
        <CharString name="Lacute">
          -31 42 callsubr
          82 -21 161 -20 hstemhm
          237 81 hintmask 11001000
          -86 callgsubr
          hintmask 00110000
          -82 866 -96 callgsubr
        </CharString>
        <CharString name="Lambda">
          37 0 29 38 29 618 -20 hstemhm
          31 617 -612 617 hintmask 11101000
          648 26 callgsubr
          -54 -19 0 38 -6 hvcurveto
          -97 626 rlineto
          20 -3 -5 1 -11 hhcurveto
          -9 -6 -2 -16 -8 hvcurveto
          -294 -600 -29 -58 -42 -8 -34 -1 rlinecurve
          hintmask 10010000
          -53 callgsubr
          43 2 0 43 hhcurveto
          27 49 0 -2 25 hvcurveto
          5 29 -51 1 -14 28 3 22 rlinecurve
          1 4 1 3 7 15 236 481 rcurveline
          80 -506 rlineto
          3 -14 -1 -4 0 vvcurveto
          -30 -5 -52 0 -25 20 callgsubr
          23 77 0 28 hhcurveto
          29 62 -29 callsubr
          endchar
        </CharString>
        <CharString name="Lcaron">
          -31 0 29 458 -21 144 73 -29 29 hstemhm
          237 81 hintmask 10011000
          -86 callgsubr
          28 607 rmoveto
          78 callgsubr
          hintmask 01100000
          -20 -3 12 -16 callgsubr
        </CharString>
        <CharString name="Lcedilla">
          -31 64 callsubr
          hstem
          237 81 vstem
          -86 callgsubr
          -221 -139 -101 callgsubr
        </CharString>
        <CharString name="Lcommaaccent">
          -31 163 callgsubr
          237 81 hintmask 00111000
          -86 callgsubr
          hintmask 11000000
          -221 -139 -101 callgsubr
        </CharString>
        <CharString name="Ldot">
          -31 0 29 329 97 199 29 hstem
          237 81 183 97 vstem
          -86 callgsubr
          54 406 -102 callsubr
          endchar
        </CharString>
        <CharString name="Ldotbelow">
          -31 144 callgsubr
          233 97 -93 81 hintmask 11010000
          -86 callgsubr
          hintmask 00100000
          -214 -152 -102 callsubr
          endchar
        </CharString>
        <CharString name="Ldotbelowmacron">
          -31 42 callsubr
          71 29 hstemhm
          233 97 -93 81 hintmask 11001000
          -86 callgsubr
          -214 138 callgsubr
          hintmask 00010000
          -67 callsubr
          -5 19 -22 26 hhcurveto
          30 23 24 24 4 hvcurveto
          hintmask 00100000
          161 906 9 callgsubr
        </CharString>
        <CharString name="Lslash">
          -31 0 183 callgsubr
          362 29 hstem
          237 81 vstem
          613 256 rmoveto
          -22 hlineto
          -100 -27 -34 -127 -175 hhcurveto
          -87 hlineto
          -44 -1 7 33 6 hvcurveto
          48 292 191 143 -18 25 -165 -124 33 201 -8 callsubr
          -29 -88 0 -35 hhcurveto
          -30 -89 0 2 -24 hvcurveto
          -45 callsubr
          -45 -271 -97 -73 18 -25 72 54 -36 -216 -87 callsubr
          503 hlineto
          endchar
        </CharString>
        <CharString name="M">
          118 callgsubr
          516 24 -24 74 hintmask 11101000
          -66 callgsubr
          hintmask 10010000
          2 23 80 0 29 hhcurveto
          29 80 46 callsubr
          endchar
        </CharString>
        <CharString name="Mdotbelow">
          118 callgsubr
          196 97 223 24 -24 74 hintmask 11100100
          -66 callgsubr
          hintmask 10001000
          2 23 80 0 29 hhcurveto
          29 80 46 callsubr
          hintmask 00010000
          -379 -152 -102 callsubr
          endchar
        </CharString>
        <CharString name="Mu">
          118 callgsubr
          516 24 -24 74 hintmask 11101000
          -66 callgsubr
          hintmask 10010000
          2 23 80 0 29 hhcurveto
          29 80 46 callsubr
          endchar
        </CharString>
        <CharString name="N">
          56 callsubr
          hstem
          72 callsubr
          vstem
          -94 callgsubr
          endchar
        </CharString>
        <CharString name="Nacute">
          56 callsubr
          82 -21 161 -20 hstemhm
          72 callsubr
          hintmask 11001110
          -94 callgsubr
          hintmask 00110000
          -156 212 -96 callgsubr
        </CharString>
        <CharString name="Ncaron">
          56 callsubr
          126 callsubr
          72 callsubr
          hintmask 11001110
          -94 callgsubr
          hintmask 00110000
          -141 197 -59 callgsubr
        </CharString>
        <CharString name="Ncedilla">
          91 64 callsubr
          hstem
          72 callsubr
          vstem
          -94 callgsubr
          -417 -793 -101 callgsubr
        </CharString>
        <CharString name="Ncommaaccent">
          91 163 callgsubr
          72 callsubr
          hintmask 00111110
          -94 callgsubr
          hintmask 11000000
          -417 -793 -101 callgsubr
        </CharString>
        <CharString name="Ndotaccent">
          56 callsubr
          51 97 hstemhm
          154 24 77 24 170 97 123 24 hintmask 11011010
          -94 callgsubr
          hintmask 00100100
          -255 128 -41 callgsubr
        </CharString>
        <CharString name="Ndotbelow">
          91 144 callgsubr
          154 24 77 24 15 97 278 24 hintmask 11110100
          -94 callgsubr
          hintmask 00001000
          -410 -806 -102 callsubr
          endchar
        </CharString>
        <CharString name="Ntilde">
          56 callsubr
          51 42 7 42 hstemhm
          72 callsubr
          hintmask 11001110
          -94 callgsubr
          hintmask 00110000
          -137 157 -104 callgsubr
        </CharString>
        <CharString name="Nu">
          56 callsubr
          hstem
          72 callsubr
          vstem
          -94 callgsubr
          endchar
        </CharString>
        <CharString name="O">
          12 callgsubr
          hstem
          -102 callgsubr
          endchar
        </CharString>
        <CharString name="OE">
          136 callsubr
          833 22 0 22 0 22 cntrmask 00000111
          hintmask 01111111
          15 callsubr
          54 callgsubr
          hintmask 10000111
          135 callsubr
          hintmask 01000111
          23 callsubr
        </CharString>
        <CharString name="OE.dup">
          136 callsubr
          560 69 5 22 177 22 22 22 87 22 -15 22 hintmask 0111011111000000
          15 callsubr
          hintmask 1001101000100000
          54 callgsubr
          135 callsubr
          hintmask 0100010001000000
          23 callsubr
        </CharString>
        <CharString name="Oacute">
          12 callgsubr
          61 -21 161 -20 hstemhm
          hintmask 11000000
          -102 callgsubr
          hintmask 00110000
          -14 512 -96 callgsubr
        </CharString>
        <CharString name="Obreve">
          12 callgsubr
          40 35 137 -20 hstemhm
          hintmask 11000000
          -102 callgsubr
          hintmask 00110000
          6 562 -74 callgsubr
          endchar
        </CharString>
        <CharString name="Ocaron">
          12 callgsubr
          51 -21 133 -20 hstemhm
          hintmask 11000000
          -102 callgsubr
          hintmask 00110000
          1 497 -59 callgsubr
        </CharString>
        <CharString name="Ocircumflex">
          12 callgsubr
          51 -21 133 -20 hstemhm
          hintmask 11000000
          -102 callgsubr
          hintmask 00110000
          108 callgsubr
          endchar
        </CharString>
        <CharString name="Ocircumflexacute">
          12 callgsubr
          51 -21 314 -20 hstemhm
          hintmask 11000000
          -102 callgsubr
          hintmask 00110000
          108 callgsubr
          8 275 rmoveto
          21 6 -13 18 -21 hhcurveto
          -10 -7 -6 -8 -10 -23 callgsubr
        </CharString>
        <CharString name="Ocircumflexdotbelow">
          12 callgsubr
          51 -21 133 -20 hstemhm
          308 97 hintmask 11110000
          -102 callgsubr
          108 callgsubr
          hintmask 00001000
          -237 -886 -102 callsubr
          endchar
        </CharString>
        <CharString name="Ocircumflexgrave">
          12 callgsubr
          51 -21 133 -20 hstemhm
          hintmask 11000000
          -102 callgsubr
          hintmask 00110000
          -16 396 2 callgsubr
        </CharString>
        <CharString name="Ocircumflexhookabove">
          12 callgsubr
          51 -21 344 -20 hstemhm
          hintmask 11000000
          -102 callgsubr
          hintmask 00110000
          -16 396 -57 callsubr
        </CharString>
        <CharString name="Ocircumflextilde">
          12 callgsubr
          51 -21 173 42 7 42 hstemhm
          hintmask 11000000
          -102 callgsubr
          hintmask 00111000
          108 callgsubr
          66 250 rmoveto
          -12 14 rlineto
          -29 -34 -24 -20 -32 hhcurveto
          -15 -13 3 21 -28 -63 callgsubr
        </CharString>
        <CharString name="Odblgrave">
          12 callgsubr
          61 146 callgsubr
          hstemhm
          hintmask 11000000
          -102 callgsubr
          hintmask 00110000
          -48 400 -75 callgsubr
        </CharString>
        <CharString name="Odieresis">
          12 callgsubr
          30 87 hstemhm
          373 87 101 87 hintmask 11000000
          -102 callgsubr
          hintmask 00111000
          -213 423 -80 callgsubr
        </CharString>
        <CharString name="Odotbelow">
          12 callgsubr
          hstemhm
          308 97 hintmask 11000000
          -102 callgsubr
          hintmask 00100000
          -268 -506 -102 callsubr
          endchar
        </CharString>
        <CharString name="Ograve">
          12 callgsubr
          61 -21 161 -20 hstemhm
          hintmask 11000000
          -102 callgsubr
          hintmask 00110000
          -97 408 -76 callgsubr
        </CharString>
        <CharString name="Ohookabove">
          12 callgsubr
          72 175 callgsubr
          hintmask 11000000
          -102 callgsubr
          hintmask 00110000
          -47 546 -106 callsubr
        </CharString>
        <CharString name="Ohorn">
          71 callgsubr
          hstemhm
          669 93 -90 93 hintmask 00101000
          -19 callgsubr
          hintmask 11010000
          -84 callsubr
          hintmask 01001000
          36 callsubr
          endchar
        </CharString>
        <CharString name="Ohornacute">
          71 callgsubr
          125 -20 hstemhm
          669 93 -90 93 hintmask 00100100
          -19 callgsubr
          hintmask 11001000
          -84 callsubr
          hintmask 01000100
          36 callsubr
          hintmask 00010000
          -40 511 -96 callgsubr
        </CharString>
        <CharString name="Ohorndotbelow">
          71 callgsubr
          hstemhm
          308 97 264 93 -90 93 hintmask 00100100
          -19 callgsubr
          hintmask 11011000
          -84 callsubr
          hintmask 01000100
          36 callsubr
          hintmask 00010000
          -267 -507 -102 callsubr
          endchar
        </CharString>
        <CharString name="Ohorngrave">
          71 callgsubr
          125 -20 hstemhm
          669 93 -90 93 hintmask 00100100
          -19 callgsubr
          hintmask 11001000
          -84 callsubr
          hintmask 01000100
          36 callsubr
          hintmask 00010000
          -96 407 -76 callgsubr
        </CharString>
        <CharString name="Ohornhookabove">
          71 callgsubr
          186 -20 hstemhm
          669 93 -90 93 hintmask 00100100
          -19 callgsubr
          hintmask 11001000
          -84 callsubr
          hintmask 01000100
          36 callsubr
          hintmask 00010000
          -46 545 -106 callsubr
        </CharString>
        <CharString name="Ohorntilde">
          71 callgsubr
          -46 42 7 42 hstemhm
          669 93 -90 93 hintmask 00100010
          -19 callgsubr
          hintmask 11000100
          -84 callsubr
          hintmask 01000010
          36 callsubr
          hintmask 00011000
          6 456 -104 callgsubr
        </CharString>
        <CharString name="Ohungarumlaut">
          12 callgsubr
          61 146 callgsubr
          hstemhm
          hintmask 11000000
          -102 callgsubr
          hintmask 00110000
          -141 542 rmoveto
          -25 callsubr
          163 hmoveto
          -25 callsubr
          endchar
        </CharString>
        <CharString name="Omacron">
          12 callgsubr
          50 29 hstemhm
          hintmask 11000000
          -102 callgsubr
          hintmask 00100000
          10 400 9 callgsubr
        </CharString>
        <CharString name="Omega">
          -30 callsubr
        </CharString>
        <CharString name="Omicron">
          12 callgsubr
          hstem
          -102 callgsubr
          endchar
        </CharString>
        <CharString name="Oogonek">
          119 -41 22 -2 23 680 22 -15 callsubr
          endchar
        </CharString>
        <CharString name="Oogonekacute">
          119 -41 22 -2 23 680 22 61 -21 161 -20 -15 callsubr
          hintmask 00011000
          -14 512 -96 callgsubr
        </CharString>
        <CharString name="Orogate">
          119 764 339 rmoveto
          33 203 -120 156 -169 6 29 174 rcurveline
          -20 hlineto
          -29 -174 -174 -6 -170 -158 -33 -201 rlinecurve
          -34 -200 120 -155 171 -5 -29 -173 rcurveline
          20 hlineto
          29 173 175 7 168 156 33 197 rlinecurve
          -91 15 rmoveto
          -260 -43 -152 -92 -97 hhcurveto
          -102 -116 96 256 43 hvcurveto
          245 41 153 83 94 hhcurveto
          99 120 -86 -242 -40 hvcurveto
          endchar
        </CharString>
        <CharString name="Oslash">
          118 callsubr
          hstem
          111 81 491 81 vstem
          -58 callsubr
          endchar
        </CharString>
        <CharString name="Oslash.dup">
          118 callsubr
          hstem
          111 81 491 81 vstem
          -58 callsubr
          endchar
        </CharString>
        <CharString name="Oslashacute">
          118 callsubr
          47 -21 161 -20 hstemhm
          111 81 491 81 hintmask 11110011
          -58 callsubr
          hintmask 00001100
          -24 526 -96 callgsubr
        </CharString>
        <CharString name="Otilde">
          12 callgsubr
          30 42 7 42 hstemhm
          hintmask 11000000
          -102 callgsubr
          hintmask 00110000
          5 457 -104 callgsubr
        </CharString>
        <CharString name="P">
          -12 callsubr
        </CharString>
        <CharString name="Phi">
          64 0 29 102 23 373 23 104 29 hstemhm
          111 91 124 76 -67 76 -72 76 -14 76 -72 76 -67 76 128 91 hintmask 0000000001000000
          709 341 rmoveto
          18 107 -99 90 -147 13 rrcurveto
          hintmask 0001000000100000
          9 55 -8 callsubr
          -27 -97 0 -33 hhcurveto
          -33 -97 0 2 -27 122 callgsubr
          30 hlineto
          87 0 -12 -36 -6 hvcurveto
          hintmask 0010100001000000
          -9 -56 -158 -14 -119 -95 -17 -99 rlinecurve
          hintmask 0000001000000000
          -17 -103 92 -92 149 -14 rrcurveto
          hintmask 1000010000000000
          60 callgsubr
          hintmask 0000101000010000
          9 55 154 13 127 93 17 103 rlinecurve
          -370 -187 rmoveto
          -107 14 -48 64 18 109 rrcurveto
          hintmask 0000000010000000
          18 110 69 64 112 14 rrcurveto
          hintmask 0100000100000000
          217 -187 rmoveto
          -17 -104 -63 -69 -123 -16 rrcurveto
          hintmask 0000000010010000
          62 377 115 -15 44 -67 -18 -106 rlinecurve
          endchar
        </CharString>
        <CharString name="Pi">
          91 0 29 623 29 hstem
          149 81 299 81 vstem
          692 87 callgsubr
          -651 82 callgsubr
          82 0 29 hhcurveto
          30 82 0 -2 24 1 callgsubr
          96 576 rlineto
          299 hlineto
          -96 -576 rlineto
          -37 -6 -5 -10 -72 hhcurveto
          -20 hlineto
          -60 callgsubr
          endchar
        </CharString>
        <CharString name="Psi">
          119 0 29 102 24 375 25 99 29 hstemhm
          353 76 -67 76 -72 76 -1 76 hintmask 01100010
          798 545 rmoveto
          10 2 -8 0 -16 hhcurveto
          -33 hlineto
          -47 -45 -17 -137 -24 hvcurveto
          -19 -107 -49 -112 -117 -27 rrcurveto
          hintmask 00010001
          75 451 -8 callsubr
          -27 -97 0 -33 hhcurveto
          -33 -97 0 2 -27 122 callgsubr
          30 hlineto
          87 0 -12 -36 -6 hvcurveto
          hintmask 00100010
          -75 -450 -130 33 24 162 10 63 rlinecurve
          100 16 -23 41 -59 hhcurveto
          -32 hlineto
          -16 -8 0 -10 -2 hvcurveto
          -1 -8 5 -1 4 -1 45 -7 6 -42 -14 -89 rrcurveto
          hintmask 00000100
          -23 -143 56 -102 138 -19 rrcurveto
          hintmask 10001000
          60 callgsubr
          hintmask 00000100
          9 56 199 24 51 158 18 105 rlinecurve
          8 46 20 62 50 7 6 1 7 1 1 8 rrcurveto
          endchar
        </CharString>
        <CharString name="Q">
          119 -194 93 80 22 -11 22 115 20 535 22 hstemhm
          111 91 112 20 69 91 -87 91 -24 20 0 91 88 91 hintmask 1000000000110000
          710 -10 rmoveto
          10 2 2 9 -10 hhcurveto
          -8 -2 -7 -7 -2 hvcurveto
          -72 -19 -53 -24 -35 hhcurveto
          -51 -17 37 70 -12 hvcurveto
          116 47 116 125 27 161 rrcurveto
          hintmask 0100110010000000
          207 34 -126 158 -174 hhcurveto
          -178 -175 -160 -205 -34 hvcurveto
          -201 -34 121 -159 179 hhcurveto
          hintmask 1010000001000000
          33 35 6 9 29 hvcurveto
          -102 -1 -1 -86 90 hhcurveto
          117 30 175 9 1 hvcurveto
          -37 350 rmoveto
          hintmask 0011011010000000
          -24 -143 -61 -103 -90 -56 rrcurveto
          50 -8 -18 59 -65 hhcurveto
          -50 -37 -43 -41 -6 hvcurveto
          -5 -27 11 -21 1 -3 -70 26 -85 86 36 216 rrcurveto
          hintmask 0100101000110000
          249 41 151 93 100 hhcurveto
          105 115 -96 -246 -41 hvcurveto
          -199 -316 rmoveto
          -16 -33 -33 -7 -27 hhcurveto
          -43 -8 39 24 4 hvcurveto
          hintmask 0001000100000000
          29 5 26 34 38 hhcurveto
          hintmask 0000000001000000
          57 12 -47 -56 2 hvcurveto
          endchar
        </CharString>
        <CharString name="R">
          50 callsubr
          hstem
          85 callsubr
          vstem
          -103 callsubr
          endchar
        </CharString>
        <CharString name="Racute">
          50 callsubr
          82 -21 161 -20 hstemhm
          85 callsubr
          hintmask 1111001110000000
          -103 callsubr
          hintmask 0000110000000000
          50 363 -96 callgsubr
        </CharString>
        <CharString name="Rcaron">
          50 callsubr
          126 callsubr
          85 callsubr
          hintmask 1111001110000000
          -103 callsubr
          hintmask 0000110000000000
          65 348 -59 callgsubr
        </CharString>
        <CharString name="Rcedilla">
          78 140 callgsubr
          40 callsubr
          hstem
          85 callsubr
          vstem
          -103 callsubr
          -211 -642 -101 callgsubr
        </CharString>
        <CharString name="Rcommaaccent">
          78 140 callgsubr
          40 callsubr
          hstemhm
          85 callsubr
          hintmask 0011111110000000
          -103 callsubr
          hintmask 1100000000000000
          -211 -642 -101 callgsubr
        </CharString>
        <CharString name="Rdblgrave">
          50 callsubr
          82 146 callgsubr
          hstemhm
          85 callsubr
          hintmask 1111001110000000
          -103 callsubr
          hintmask 0000110000000000
          -12 251 -75 callgsubr
        </CharString>
        <CharString name="Rdotaccent">
          50 callsubr
          72 97 hstemhm
          112 callgsubr
          -38 97 46 93 hintmask 1111011010000000
          -103 callsubr
          hintmask 0000100100000000
          -46 300 -41 callgsubr
        </CharString>
        <CharString name="Rdotbelow">
          50 callsubr
          hstemhm
          150 79 58 97 21 79 105 93 hintmask 11111011
          -103 callsubr
          hintmask 00000100
          -205 -655 -102 callsubr
          endchar
        </CharString>
        <CharString name="Rdotbelowmacron">
          50 callsubr
          71 29 hstemhm
          150 79 58 97 21 79 105 93 hintmask 1111011110000000
          -103 callsubr
          -205 -655 -102 callsubr
          hintmask 0000100000000000
          279 906 9 callgsubr
        </CharString>
        <CharString name="Rho">
          -12 callsubr
        </CharString>
        <CharString name="S">
          125 callsubr
          hstem
          517 58 vstem
          520 184 rmoveto
          -99 callgsubr
          rlineto
          -40 29 57 -34 86 hhcurveto
          112 97 95 110 19 hvcurveto
          endchar
        </CharString>
        <CharString name="S_S">
          445 -21 29 669 27 hstem
          517 58 486 58 vstem
          520 184 rmoveto
          -99 callgsubr
          rlineto
          -40 29 57 -34 86 hhcurveto
          112 97 95 110 19 hvcurveto
          544 hmoveto
          -99 callgsubr
          rlineto
          -40 29 57 -34 86 hhcurveto
          112 97 95 110 19 hvcurveto
          endchar
        </CharString>
        <CharString name="Sacute">
          125 callsubr
          61 -21 161 -20 hstemhm
          517 58 hintmask 11001000
          520 184 rmoveto
          -99 callgsubr
          rlineto
          -40 29 57 -34 86 hhcurveto
          112 97 95 110 19 hvcurveto
          hintmask 00110000
          30 682 -96 callgsubr
        </CharString>
        <CharString name="Scaron">
          125 callsubr
          51 -21 133 -20 hstemhm
          517 58 hintmask 11001000
          520 184 rmoveto
          -99 callgsubr
          rlineto
          -40 29 57 -34 86 hhcurveto
          112 97 95 110 19 hvcurveto
          hintmask 00110000
          45 667 -59 callgsubr
        </CharString>
        <CharString name="Scedilla">
          125 callsubr
          hstem
          517 58 vstem
          520 184 rmoveto
          -99 callgsubr
          24 -32 42 -29 61 -10 rlinecurve
          -11 -67 rlineto
          62 callsubr
          rlineto
          2 hlineto
          112 97 95 110 19 hvcurveto
          endchar
        </CharString>
        <CharString name="Scircumflex">
          125 callsubr
          51 -21 133 -20 hstemhm
          517 58 hintmask 11001000
          520 184 rmoveto
          -99 callgsubr
          rlineto
          -40 29 57 -34 86 hhcurveto
          112 97 95 110 19 hvcurveto
          hintmask 00110000
          28 566 -44 callgsubr
        </CharString>
        <CharString name="Sdotbelow">
          125 callsubr
          hstemhm
          199 97 221 58 vstemhm
          520 184 rmoveto
          -99 callgsubr
          rlineto
          -40 29 57 -34 86 hhcurveto
          112 97 95 110 19 hvcurveto
          hintmask 00100000
          -224 -336 -102 callsubr
          endchar
        </CharString>
        <CharString name="Sigma">
          64 0 39 -29 29 286 29 300 29 hstemhm
          hintmask 01110000
          691 233 rmoveto
          -22 hlineto
          -165 -46 -67 -29 -160 hhcurveto
          -277 hlineto
          289 286 10 10 2 2 1 5 rlinecurve
          0 1 4 -5 8 vhcurveto
          -152 300 rlineto
          236 hlineto
          168 45 -36 -158 -7 hvcurveto
          22 hlineto
          11 223 rlineto
          -547 hlineto
          -24 -1 0 -23 -4 hvcurveto
          183 -360 -278 -274 rlineto
          -9 -9 -3 -3 -4 vvcurveto
          hintmask 10000000
          -10 -2 8 0 16 hhcurveto
          547 hlineto
          endchar
        </CharString>
        <CharString name="T">
          127 callsubr
          hstem
          326 81 8 81 vstem
          -86 callsubr
          endchar
        </CharString>
        <CharString name="T_uni0303">
          127 callsubr
          56 42 7 42 hstemhm
          326 81 8 81 hintmask 11001100
          -86 callsubr
          hintmask 00110000
          -74 356 -104 callgsubr
        </CharString>
        <CharString name="T_uni0308">
          127 callsubr
          56 87 hstemhm
          326 81 -61 87 -18 81 38 87 hintmask 01001000
          -56 callgsubr
          hintmask 11010100
          -19 callsubr
          32 103 0 39 hhcurveto
          39 104 0 -2 32 hvcurveto
          -73 callsubr
          -36 hlineto
          -98 2 14 34 6 hvcurveto
          89 532 4 25 3 9 17 4 rlinecurve
          2 8 29 0 19 hhcurveto
          158 3 -36 -158 -12 hvcurveto
          hintmask 00101010
          -292 322 -80 callgsubr
        </CharString>
        <CharString name="Tau">
          127 callsubr
          hstem
          326 81 8 81 vstem
          -86 callsubr
          endchar
        </CharString>
        <CharString name="Tcaron">
          127 callsubr
          77 -21 133 -20 hstemhm
          326 81 8 81 hintmask 11001100
          -86 callsubr
          hintmask 00110000
          -78 396 -59 callgsubr
        </CharString>
        <CharString name="Tcedilla">
          64 -200 22 93 22 63 29 620 29 hstemhm
          326 81 -21 76 -47 81 hintmask 01111010
          -56 callgsubr
          -19 callsubr
          27 79 0 47 hhcurveto
          -15 -87 rlineto
          hintmask 11100100
          37 37 -14 -32 -5 hvcurveto
          -47 -8 -97 0 -77 hhcurveto
          -11 hlineto
          -4 -22 rlineto
          22 hlineto
          107 132 0 69 12 hvcurveto
          47 7 -51 21 -53 hhcurveto
          11 65 rlineto
          47 78 0 -2 27 hvcurveto
          -73 callsubr
          -36 hlineto
          hintmask 00011010
          -98 2 14 34 6 hvcurveto
          89 532 4 25 3 9 17 4 rlinecurve
          2 8 29 0 19 hhcurveto
          158 3 -36 -158 -12 hvcurveto
          endchar
        </CharString>
        <CharString name="Tdotbelow">
          127 callsubr
          hstemhm
          281 97 -52 81 8 81 hintmask 11011000
          -86 callsubr
          hintmask 00100000
          -347 -607 -102 callsubr
          endchar
        </CharString>
        <CharString name="Theta">
          119 0 -21 329 69 327 -20 hstemhm
          111 88 44 22 1 22 0 88 212 22 -22 88 -65 22 43 88 hintmask 1111001001100000
          764 339 rmoveto
          207 34 -126 158 -174 hhcurveto
          -178 -175 -160 -205 -34 hvcurveto
          -203 -34 124 -157 175 hhcurveto
          179 175 159 201 34 hvcurveto
          -88 1 rmoveto
          -250 -42 -153 -90 -100 hhcurveto
          -104 -119 94 246 41 hvcurveto
          248 41 152 96 102 hhcurveto
          107 116 -99 -245 -41 hvcurveto
          -66 -66 rmoveto
          23 137 rlineto
          -22 hlineto
          -6 -34 rlineto
          -323 hlineto
          6 34 rlineto
          hintmask 0100110010000000
          -22 hlineto
          -23 -137 rlineto
          22 hlineto
          5 34 rlineto
          323 hlineto
          -5 -34 rlineto
          hintmask 0000000100000000
          endchar
        </CharString>
        <CharString name="Thorn">
          -31 -1 30 149 29 316 29 102 30 hstem
          617 365 rmoveto
          84 14 -51 103 -146 hhcurveto
          -129 hlineto
          9 53 rlineto
          49 8 11 0 84 hhcurveto
          5 30 -133 -3 -133 3 -5 -30 rlineto
          84 11 0 -49 -8 hvcurveto
          -88 -527 rlineto
          -49 -8 -11 0 -84 hhcurveto
          -5 -30 133 3 133 -3 5 30 rlineto
          -84 -11 0 49 8 hvcurveto
          17 100 rlineto
          139 hlineto
          119 100 89 98 16 hvcurveto
          -91 1 rmoveto
          -82 -14 -66 -77 -91 hhcurveto
          -107 hlineto
          52 316 rlineto
          112 hlineto
          20 45 0 -44 29 hvcurveto
          23 -35 3 -40 -6 -38 rrcurveto
          endchar
        </CharString>
        <CharString name="Tlinebelow">
          64 -165 29 136 29 620 29 hstemhm
          326 81 8 81 hintmask 01111000
          -86 callsubr
          hintmask 10000000
          -223 -620 -22 callsubr
        </CharString>
        <CharString name="U">
          41 callsubr
          92 callgsubr
          hintmask 11100000
          -97 callgsubr
          hintmask 01010000
          -80 callsubr
          hintmask 11100000
          -85 callgsubr
          endchar
        </CharString>
        <CharString name="U_uni032F">
          91 -216 -21 137 35 44 29 646 29 92 callgsubr
          hintmask 00111000
          -97 callgsubr
          hintmask 00010100
          -80 callsubr
          hintmask 00111000
          -85 callgsubr
          hintmask 11000000
          -307 -891 -12 callgsubr
        </CharString>
        <CharString name="Uacute">
          41 callsubr
          82 -21 161 -20 92 callgsubr
          hintmask 11001000
          -97 callgsubr
          hintmask 01000100
          -80 callsubr
          hintmask 11001000
          -85 callgsubr
          hintmask 00110000
          -134 212 -96 callgsubr
        </CharString>
        <CharString name="Ubreve">
          41 callsubr
          61 35 137 -20 92 callgsubr
          hintmask 11001000
          -97 callgsubr
          hintmask 01000100
          -80 callsubr
          hintmask 11001000
          -85 callgsubr
          hintmask 00110000
          -114 262 -74 callgsubr
          endchar
        </CharString>
        <CharString name="Ucaron">
          41 callsubr
          72 -21 133 -20 92 callgsubr
          hintmask 11001000
          -97 callgsubr
          hintmask 01000100
          -80 callsubr
          hintmask 11001000
          -85 callgsubr
          hintmask 00110000
          -119 197 -59 callgsubr
        </CharString>
        <CharString name="Ucircumflex">
          41 callsubr
          72 -21 133 -20 92 callgsubr
          hintmask 11001000
          -97 callgsubr
          hintmask 01000100
          -80 callsubr
          hintmask 11001000
          -85 callgsubr
          hintmask 00110000
          -136 96 -44 callgsubr
        </CharString>
        <CharString name="Udblgrave">
          41 callsubr
          82 146 callgsubr
          92 callgsubr
          hintmask 11001000
          -97 callgsubr
          hintmask 01000100
          -80 callsubr
          hintmask 11001000
          -85 callgsubr
          hintmask 00110000
          -168 100 -75 callgsubr
        </CharString>
        <CharString name="Udieresis">
          41 callsubr
          51 87 92 callgsubr
          63 87 101 87 hintmask 11010000
          -97 callgsubr
          hintmask 01001000
          -80 callsubr
          hintmask 11010000
          -85 callgsubr
          hintmask 00100110
          -29 callgsubr
          endchar
        </CharString>
        <CharString name="Udieresisacute">
          41 callsubr
          51 87 81 -21 161 -20 92 callgsubr
          63 87 101 87 hintmask 1100010000000000
          -97 callgsubr
          hintmask 0100001000000000
          -80 callsubr
          hintmask 1100010000000000
          -85 callgsubr
          hintmask 0011100110000000
          -29 callgsubr
          34 226 -96 callgsubr
        </CharString>
        <CharString name="Udieresiscaron">
          41 callsubr
          51 87 71 -21 133 -20 92 callgsubr
          63 87 101 87 hintmask 1100010000000000
          -97 callgsubr
          hintmask 0100001000000000
          -80 callsubr
          hintmask 1100010000000000
          -85 callgsubr
          hintmask 0011100110000000
          -29 callgsubr
          49 211 -59 callgsubr
        </CharString>
        <CharString name="Udieresisgrave">
          41 callsubr
          51 87 81 -21 161 -20 92 callgsubr
          63 87 101 87 hintmask 1100010000000000
          -97 callgsubr
          hintmask 0100001000000000
          -80 callsubr
          hintmask 1100010000000000
          -85 callgsubr
          hintmask 0011100110000000
          -29 callgsubr
          -49 122 -76 callgsubr
        </CharString>
        <CharString name="Udotbelow">
          41 callsubr
          92 callgsubr
          -2 97 hintmask 11100000
          -97 callgsubr
          hintmask 01010000
          -80 callsubr
          hintmask 11100000
          -85 callgsubr
          hintmask 00001000
          -388 -806 -102 callsubr
          endchar
        </CharString>
        <CharString name="Ugrave">
          41 callsubr
          82 -21 161 -20 92 callgsubr
          hintmask 11001000
          -97 callgsubr
          hintmask 01000100
          -80 callsubr
          hintmask 11001000
          -85 callgsubr
          hintmask 00110000
          -217 108 -76 callgsubr
        </CharString>
        <CharString name="Uhookabove">
          41 callsubr
          93 -21 211 -20 92 callgsubr
          hintmask 11001000
          -97 callgsubr
          hintmask 01000100
          -80 callsubr
          hintmask 11001000
          -85 callgsubr
          hintmask 00110000
          -167 246 -106 callsubr
        </CharString>
        <CharString name="Uhorn">
          59 callsubr
          97 -20 69 callgsubr
          hintmask 0001100001000000
          822 722 rmoveto
          30 5 -15 28 152 callgsubr
          -24 -24 -4 hvcurveto
          -25 -4 12 -24 32 hhcurveto
          7 6 1 2 5 hvcurveto
          -18 -26 -31 -18 -34 -4 8 45 rcurveline
          hintmask 0010000000000000
          -1 -4 -4 -1 -5 hhcurveto
          hintmask 0101000010000000
          -108 86 callgsubr
          25 26 -2 -14 17 hvcurveto
          15 -10 5 -18 -3 -19 -61 -363 rcurveline
          hintmask 1000010100000000
          -10 -59 -28 -56 -43 -42 rrcurveto
          -40 -42 -53 -23 -51 hhcurveto
          -48 -41 23 39 -22 hvcurveto
          -24 41 -2 53 11 64 rrcurveto
          hintmask 0110001000000000
          65 390 2 13 6 13 12 4 rlinecurve
          6 17 37 0 26 hhcurveto
          hintmask 0001000000000000
          -73 callsubr
          hintmask 0010000000000000
          -135 -2 rlineto
          hintmask 0101001000000000
          -135 86 callgsubr
          27 36 0 -6 15 hvcurveto
          10 -4 3 -13 -2 -13 rrcurveto
          hintmask 1000010010000000
          -65 -390 -11 -66 15 -63 38 -47 rlinecurve
          -46 38 57 -27 65 hhcurveto
          58 61 28 45 47 hvcurveto
          50 48 31 63 11 65 65 388 rcurveline
          59 6 55 43 9 57 rrcurveto
          endchar
        </CharString>
        <CharString name="Uhornacute">
          59 callsubr
          82 -21 36 -20 145 -20 -87 callgsubr
          hintmask 0000101000000000
          -182 144 -96 callgsubr
        </CharString>
        <CharString name="Uhorndotbelow">
          59 callsubr
          97 -20 hstemhm
          174 81 -16 81 -26 97 136 81 0 26 68 81 hintmask 0001100000100000
          822 722 rmoveto
          30 5 -15 28 152 callgsubr
          -24 -24 -4 hvcurveto
          -25 -4 12 -24 32 hhcurveto
          7 6 1 2 5 hvcurveto
          -18 -26 -31 -18 -34 -4 8 45 rcurveline
          hintmask 0010000000000000
          -1 -4 -4 -1 -5 hhcurveto
          hintmask 0101000001000000
          -108 86 callgsubr
          25 26 -2 -14 17 hvcurveto
          15 -10 5 -18 -3 -19 -61 -363 rcurveline
          hintmask 1000010010000000
          -10 -59 -28 -56 -43 -42 rrcurveto
          -40 -42 -53 -23 -51 hhcurveto
          -48 -41 23 39 -22 hvcurveto
          -24 41 -2 53 11 64 rrcurveto
          hintmask 0110001000000000
          65 390 2 13 6 13 12 4 rlinecurve
          6 17 37 0 26 hhcurveto
          hintmask 0001000000000000
          -73 callsubr
          hintmask 0010000000000000
          -135 -2 rlineto
          hintmask 0101001000000000
          -135 86 callgsubr
          27 36 0 -6 15 hvcurveto
          10 -4 3 -13 -2 -13 rrcurveto
          hintmask 1000010001000000
          -65 -390 -11 -66 15 -63 38 -47 rlinecurve
          -46 38 57 -27 65 hhcurveto
          58 61 28 45 47 hvcurveto
          50 48 31 63 11 65 65 388 rcurveline
          59 6 55 43 9 57 rrcurveto
          hintmask 0000000100000000
          -431 -874 -102 callsubr
          endchar
        </CharString>
        <CharString name="Uhorngrave">
          59 callsubr
          82 -21 36 -20 145 -20 -87 callgsubr
          hintmask 0000101000000000
          -238 40 -76 callgsubr
        </CharString>
        <CharString name="Uhornhookabove">
          59 callsubr
          93 -21 25 -20 206 -20 -87 callgsubr
          hintmask 0000101000100000
          -188 178 -106 callsubr
        </CharString>
        <CharString name="Uhorntilde">
          59 callsubr
          51 42 4 -20 23 42 -87 callgsubr
          hintmask 0000101000000000
          -136 89 -104 callgsubr
        </CharString>
        <CharString name="Uhungarumlaut">
          41 callsubr
          82 146 callgsubr
          92 callgsubr
          hintmask 11001000
          -97 callgsubr
          hintmask 01000100
          -80 callsubr
          hintmask 11001000
          -85 callgsubr
          hintmask 00110000
          -261 242 rmoveto
          -25 callsubr
          163 hmoveto
          -25 callsubr
          endchar
        </CharString>
        <CharString name="Umacron">
          41 callsubr
          71 29 92 callgsubr
          hintmask 11010000
          -97 callgsubr
          hintmask 01001000
          -80 callsubr
          hintmask 11010000
          -85 callgsubr
          hintmask 00100000
          -110 100 9 callgsubr
        </CharString>
        <CharString name="Uogonek">
          91 -202 44 137 29 646 29 hstemhm
          237 81 -58 81 -50 27 64 81 hintmask 01110010
          -97 callgsubr
          hintmask 00100100
          -80 callsubr
          hintmask 00010000
          -5 callgsubr
          -21 -127 73 -96 104 -22 rlinecurve
          hintmask 11101010
          -35 -30 -29 -36 -6 -35 -43 callsubr
          54 callsubr
          13 17 15 15 7 7 8 7 8 6 rrcurveto
          11 hlineto
          139 102 136 100 17 hvcurveto
          63 378 rlineto
          61 10 77 0 18 hhcurveto
          endchar
        </CharString>
        <CharString name="Upsilon">
          119 0 29 605 70 hstemhm
          299 81 -27 81 -35 81 -46 81 hintmask 01101000
          799 553 rmoveto
          53 9 -19 98 -93 hhcurveto
          -102 -87 -89 -157 -50 hvcurveto
          -1 hlineto
          41 1 1 205 -159 hhcurveto
          -93 -51 -99 -52 -9 hvcurveto
          -11 -2 1 -5 13 hhcurveto
          11 1 4 12 3 hvcurveto
          49 14 48 32 52 hhcurveto
          152 -32 -235 -47 -8 hvcurveto
          hintmask 10010000
          -46 -275 rlineto
          -36 -6 -4 -12 -87 hhcurveto
          -30 hlineto
          -85 callsubr
          hintmask 10100100
          2 29 95 0 35 hhcurveto
          35 96 0 -2 29 162 callsubr
          hintmask 01001000
          46 275 rlineto
          58 9 49 224 148 hhcurveto
          49 40 -29 -53 -3 hvcurveto
          -11 -1 1 -4 11 hhcurveto
          13 1 5 11 2 hvcurveto
          endchar
        </CharString>
        <CharString name="Uring">
          41 callsubr
          31 151 callsubr
          92 callgsubr
          83 30 hintmask 11001010
          -97 callgsubr
          hintmask 01000100
          -80 callsubr
          hintmask 11001000
          -85 callgsubr
          hintmask 00110000
          -215 148 -60 callsubr
        </CharString>
        <CharString name="Utilde">
          41 callsubr
          51 42 7 42 92 callgsubr
          hintmask 11001000
          -97 callgsubr
          hintmask 01000100
          -80 callsubr
          hintmask 11001000
          -85 callgsubr
          hintmask 00110000
          -115 157 -104 callgsubr
        </CharString>
        <CharString name="V">
          91 0 -21 646 29 0 29 hstemhm
          127 697 -692 697 hintmask 00101000
          824 113 callsubr
          -92 -2 rlineto
          -27 -50 0 2 -25 hvcurveto
          -5 -29 51 -1 10 -28 -3 -20 rlinecurve
          -1 -6 0 -2 -9 -14 -269 -493 rcurveline
          -110 520 rlineto
          hintmask 01000000
          -3 11 0 4 0 vvcurveto
          29 5 50 0 25 hhcurveto
          hintmask 00101000
          -49 callsubr
          -24 -76 0 -29 hhcurveto
          -28 -68 0 2 -24 hvcurveto
          hintmask 10110000
          -85 callsubr
          62 16 0 -40 8 hvcurveto
          132 -616 rlineto
          -14 2 1 -5 14 hhcurveto
          14 2 3 17 10 hvcurveto
          320 585 14 25 24 44 78 1 rlinecurve
          endchar
        </CharString>
        <CharString name="W">
          138 callsubr
          hstemhm
          126 971 -966 971 hintmask 01101000
          1097 654 -38 callgsubr
          -43 -2 0 -44 hhcurveto
          -26 -54 -55 callgsubr
          61 -1 13 -32 -4 -20 rlinecurve
          -1 -5 -4 -8 -3 -7 -231 -474 rcurveline
          -78 503 rlineto
          -1 3 0 8 3 vvcurveto
          30 5 53 0 24 99 callgsubr
          -74 0 -29 hhcurveto
          -29 -61 -21 callgsubr
          53 14 -3 -18 8 hvcurveto
          4 -13 2 -31 7 -36 -217 -446 rcurveline
          -77 498 rlineto
          -3 14 1 2 3 vvcurveto
          30 5 51 0 26 49 callgsubr
          -76 0 -28 hhcurveto
          113 callgsubr
          hintmask 10110000
          -85 callsubr
          54 19 0 -38 6 hvcurveto
          95 -618 rlineto
          -15 2 3 -4 9 hhcurveto
          8 6 3 15 7 hvcurveto
          253 519 80 -519 rlineto
          -15 3 4 -3 8 hhcurveto
          9 5 4 15 8 hvcurveto
          286 587 24 48 32 20 50 1 rlinecurve
          endchar
        </CharString>
        <CharString name="Wacute">
          138 callsubr
          82 -21 161 -72 callgsubr
          -316 212 -96 callgsubr
        </CharString>
        <CharString name="Wcircumflex">
          138 callsubr
          72 -21 133 -72 callgsubr
          -318 96 -44 callgsubr
        </CharString>
        <CharString name="Wdieresis">
          138 callsubr
          51 87 hstemhm
          126 971 -966 971 -607 87 101 87 hintmask 01100100
          1097 654 -38 callgsubr
          -43 -2 0 -44 hhcurveto
          -26 -54 -55 callgsubr
          61 -1 13 -32 -4 -20 rlinecurve
          -1 -5 -4 -8 -3 -7 -231 -474 rcurveline
          -78 503 rlineto
          -1 3 0 8 3 vvcurveto
          30 5 53 0 24 99 callgsubr
          -74 0 -29 hhcurveto
          113 callgsubr
          hintmask 00100010
          -85 callsubr
          53 14 -3 -18 8 hvcurveto
          4 -13 2 -31 7 -36 -217 -446 rcurveline
          -77 498 rlineto
          -3 14 1 2 3 vvcurveto
          30 5 51 0 26 49 callgsubr
          -76 0 -28 hhcurveto
          hintmask 00100100
          113 callgsubr
          hintmask 10101000
          -85 callsubr
          54 19 0 -38 6 hvcurveto
          95 -618 rlineto
          -15 2 3 -4 9 hhcurveto
          8 6 3 15 7 hvcurveto
          253 519 80 -519 rlineto
          hintmask 10000001
          -15 3 4 -3 8 hhcurveto
          9 5 4 15 8 hvcurveto
          286 587 rlineto
          hintmask 00101000
          24 48 32 20 50 1 rrcurveto
          hintmask 00010011
          -515 34 callgsubr
        </CharString>
        <CharString name="Wgrave">
          138 callsubr
          82 -21 161 -72 callgsubr
          -399 108 -76 callgsubr
        </CharString>
        <CharString name="X">
          -43 callgsubr
        </CharString>
        <CharString name="Xi">
          10 0 64 97 -20 154 -21 47 64 47 -20 137 -21 86 64 hstem
          68 22 44 22 26 22 4 22 310 22 4 22 28 22 34 22 vstem
          694 528 rmoveto
          17 150 rlineto
          -544 hlineto
          -33 -150 rlineto
          22 hlineto
          4 15 10 49 11 14 rrcurveto
          8 7 59 0 10 hhcurveto
          342 hlineto
          24 46 0 -10 5 hvcurveto
          5 -15 -5 -50 -2 -11 rrcurveto
          -34 -367 rmoveto
          -22 hlineto
          -9 -39 -7 -33 -9 -14 rrcurveto
          -11 -9 -48 0 -25 hhcurveto
          -344 hlineto
          -18 -55 0 10 -5 hvcurveto
          -5 13 3 35 5 39 rrcurveto
          -22 hlineto
          -19 -161 rlineto
          554 hlineto
          -41 274 rmoveto
          26 158 rlineto
          -22 hlineto
          -8 -47 rlineto
          -336 hlineto
          8 47 rlineto
          -22 hlineto
          -26 -158 rlineto
          22 hlineto
          8 47 rlineto
          336 hlineto
          -8 -47 rlineto
          endchar
        </CharString>
        <CharString name="Y">
          56 callsubr
          hstem
          373 79 vstem
          -94 callsubr
          endchar
        </CharString>
        <CharString name="Yacute">
          56 callsubr
          82 -21 161 -20 hstemhm
          373 79 hintmask 11001000
          -94 callsubr
          hintmask 00110000
          -187 212 -96 callgsubr
        </CharString>
        <CharString name="Ycircumflex">
          56 callsubr
          126 callsubr
          373 79 hintmask 11001000
          -94 callsubr
          hintmask 00110000
          -189 96 -44 callgsubr
        </CharString>
        <CharString name="Ydieresis">
          56 callsubr
          51 87 hstemhm
          359 87 -73 79 95 87 hintmask 11001000
          -94 callsubr
          hintmask 00110100
          -386 34 callgsubr
        </CharString>
        <CharString name="Ydotbelow">
          91 144 callgsubr
          294 97 -18 79 hintmask 11010000
          -94 callsubr
          hintmask 00100000
          -441 -806 -102 callsubr
          endchar
        </CharString>
        <CharString name="Ygrave">
          56 callsubr
          82 -21 161 -20 hstemhm
          373 79 hintmask 11001000
          -94 callsubr
          hintmask 00110000
          -270 108 -76 callgsubr
        </CharString>
        <CharString name="Yhookabove">
          56 callsubr
          93 175 callgsubr
          373 79 hintmask 11001000
          -94 callsubr
          hintmask 00110000
          -220 246 -106 callsubr
        </CharString>
        <CharString name="Ytilde">
          56 callsubr
          51 42 7 42 hstemhm
          373 79 hintmask 11001000
          -94 callsubr
          hintmask 00110000
          -168 157 -104 callgsubr
        </CharString>
        <CharString name="Z">
          127 callgsubr
          hstem
          -68 callgsubr
          endchar
        </CharString>
        <CharString name="Zacute">
          127 callgsubr
          82 -21 161 -20 hstemhm
          hintmask 11000000
          -68 callgsubr
          hintmask 00110000
          46 866 -96 callgsubr
        </CharString>
        <CharString name="Zcaron">
          127 callgsubr
          126 callsubr
          hintmask 11000000
          -68 callgsubr
          hintmask 00110000
          61 851 -59 callgsubr
        </CharString>
        <CharString name="Zdotaccent">
          127 callgsubr
          72 97 hstemhm
          385 97 hintmask 11000000
          -68 callgsubr
          hintmask 00110000
          -50 803 -41 callgsubr
        </CharString>
        <CharString name="Zdotbelow">
          127 callgsubr
          hstemhm
          226 97 hintmask 11000000
          -68 callgsubr
          hintmask 00100000
          -209 -152 -102 callsubr
          endchar
        </CharString>
        <CharString name="Zeta">
          127 callgsubr
          hstem
          -68 callgsubr
          endchar
        </CharString>
        <CharString name="a">
          -5 29 -13 -21 250 19 25 82 80 -20 callgsubr
          endchar
        </CharString>
        <CharString name="aacute">
          -36 callgsubr
          106 -21 186 -20 callgsubr
          hintmask 00000110
          125 424 -93 callsubr
        </CharString>
        <CharString name="abreve">
          -36 callgsubr
          92 35 137 -35 callsubr
          endchar
        </CharString>
        <CharString name="abreveacute">
          -36 callgsubr
          92 35 318 -35 callsubr
          -21 142 156 callsubr
          -165 148 callsubr
          4 11 2 5 rlinecurve
          endchar
        </CharString>
        <CharString name="abrevedotbelow">
          -36 callgsubr
          92 35 137 -20 hstemhm
          172 97 -105 callgsubr
          hintmask 10100110
          -47 -4 25 -36 43 hhcurveto
          21 61 14 80 13 hvcurveto
          -154 52 rmoveto
          -98 -17 -78 -33 -43 hhcurveto
          -49 -35 36 48 8 hvcurveto
          22 132 172 12 36 2 rrcurveto
          3 callsubr
          hintmask 00000001
          -236 -842 -102 callsubr
          endchar
        </CharString>
        <CharString name="abrevegrave">
          -36 callgsubr
          92 35 137 -35 callsubr
          -38 38 5 callgsubr
          -16 130 callgsubr
        </CharString>
        <CharString name="abrevehookabove">
          -36 callgsubr
          92 35 348 -35 callsubr
          -26 145 rmoveto
          4 20 -8 19 -15 11 rrcurveto
          12 -19 -24 -40 callgsubr
          -3 11 -11 15 hhcurveto
          14 14 11 16 3 hvcurveto
          17 3 -11 11 -14 hhcurveto
          -1 hlineto
          14 15 25 9 26 hhcurveto
          19 14 -4 -9 7 hvcurveto
          7 -7 0 -11 -3 -20 -2 -12 -7 90 callgsubr
          -5 -34 -4 -19 rcurveline
          -5 3 -3 4 5 4 3 5 vhcurveto
          4 19 5 31 29 23 43 20 rlinecurve
          18 9 15 182 callgsubr
        </CharString>
        <CharString name="abrevetilde">
          -36 callgsubr
          92 169 callsubr
          hintmask 1001100000000000
          489 89 rmoveto
          9 56 rlineto
          -22 hlineto
          -9 -56 rlineto
          -57 -10 -25 -8 -14 hhcurveto
          -38 9 53 15 2 hvcurveto
          30 175 9 54 6 40 -37 39 rlinecurve
          32 -30 -43 14 -44 hhcurveto
          -82 -72 -54 -65 -10 hvcurveto
          -29 -5 16 -14 23 hhcurveto
          24 20 17 24 4 hvcurveto
          41 7 -36 0 -15 hhcurveto
          42 30 51 18 40 hhcurveto
          46 53 -38 -90 -15 hvcurveto
          -7 -40 -201 -3 -90 -84 -13 -77 rlinecurve
          hintmask 0100000000000000
          -79 -13 87 -25 61 hhcurveto
          66 52 40 48 27 hvcurveto
          hintmask 1010000000000000
          -47 -4 25 -36 43 hhcurveto
          21 61 14 80 13 hvcurveto
          -154 52 rmoveto
          -98 -17 -78 -33 -43 hhcurveto
          -49 -35 36 48 8 hvcurveto
          22 132 172 12 36 2 rrcurveto
          hintmask 0000011001000000
          3 callsubr
          37 117 105 callgsubr
          hintmask 0000000100000000
          168 callsubr
          -56 hvcurveto
          hintmask 0000001001000000
          107 callgsubr
          hintmask 0000000010000000
          37 26 25 52 56 hvcurveto
          endchar
        </CharString>
        <CharString name="acaron">
          29 callsubr
          176 -20 callgsubr
          hintmask 00000110
          159 438 -49 callgsubr
        </CharString>
        <CharString name="acircumflex">
          29 callsubr
          176 -20 callgsubr
          hintmask 00000110
          134 290 -66 callsubr
          endchar
        </CharString>
        <CharString name="acircumflexacute">
          29 callsubr
          314 -32 callgsubr
          8 275 -54 callgsubr
        </CharString>
        <CharString name="acircumflexdotbelow">
          29 callsubr
          176 -20 hstemhm
          172 97 -105 callgsubr
          hintmask 10100110
          -47 -4 25 -36 43 hhcurveto
          21 61 14 80 13 hvcurveto
          -154 52 rmoveto
          -98 -17 -78 -33 -43 hhcurveto
          -49 -35 36 48 8 hvcurveto
          22 132 172 12 36 2 rrcurveto
          134 290 -66 callsubr
          hintmask 00000001
          -201 -668 -102 callsubr
          endchar
        </CharString>
        <CharString name="acircumflexgrave">
          29 callsubr
          133 -32 callgsubr
          -8 171 5 callgsubr
          -17 130 callgsubr
        </CharString>
        <CharString name="acircumflexhookabove">
          29 callsubr
          344 -32 callgsubr
          97 278 -106 callsubr
        </CharString>
        <CharString name="acircumflextilde">
          29 callsubr
          173 42 7 42 -107 callsubr
          hintmask 00000111
          134 292 -90 callsubr
          66 250 rmoveto
          -12 14 rlineto
          -29 -34 -24 -20 -32 hhcurveto
          -15 -14 3 21 -27 -63 callgsubr
        </CharString>
        <CharString name="acute">
          532 79 callsubr
          hstem
          476 664 -93 callsubr
        </CharString>
        <CharString name="acute.cap">
          512 -21 161 -20 hstem
          481 613 -96 callgsubr
        </CharString>
        <CharString name="acute.dup">
          532 79 callsubr
          hstem
          476 664 -93 callsubr
        </CharString>
        <CharString name="acute.ts1">
          -154 532 -21 188 -20 hstem
          494 664 rmoveto
          18 3 -13 17 -18 hhcurveto
          -14 -11 -12 -9 -10 hvcurveto
          -22 -23 -79 -85 -25 -27 -5 -5 -7 -5 -1 -6 rlinecurve
          -1 -6 8 -6 3 -4 58 38 55 43 55 42 10 7 11 8 3 15 rrcurveto
          endchar
        </CharString>
        <CharString name="adblgrave">
          -36 callgsubr
          107 -21 185 -20 callgsubr
          hintmask 00000110
          99 282 -78 callgsubr
        </CharString>
        <CharString name="adieresis">
          -36 callgsubr
          135 87 hstemhm
          223 87 73 87 -106 callgsubr
          hintmask 00000111
          -41 364 -75 callsubr
        </CharString>
        <CharString name="adotbelow">
          -36 callgsubr
          hstemhm
          172 97 -106 callgsubr
          hintmask 00000100
          -82 -392 -102 callsubr
          endchar
        </CharString>
        <CharString name="ae">
          -58 callgsubr
        </CharString>
        <CharString name="ae.dup">
          -58 callgsubr
        </CharString>
        <CharString name="aeacute">
          64 11 -21 240 19 -17 19 33 82 80 -20 106 57 callsubr
          61 71 84 71 6 62 -1 71 -66 71 -67 62 234 62 hintmask 0010100000100100
          699 119 rmoveto
          6 1 -4 4 -6 hhcurveto
          -8 -3 -6 -3 -2 hvcurveto
          -84 -38 -63 -24 -42 hhcurveto
          -44 -39 26 46 -20 hvcurveto
          -22 51 10 62 6 35 rrcurveto
          269 hlineto
          22 2 0 19 3 hvcurveto
          108 18 -41 87 -108 hhcurveto
          hintmask 0001100011010000
          -55 -59 -27 -51 -46 hvcurveto
          74 -37 -76 4 -24 hhcurveto
          -85 -70 -56 -63 -10 hvcurveto
          -29 -5 16 -14 23 hhcurveto
          24 20 17 24 4 hvcurveto
          41 7 -36 0 -15 hhcurveto
          43 30 54 17 37 hhcurveto
          47 52 -38 -90 -15 hvcurveto
          hintmask 1100000100001000
          -8 -49 -250 -8 -44 -105 -8 -46 rlinecurve
          -71 -12 77 -29 70 hhcurveto
          74 70 34 56 36 hvcurveto
          -81 47 72 -9 31 hhcurveto
          109 61 109 20 3 hvcurveto
          -40 132 rmoveto
          hintmask 0010000110000100
          -230 hlineto
          163 39 97 12 21 hhcurveto
          97 -20 -142 -33 -4 hvcurveto
          -305 -118 rmoveto
          -73 -12 -71 -50 -64 hhcurveto
          -47 -36 33 48 8 hvcurveto
          5 27 21 48 58 30 rrcurveto
          hintmask 0100000001010000
          53 28 56 4 34 2 -3 -23 -4 -19 3 -27 rrcurveto
          hintmask 0000000000100000
          1 -17 0 -1 -2 -10 rrcurveto
          hintmask 0000011000000000
          231 531 -93 callsubr
        </CharString>
        <CharString name="agrave">
          -36 callgsubr
          106 -21 186 -20 callgsubr
          hintmask 00000110
          43 287 -71 callsubr
        </CharString>
        <CharString name="ahookabove">
          -36 callgsubr
          94 -21 211 -20 callgsubr
          hintmask 00000110
          96 404 -106 callsubr
        </CharString>
        <CharString name="amacron">
          -36 callgsubr
          164 29 -107 callsubr
          hintmask 00000100
          168 350 -22 callsubr
        </CharString>
        <CharString name="ampersand">
          119 -21 29 350 29 15 29 284 -20 hstemhm
          192 22 -22 59 8 59 133 22 156 76 0 22 hintmask 0111011110000000
          779 402 rmoveto
          5 29 -99 -2 rlineto
          -27 -64 78 callsubr
          rlineto
          42 25 -16 -28 -4 hvcurveto
          -1 -4 -1 -6 -5 -8 -93 -123 rcurveline
          -45 -58 -38 -38 -5 -5 -13 21 -80 130 -26 120 30 28 109 99 12 75 rrcurveto
          10 2 18 116 -82 hhcurveto
          -61 -79 -54 -105 -17 hvcurveto
          -8 -47 -2 -68 13 -69 2 -17 rcurveline
          -3 -6 -5 -2 -2 vhcurveto
          -136 -125 -20 -19 -26 -33 -7 -40 rlinecurve
          hintmask 1010101101000000
          -87 -14 72 -62 94 hhcurveto
          67 65 29 48 59 hvcurveto
          -22 22 52 -55 85 hhcurveto
          75 72 57 85 16 hvcurveto
          -22 hlineto
          -76 -14 -69 -37 -49 hhcurveto
          -49 -38 41 49 -34 hvcurveto
          57 58 44 59 67 88 45 61 27 37 87 1 rrcurveto
          -328 186 rmoveto
          -11 -65 -97 -90 -25 -24 -11 58 2 68 8 44 rrcurveto
          81 13 44 35 36 hhcurveto
          55 -11 -87 -20 -3 hvcurveto
          -60 -515 rmoveto
          -58 -71 -63 -7 -29 hhcurveto
          -82 -13 90 61 11 hvcurveto
          4 26 11 42 33 37 2 3 61 57 10 9 24 -91 50 -98 52 -71 rrcurveto
          endchar
        </CharString>
        <CharString name="anglearc">
          119 -56 -21 654 -20 hstemhm
          554 36 0 36 hintmask 00010000
          710 18 rmoveto
          1 8 -4 6 -6 3 -129 52 rcurveline
          26 52 18 55 10 56 9 56 0 55 -9 52 147 52 rcurveline
          7 3 6 6 1 8 3 13 -12 8 -12 -4 -146 -52 rcurveline
          -12 44 -17 42 -24 37 rrcurveto
          hintmask 11100000
          4 -3 -5 3 -5 hhcurveto
          -10 -9 -8 -10 -2 hvcurveto
          -4 0 -4 2 -3 vhcurveto
          22 -35 16 -38 10 -41 -472 -167 rcurveline
          -8 -3 -6 -6 -1 -8 -2 -8 4 -6 7 -3 417 -167 rcurveline
          -24 -41 -29 -38 -33 -35 -4 -3 -1 -4 -1 -4 rrcurveto
          -10 -2 7 -8 10 hhcurveto
          5 6 3 4 4 hvcurveto
          36 37 32 42 26 44 129 -52 rcurveline
          10 -4 15 8 2 13 rrcurveto
          -120 232 rmoveto
          -9 -52 -16 -50 -24 -49 -376 151 rcurveline
          426 151 8 -49 -1 -50 -8 -52 rlinecurve
          endchar
        </CharString>
        <CharString name="angleleft">
          -262 112 callsubr
          21 -20 hstemhm
          hintmask 00100000
          288 -230 rmoveto
          6 -2 5 -1 5 vhcurveto
          -91 440 -2 7 -4 10 1 8 rlinecurve
          3 3 4 3 4 vhcurveto
          176 325 72 133 2 5 3 5 1 5 rlinecurve
          9 -1 -7 7 -8 hhcurveto
          hintmask 11000000
          -5 -1 -9 -2 -6 -8 -4 -8 rlinecurve
          -244 -451 -5 -9 -9 -12 -1 -10 rlinecurve
          -2 -9 5 -10 1 -8 49 -235 rcurveline
          39 -187 5 -26 rlineto
          -11 3 2 -14 14 hhcurveto
          10 10 11 9 2 hvcurveto
          endchar
        </CharString>
        <CharString name="angleright">
          -262 112 callsubr
          21 -20 hstemhm
          hintmask 00100000
          314 251 rmoveto
          2 10 -5 10 -2 9 -93 447 rcurveline
          11 -2 -3 13 -14 hhcurveto
          hintmask 11000000
          -4 -1 -9 -2 -7 -8 -1 -9 rlinecurve
          -5 1 -5 1 -5 vhcurveto
          40 -189 40 -193 12 -57 2 -8 4 -10 -1 -9 rlinecurve
          -1 -3 -2 -4 -3 -4 -243 -449 rcurveline
          -4 -7 -6 -8 -1 -7 rrcurveto
          -11 -2 9 -7 10 hhcurveto
          11 1 7 10 5 9 89 166 rcurveline
          120 220 35 64 4 9 9 12 2 10 rlinecurve
          endchar
        </CharString>
        <CharString name="aogonek">
          -202 44 153 29 260 82 80 -20 hstem
          -39 callgsubr
          endchar
        </CharString>
        <CharString name="aogonekacute">
          -202 44 153 29 260 82 80 -20 106 57 callsubr
          hintmask 11110000
          -39 callgsubr
          hintmask 00001100
          125 424 -93 callsubr
        </CharString>
        <CharString name="aring">
          -36 callgsubr
          101 151 callsubr
          -107 callsubr
          hintmask 00000110
          59 375 -60 callsubr
        </CharString>
        <CharString name="aringacute">
          -36 callgsubr
          101 151 callsubr
          181 -20 callgsubr
          hintmask 00000111
          59 375 -79 callgsubr
          47 231 -54 callgsubr
        </CharString>
        <CharString name="asciicircum">
          -87 583 -21 123 59 hstem
          92 566 vstem
          658 584 rmoveto
          -256 160 -310 -160 8 -22 291 123 252 -123 rlineto
          endchar
        </CharString>
        <CharString name="asciitilde">
          -87 193 177 callgsubr
          603 290 149 callgsubr
          -31 hvcurveto
          17 -27 147 callgsubr
          -21 -10 -22 74 callsubr
          28 8 10 23 164 callgsubr
        </CharString>
        <CharString name="asciitilde.low">
          -87 0 177 callgsubr
          571 97 149 callgsubr
          -32 hvcurveto
          17 -26 147 callgsubr
          -22 -10 -21 74 callsubr
          27 8 10 24 164 callgsubr
        </CharString>
        <CharString name="asterisk">
          340 -21 431 -20 hstemhm
          138 361 -330 361 hintmask 01010000
          499 441 rmoveto
          2 15 -9 4 -8 5 -131 69 rcurveline
          152 69 13 6 9 4 3 15 rlinecurve
          16 2 -10 11 -14 hhcurveto
          -3 -5 0 -9 -13 hvcurveto
          -140 -93 41 162 rlineto
          13 3 3 22 -24 hhcurveto
          -15 -15 -12 -13 1 hvcurveto
          -2 -10 -13 -162 -108 92 rlineto
          9 -11 -1 1 -7 hhcurveto
          -14 -14 -11 -16 -2 hvcurveto
          -3 -15 10 -4 8 -5 130 -69 rcurveline
          -151 -69 rlineto
          hintmask 10100000
          -13 -6 -10 -4 -2 -15 rrcurveto
          -16 -3 10 -11 14 hhcurveto
          3 5 0 9 14 hvcurveto
          139 93 -42 -166 rlineto
          -5 vlineto
          -14 -6 11 -12 15 hhcurveto
          24 5 22 13 1 hvcurveto
          13 162 109 -92 rlineto
          -9 10 1 -1 7 hhcurveto
          14 14 11 16 3 hvcurveto
          endchar
        </CharString>
        <CharString name="asterisk.math">
          -154 57 -21 430 -20 hstem
          272 22 -22 50 -22 22 cntrmask 00111000
          449 158 rmoveto
          4 20 -20 4 -14 9 -49 26 rcurveline
          -21 11 -20 14 -22 8 rrcurveto
          2 vlineto
          25 8 25 14 25 11 32 15 62 17 4 27 rrcurveto
          12 2 -5 15 -16 hhcurveto
          -14 -16 -14 -8 -13 hvcurveto
          -39 -26 -39 -28 -40 -24 9 54 24 58 9 55 rrcurveto
          11 2 -1 17 -21 hhcurveto
          -18 -10 -14 -14 -2 hvcurveto
          -9 -55 4 -58 -9 -54 -32 24 -29 28 -31 26 rrcurveto
          8 -9 -12 14 -14 hhcurveto
          -16 -11 -15 -12 -2 hvcurveto
          -3 -20 19 -4 15 -9 49 -26 rcurveline
          21 -11 19 -14 23 -8 rrcurveto
          -2 vlineto
          -26 -8 -24 -14 -25 -11 -32 -15 -62 -17 -5 -27 rrcurveto
          -12 -2 6 -15 16 hhcurveto
          14 16 14 8 13 hvcurveto
          39 26 39 28 40 24 -9 -54 -24 -58 -9 -55 rrcurveto
          -11 -2 1 -17 21 hhcurveto
          18 9 14 14 3 hvcurveto
          9 55 -4 58 9 54 32 -24 29 -28 31 -26 rrcurveto
          -8 9 12 -14 14 hhcurveto
          16 10 15 12 2 hvcurveto
          endchar
        </CharString>
        <CharString name="at">
          119 -10 20 119 20 396 20 119 20 hstemhm
          112 22 109 65 253 22 -7 22 34 65 21 22 hintmask 1101101011000000
          763 336 rmoveto
          241 40 -152 127 -153 hhcurveto
          -179 -174 -157 -200 -33 hvcurveto
          -189 -32 108 -168 196 hhcurveto
          32 63 2 19 82 hvcurveto
          35 8 119 35 3 15 rrcurveto
          8 1 -6 0 -16 hhcurveto
          -6 hlineto
          -15 -2 0 -8 -16 hvcurveto
          -43 -98 -101 -16 -72 hhcurveto
          -180 -103 158 179 30 hvcurveto
          191 32 165 146 163 hhcurveto
          133 154 -107 -246 -41 hvcurveto
          -89 -15 -21 -93 -67 hhcurveto
          -31 1 37 30 5 hvcurveto
          40 241 rlineto
          22 4 -1 1 -23 hhcurveto
          hintmask 0110010100000000
          -34 hlineto
          76 -35 -61 9 -28 hhcurveto
          -104 -106 -94 -124 -21 hvcurveto
          -124 -21 76 -94 104 hhcurveto
          60 52 37 36 30 hvcurveto
          -53 47 -20 38 87 29 99 108 18 vhcurveto
          -208 -74 rmoveto
          -3 -19 -1 -1 -17 -23 rrcurveto
          -44 -37 -49 -26 -41 hhcurveto
          -74 -43 89 109 18 hvcurveto
          109 18 73 89 74 hhcurveto
          37 43 -22 -50 23 hvcurveto
          hintmask 0000001000000000
          10 -21 0 -1 -3 -19 rrcurveto
          endchar
        </CharString>
        <CharString name="atilde">
          -36 callgsubr
          133 42 7 42 -107 callsubr
          hintmask 00000110
          162 396 -104 callgsubr
        </CharString>
        <CharString name="b">
          -99 -10 20 411 20 213 40 hstem
          468 76 vstem
          97 callsubr
          -111 hhcurveto
          -55 -52 -25 -42 -41 hvcurveto
          54 320 -141 -81 callsubr
          -100 -598 25 callgsubr
          137 callsubr
        </CharString>
        <CharString name="backslash">
          -143 112 callsubr
          hstem
          405 -230 rmoveto
          0 0 5 -2 13 vhcurveto
          -184 940 rlineto
          11 -2 -2 11 -14 hhcurveto
          -11 -10 -9 -11 -2 hvcurveto
          0 -1 -5 3 -13 vhcurveto
          183 -940 rlineto
          -11 2 2 -11 14 hhcurveto
          11 11 9 11 2 hvcurveto
          endchar
        </CharString>
        <CharString name="baht">
          50 0 29 316 20 289 29 hstem
          434 28 -23 28 -23 28 cntrmask 00011100
          669 183 rmoveto
          13 81 -60 80 -116 13 98 18 79 64 13 75 rrcurveto
          86 14 -73 83 -131 hhcurveto
          -39 hlineto
          5 28 rlineto
          8 1 -6 6 -7 hhcurveto
          143 callgsubr
          -5 -28 rlineto
          -282 39 callgsubr
          282 hlineto
          -5 -28 rlineto
          145 callgsubr
          7 8 6 8 1 hvcurveto
          5 28 rlineto
          66 hlineto
          129 105 87 96 16 hvcurveto
          -61 331 rmoveto
          -66 -11 -66 -83 -111 hhcurveto
          -6 hlineto
          48 289 rlineto
          33 hlineto
          100 22 -86 -54 -9 hvcurveto
          -222 -149 rmoveto
          -111 hlineto
          41 249 -42 callsubr
          65 hlineto
          144 -470 rmoveto
          -81 -14 -73 -74 -98 hhcurveto
          -35 hlineto
          53 316 rlineto
          48 hlineto
          96 36 -84 -77 -13 hvcurveto
          -248 -155 rmoveto
          -65 hlineto
          -44 -1 7 33 6 hvcurveto
          46 276 rlineto
          111 hlineto
          endchar
        </CharString>
        <CharString name="bar">
          -365 112 callsubr
          hstem
          83 40 116 40 vstem
          123 -217 rmoveto
          19 callsubr
          endchar
        </CharString>
        <CharString name="bigcircle">
          40 0 36 611 36 hstem
          57 36 611 36 vstem
          -59 callsubr
          endchar
        </CharString>
        <CharString name="blanksymbol">
          -99 -10 20 411 20 -4 20 31 40 70 40 0 20 -4 40 hstemhm
          125 63 159 63 58 76 hintmask 0100010010000000
          97 callsubr
          -111 hhcurveto
          -55 -52 -25 -42 -41 hvcurveto
          30 177 103 87 4 3 1 3 1 4 rlinecurve
          100 callgsubr
          -3 -4 -1 -3 -2 hvcurveto
          -82 -68 rlineto
          hintmask 1011101111000000
          18 104 -141 -81 callsubr
          -12 -70 -84 -71 rlineto
          -2 -3 -3 -3 -4 vvcurveto
          -8 -2 5 -6 8 hhcurveto
          4 4 2 2 3 hvcurveto
          60 51 -81 -488 25 callgsubr
          hintmask 0100000001000000
          137 callsubr
        </CharString>
        <CharString name="braceleft">
          -143 -229 -21 487 24 489 -20 hstem
          306 67 vstem
          387 -239 rmoveto
          2 10 -6 0 -10 1 -78 5 -30 45 -3 36 -1 11 0 2 6 35 25 150 rcurveline
          5 30 9 51 10 vvcurveto
          -2 66 -60 26 -37 11 123 34 12 71 5 28 30 180 rcurveline
          12 72 4 22 28 25 21 18 27 24 70 4 6 1 4 4 1 6 rrcurveto
          11 2 -8 0 -12 hhcurveto
          -100 -97 -51 -72 -14 hvcurveto
          -31 -183 -16 -94 -2 -16 -31 -28 rlinecurve
          -16 -14 -32 -27 -63 -4 rrcurveto
          -7 -8 -1 -10 -1 hvcurveto
          -2 -10 6 0 10 -1 42 -3 82 -21 -17 -100 -33 -198 rcurveline
          -10 -58 -5 -34 46 -37 rrcurveto
          -30 38 63 -8 31 hhcurveto
          12 8 0 11 2 hvcurveto
          endchar
        </CharString>
        <CharString name="braceright">
          -143 -229 -21 510 -21 511 -20 hstem
          195 67 vstem
          469 250 rmoveto
          1 10 -6 0 -9 1 -43 3 -81 21 16 100 33 198 rcurveline
          10 58 6 34 -46 37 rrcurveto
          29 -38 -63 9 -32 hhcurveto
          -10 -10 0 -11 -2 hvcurveto
          -1 -10 6 0 9 -1 79 -5 29 -45 3 -36 1 -11 0 -2 -6 -35 -25 -150 rcurveline
          -5 -30 -8 -51 -10 vvcurveto
          2 -66 60 -26 37 -11 -124 -34 -12 -71 -4 -28 -31 -180 rcurveline
          -12 -72 -3 -22 -28 -25 -21 -18 -27 -24 -71 -4 -5 -1 -5 -4 -1 -6 rrcurveto
          -11 -2 10 0 10 hhcurveto
          100 98 51 72 14 hvcurveto
          30 183 16 94 3 16 30 28 rlinecurve
          17 14 31 27 64 4 rrcurveto
          7 7 1 10 2 hvcurveto
          endchar
        </CharString>
        <CharString name="bracketleft">
          -371 -250 37 926 37 hstem
          208 -250 rmoveto
          6 37 rlineto
          -97 hlineto
          155 926 rlineto
          97 hlineto
          6 37 rlineto
          -134 hlineto
          -167 -1000 rlineto
          endchar
        </CharString>
        <CharString name="bracketright">
          -371 -250 37 926 37 hstem
          113 -250 rmoveto
          167 1000 rlineto
          -134 hlineto
          -6 -37 rlineto
          97 hlineto
          -155 -926 rlineto
          -97 hlineto
          -6 -37 rlineto
          endchar
        </CharString>
        <CharString name="breve">
          518 35 137 63 callgsubr
          endchar
        </CharString>
        <CharString name="breve.cap">
          491 35 137 63 callsubr
          endchar
        </CharString>
        <CharString name="breve.ts1">
          -45 522 35 138 -20 hstem
          215 20 359 20 vstem
          614 695 rmoveto
          -20 hlineto
          -88 -15 -104 -50 -83 hhcurveto
          -83 -89 48 90 15 hvcurveto
          -20 hlineto
          -108 -18 92 -65 97 hhcurveto
          94 115 60 113 19 hvcurveto
          endchar
        </CharString>
        <CharString name="brokenbar">
          -365 112 callsubr
          hstemhm
          83 40 22 40 -9 40 23 40 hintmask 01001100
          216 343 rmoveto
          63 374 rlineto
          14 2 3 19 -20 hhcurveto
          -20 -3 -19 -14 -2 hvcurveto
          -63 -374 rlineto
          -9 -1 9 -5 10 hhcurveto
          10 11 5 9 1 hvcurveto
          -93 -560 rmoveto
          hintmask 10110000
          62 374 rlineto
          9 2 -9 5 -10 hhcurveto
          -10 -11 -5 -9 -2 hvcurveto
          -62 -374 rlineto
          -14 -3 -3 -19 20 hhcurveto
          20 3 19 14 3 hvcurveto
          endchar
        </CharString>
        <CharString name="bullet">
          119 106 270 hstem
          286 270 77 callsubr
          endchar
        </CharString>
        <CharString name="c">
          70 callsubr
          hstemhm
          71 76 172 83 -34 83 hintmask 11111000
          426 119 rmoveto
          9 1 -7 0 -3 hhcurveto
          -9 -1 -3 -12 -5 hvcurveto
          -71 -34 -59 -30 -54 hhcurveto
          -61 -72 53 152 25 hvcurveto
          166 28 92 41 50 hhcurveto
          38 52 -15 -39 17 hvcurveto
          hintmask 00000100
          -12 -37 0 -41 -7 hvcurveto
          hintmask 01001000
          -24 -4 14 -17 24 hhcurveto
          hintmask 00000100
          23 21 14 29 5 hvcurveto
          hintmask 10111000
          67 11 -62 48 -81 hhcurveto
          -117 -110 -104 141 callgsubr
          -21 79 -98 113 hhcurveto
          132 50 120 9 2 hvcurveto
          endchar
        </CharString>
        <CharString name="cacute">
          70 callsubr
          86 -21 186 -50 callsubr
          44 545 -93 callsubr
        </CharString>
        <CharString name="caron">
          537 158 callsubr
          hstem
          510 678 -49 callgsubr
        </CharString>
        <CharString name="caron.cap">
          502 -21 133 -20 hstem
          496 598 -59 callgsubr
        </CharString>
        <CharString name="caron.ts1">
          -45 574 -21 149 -20 hstem
          595 685 rmoveto
          5 -1 -4 12 -6 hhcurveto
          -9 -26 -18 -9 -15 hvcurveto
          -89 -49 -15 -9 -17 -7 -14 -11 rlinecurve
          -12 10 -14 8 -14 9 -78 54 rcurveline
          8 -9 -19 14 -7 hhcurveto
          -1 hlineto
          -5 -2 -7 -10 -3 -5 148 -124 rcurveline
          13 -8 rlineto
          endchar
        </CharString>
        <CharString name="ccaron">
          70 callsubr
          91 -21 176 -50 callsubr
          78 559 -49 callgsubr
        </CharString>
        <CharString name="ccedilla">
          -208 -200 22 93 22 53 22 276 82 54 22 hstemhm
          71 76 125 76 -29 83 -54 76 -56 83 hintmask 0010110100000000
          426 119 rmoveto
          9 1 -7 0 -3 hhcurveto
          -9 -1 -3 -12 -5 hvcurveto
          -71 -34 -59 -30 -54 hhcurveto
          -61 -72 53 152 25 hvcurveto
          166 28 92 41 50 hhcurveto
          hintmask 0001000010000000
          38 52 -15 -39 17 hvcurveto
          hintmask 0000000001000000
          -12 -37 0 -41 -7 hvcurveto
          hintmask 0001000100000000
          -24 -4 14 -17 24 hhcurveto
          hintmask 0000000001000000
          23 21 14 29 5 hvcurveto
          hintmask 0100110100000000
          67 11 -62 48 -81 hhcurveto
          -117 -110 -104 84 callgsubr
          -20 -118 66 -92 99 -14 -13 -77 rcurveline
          hintmask 1100001000000000
          38 15 callgsubr
          47 8 -52 21 -54 hhcurveto
          9 54 120 10 45 109 2 9 rlinecurve
          endchar
        </CharString>
        <CharString name="ccircumflex">
          70 callsubr
          91 -21 176 -50 callsubr
          53 411 -66 callsubr
          endchar
        </CharString>
        <CharString name="cdotaccent">
          70 callsubr
          110 97 hstemhm
          71 76 145 97 -70 83 -34 83 hintmask 11101010
          426 119 rmoveto
          9 1 -7 0 -3 hhcurveto
          -9 -1 -3 -12 -5 hvcurveto
          -71 -34 -59 -30 -54 hhcurveto
          -61 -72 53 152 25 hvcurveto
          166 28 92 41 50 hhcurveto
          38 52 -15 -39 17 hvcurveto
          hintmask 00000001
          -12 -37 0 -41 -7 hvcurveto
          hintmask 01000010
          -24 -4 14 -17 24 hhcurveto
          hintmask 00000001
          23 21 14 29 5 hvcurveto
          hintmask 10101010
          67 11 -62 48 -81 hhcurveto
          -117 -110 -104 141 callgsubr
          -21 79 -98 113 hhcurveto
          132 50 120 9 2 hvcurveto
          hintmask 00010100
          -37 485 -102 callsubr
          endchar
        </CharString>
        <CharString name="cedilla">
          24 callsubr
        </CharString>
        <CharString name="cedilla.dup">
          24 callsubr
        </CharString>
        <CharString name="cent">
          70 callsubr
          hstem
          147 76 0 28 0 76 cntrmask 00011100
          426 119 rmoveto
          9 1 -7 0 -3 hhcurveto
          -9 -1 -3 -12 -5 hvcurveto
          -71 -34 -59 -30 -54 hhcurveto
          69 412 37 -2 47 -15 16 -37 rlinecurve
          -12 -37 0 -41 -7 hvcurveto
          -24 -4 14 -17 24 hhcurveto
          23 21 14 29 5 hvcurveto
          11 65 -57 47 -78 3 3 13 rcurveline
          7 1 -5 7 -8 hhcurveto
          -7 -8 -7 -7 -1 hvcurveto
          -3 -14 -109 -11 -99 -99 -20 -119 rlinecurve
          -20 -121 70 -94 102 -10 -3 -19 rcurveline
          160 callsubr
          3 18 125 6 48 114 2 9 rlinecurve
          -198 -103 rmoveto
          -53 14 -49 57 21 130 24 145 74 49 50 11 rrcurveto
          endchar
        </CharString>
        <CharString name="cent.oldstyle">
          -208 -25 22 -7 22 276 82 49 22 -17 22 hstemhm
          71 76 172 83 -66 28 4 83 hintmask 0111001000000000
          426 119 rmoveto
          9 1 -7 0 -3 hhcurveto
          -9 -1 -3 -12 -5 hvcurveto
          -71 -34 -59 -30 -54 hhcurveto
          -17 -17 4 9 -17 hvcurveto
          151 394 29 -7 28 -15 12 -27 rlinecurve
          hintmask 0000000010000000
          -12 -37 0 -41 -7 hvcurveto
          hintmask 0010001000000000
          -24 -4 14 -17 24 hhcurveto
          hintmask 0001000110000000
          23 21 14 29 5 hvcurveto
          9 54 -39 42 -57 14 5 15 rcurveline
          8 3 -5 9 -9 hhcurveto
          -7 -6 -5 -6 -3 hvcurveto
          -6 -17 rlineto
          hintmask 1000111000000000
          1 -6 -5 0 -6 hhcurveto
          -117 -110 -104 84 callgsubr
          -16 -97 43 -80 70 -33 -12 -31 rcurveline
          -9 -3 5 -8 9 hhcurveto
          7 6 5 6 3 hvcurveto
          10 28 rlineto
          hintmask 0100110000000000
          -5 16 16 -2 17 hhcurveto
          132 50 120 9 2 hvcurveto
          -98 305 rmoveto
          -146 -382 -31 30 -19 55 15 90 rlinecurve
          166 28 92 41 50 hhcurveto
          endchar
        </CharString>
        <CharString name="centigrade">
          282 -21 30 412 29 17 37 36 29 45 29 4 37 -8 29 hstemhm
          97 93 31 93 hintmask 1101101000000000
          908 234 rmoveto
          8 1 1 9 -10 hhcurveto
          -16 0 -32 -17 -7 hvcurveto
          -99 -33 -100 -94 -116 hhcurveto
          -73 -67 37 57 -37 hvcurveto
          -43 68 1 93 14 85 11 65 21 68 41 58 rrcurveto
          82 57 94 54 93 hhcurveto
          129 43 -125 -101 2 hvcurveto
          -10 -1 -5 -19 17 hhcurveto
          11 4 5 8 1 hvcurveto
          44 259 rlineto
          6 1 -2 6 -7 hhcurveto
          -8 -7 -11 -6 -5 hvcurveto
          -36 -45 -7 -10 -8 -9 -7 -10 rlinecurve
          55 -39 -55 36 -75 hhcurveto
          -195 -175 -175 -189 -31 hvcurveto
          -185 -31 115 -177 193 hhcurveto
          128 135 98 143 36 hvcurveto
          2 5 0 4 1 5 rrcurveto
          -594 342 rmoveto
          hintmask 0011010110000000
          55 9 -34 53 -68 hhcurveto
          -9 hlineto
          -56 -8 -50 -45 -9 -55 rrcurveto
          -55 -9 34 -54 68 hhcurveto
          9 hlineto
          57 8 49 47 9 54 rrcurveto
          -37 -1 rmoveto
          -38 -6 -39 -33 -38 hhcurveto
          -5 hlineto
          -34 3 -23 28 1 34 1 7 rcurveline
          38 6 39 33 38 hhcurveto
          5 hlineto
          34 -3 23 -28 -1 -34 rrcurveto
          endchar
        </CharString>
        <CharString name="circumflex">
          537 158 callsubr
          hstem
          485 530 -66 callsubr
          endchar
        </CharString>
        <CharString name="circumflex.cap">
          502 -21 133 -20 hstem
          479 497 -44 callgsubr
        </CharString>
        <CharString name="circumflex.dup">
          537 158 callsubr
          hstem
          485 530 -66 callsubr
          endchar
        </CharString>
        <CharString name="colon">
          -371 0 97 237 97 hstemhm
          95 97 -41 97 hintmask 11010000
          248 383 rmoveto
          27 4 -19 21 -25 hhcurveto
          4 callsubr
          25 21 28 5 hvcurveto
          -56 -334 rmoveto
          27 5 -20 21 -25 hhcurveto
          hintmask 10100000
          4 callsubr
          26 21 28 4 hvcurveto
          endchar
        </CharString>
        <CharString name="colonmonetary">
          142 callgsubr
          hstemhm
          111 93 166 28 1 93 0 28 -26 28 hintmask 11000100
          691 232 rmoveto
          11 2 1 6 -11 hhcurveto
          -10 -2 -5 -7 -1 hvcurveto
          -159 -36 -128 -70 -97 hhcurveto
          -5 hlineto
          112 667 rlineto
          4 hlineto
          105 77 -89 -150 -5 hvcurveto
          -12 -1 -3 12 14 1 3 20 3 vhcurveto
          40 237 rlineto
          18 3 0 5 -10 hhcurveto
          -6 -1 -2 -10 -8 hvcurveto
          -62 -79 -34 54 -59 34 -69 3 rlinecurve
          hintmask 10111010
          2 7 rlineto
          100 callgsubr
          143 callgsubr
          -2 -8 -176 -11 -172 -153 -33 -197 rlinecurve
          -33 -199 122 -152 172 -11 -2 -8 rcurveline
          145 callgsubr
          143 callsubr
          1 7 160 5 114 140 18 108 rlinecurve
          -314 -221 rmoveto
          -82 12 -133 65 42 254 42 253 155 65 86 13 rrcurveto
          endchar
        </CharString>
        <CharString name="comma">
          -371 -172 -21 193 97 hstem
          174 20 vstem
          194 -4 rmoveto
          62 11 -15 39 -39 155 callsubr
          15 12 7 5 7 hvcurveto
          4 140 callsubr
          -14 -1 -5 vhcurveto
          -10 -64 -36 -60 -52 -46 -5 -3 -1 -2 -1 -4 rrcurveto
          -5 4 -5 5 9 88 74 115 19 vhcurveto
          endchar
        </CharString>
        <CharString name="copyleft">
          40 0 36 462 36 113 36 hstem
          57 36 327 36 248 36 vstem
          -59 callsubr
          -113 hmoveto
          118 20 -76 91 -106 hhcurveto
          -41 -42 -20 -33 -32 hvcurveto
          -20 46 rlineto
          6 -3 -1 1 -3 hhcurveto
          -6 -1 -3 -11 -1 hvcurveto
          -23 -136 rlineto
          -12 -2 0 -1 8 hhcurveto
          7 0 1 7 2 hvcurveto
          87 27 61 51 61 hhcurveto
          41 104 -25 -167 -28 hvcurveto
          -168 -28 -114 -25 -40 hhcurveto
          -56 -60 41 91 10 hvcurveto
          4 1 -1 3 -5 hhcurveto
          -7 0 -3 -6 -1 hvcurveto
          -64 -11 40 -82 94 hhcurveto
          105 107 90 119 20 hvcurveto
          endchar
        </CharString>
        <CharString name="copyright">
          40 0 36 462 36 113 36 hstemhm
          57 36 249 36 158 36 -28 36 124 36 hintmask 11111101
          -59 callsubr
          -163 -63 rmoveto
          6 1 0 3 -6 hhcurveto
          -6 -1 -3 -4 -1 hvcurveto
          -91 -20 -74 -41 -56 hhcurveto
          -40 -106 25 168 28 hvcurveto
          167 28 112 25 42 hhcurveto
          hintmask 00000010
          60 45 -51 -87 -3 hvcurveto
          -7 0 -2 7 8 0 2 12 2 vhcurveto
          23 136 rlineto
          11 1 1 3 -6 hhcurveto
          hintmask 01000100
          -3 -1 -2 -5 -4 hvcurveto
          -36 -46 rlineto
          32 -21 -36 21 -41 hhcurveto
          -106 -106 -91 -118 -20 hvcurveto
          -119 -20 78 -90 104 hhcurveto
          94 68 82 64 11 hvcurveto
          endchar
        </CharString>
        <CharString name="copyright.alt">
          3 -107 36 573 36 hstem
          36 36 437 36 101 36 vstem
          682 215 rmoveto
          198 33 -104 125 -198 hhcurveto
          -198 -146 -125 -198 -33 hvcurveto
          -198 -33 104 -124 198 hhcurveto
          198 146 124 198 33 hvcurveto
          -36 hmoveto
          -176 -29 -130 -110 -176 hhcurveto
          -176 -92 110 176 29 hvcurveto
          176 29 130 111 176 hhcurveto
          176 92 -111 -176 -29 hvcurveto
          -124 -69 rmoveto
          7 2 0 4 -7 hhcurveto
          -6 -1 -3 -5 -1 hvcurveto
          -100 -22 -80 -44 -62 hhcurveto
          -44 -116 27 183 31 hvcurveto
          183 30 123 27 46 hhcurveto
          66 49 -56 -94 -3 hvcurveto
          -8 -1 -2 7 9 1 2 13 2 vhcurveto
          25 149 rlineto
          11 1 1 4 -6 hhcurveto
          -4 0 -2 -6 -5 hvcurveto
          -40 -50 rlineto
          36 -22 -39 22 -46 hhcurveto
          -115 -117 -100 -129 -21 hvcurveto
          -130 -22 85 -98 114 hhcurveto
          104 73 90 69 11 hvcurveto
          endchar
        </CharString>
        <CharString name="currency">
          119 18 36 8 36 304 36 7 36 hstem
          234 36 305 36 vstem
          692 480 rmoveto
          -12 13 -14 -12 -11 -10 -89 -75 rcurveline
          26 -28 -39 16 -45 hhcurveto
          -46 -45 -16 -27 -36 hvcurveto
          -63 76 -9 10 -10 12 -15 -12 rlinecurve
          -15 -14 10 -12 8 -10 64 -76 rcurveline
          -33 -32 -23 -42 -7 -45 -8 -45 10 -42 21 -33 -89 -76 rcurveline
          -12 -10 -14 -12 10 -13 12 -13 14 12 12 10 88 76 rcurveline
          -26 29 39 -16 45 hhcurveto
          45 44 16 26 37 hvcurveto
          64 -76 8 -10 10 -12 15 12 rlinecurve
          15 14 -10 12 -8 10 -63 76 rcurveline
          32 33 23 41 8 46 7 45 -9 42 -21 32 88 76 rcurveline
          12 10 14 12 -10 13 rrcurveto
          -117 -230 rmoveto
          -84 -14 -80 -68 -84 hhcurveto
          -84 -57 68 84 14 hvcurveto
          84 14 80 68 84 hhcurveto
          84 57 -68 -84 -14 hvcurveto
          endchar
        </CharString>
        <CharString name="cwm">
          -643 endchar
        </CharString>
        <CharString name="cwmascender">
          -643 endchar
        </CharString>
        <CharString name="cwmcapital">
          -643 endchar
        </CharString>
        <CharString name="d">
          -99 -10 109 callsubr
          292 76 hintmask 01111100
          -48 callsubr
          hintmask 10101000
          -24 callsubr
          endchar
        </CharString>
        <CharString name="dagger">
          -199 -195 -21 613 67 241 -20 hstemhm
          170 67 -13 67 -54 67 -5 67 hintmask 01000100
          459 430 116 callsubr
          5 20 5 28 22 65 rrcurveto
          hintmask 01110010
          11 37 13 37 6 37 rrcurveto
          8 1 6 33 -33 hhcurveto
          -34 -6 -32 -9 -1 hvcurveto
          -6 -35 -1 -58 -24 vvcurveto
          -46 -3 -32 -4 -29 vhcurveto
          -10 1 -20 101 callsubr
          31 8 6 22 hvcurveto
          3 1 26 7 20 2 -6 -25 -6 -20 -9 -25 rrcurveto
          hintmask 11001010
          -26 -72 -2 -8 -9 -53 -25 -151 -17 -168 -7 -95 rrcurveto
          -14 -1 0 -6 11 hhcurveto
          12 1 5 13 4 hvcurveto
          14 50 12 53 11 51 14 63 22 103 16 96 9 54 2 7 -3 71 -1 23 1 21 2 27 11 -1 19 -4 19 -5 rrcurveto
          -6 18 27 -8 21 hhcurveto
          35 7 28 5 1 hvcurveto
          endchar
        </CharString>
        <CharString name="daggerdbl">
          -199 -184 -21 194 66 389 67 194 -20 hstem
          223 67 0 67 0 67 cntrmask 00001110
          467 477 116 callsubr
          6 30 13 34 5 14 12 33 13 40 5 28 rrcurveto
          7 1 6 32 -34 hhcurveto
          -10 -24 -3 -36 -6 hvcurveto
          -3 -20 -1 -29 1 -35 rrcurveto
          -41 1 -28 -4 -26 vhcurveto
          -11 1 -19 101 callsubr
          30 8 6 22 hvcurveto
          4 1 26 7 20 2 -6 -30 -13 -34 -5 -14 -11 -33 -14 -40 -5 -28 155 callgsubr
          4 20 0 29 -1 35 rrcurveto
          41 0 28 3 26 vhcurveto
          11 -1 19 -4 18 -5 rrcurveto
          -6 18 28 -8 21 hhcurveto
          35 7 28 5 1 hvcurveto
          -76 -455 rmoveto
          17 3 -10 16 -21 hhcurveto
          -20 -17 -3 -8 -33 hvcurveto
          -27 -8 -7 -2 -23 -2 7 28 8 24 14 42 20 56 4 23 1 5 rrcurveto
          35 6 -21 4 -11 hhcurveto
          -30 -9 -25 -14 -2 hvcurveto
          -5 -29 1 -43 -34 vvcurveto
          2 -11 -1 -31 -3 -30 -22 2 -3 1 -38 11 rrcurveto
          9 -31 -17 0 -7 hhcurveto
          -25 -12 -20 -13 -2 hvcurveto
          -15 -3 7 -18 24 hhcurveto
          24 25 6 4 12 hvcurveto
          41 10 7 1 17 2 -7 -28 -8 -24 -14 -42 -20 -56 -4 -23 -1 -5 155 callgsubr
          5 29 -1 43 34 vvcurveto
          -1 11 0 31 3 30 23 -2 3 -1 38 -11 rrcurveto
          -9 31 18 0 5 hhcurveto
          24 13 18 15 3 hvcurveto
          endchar
        </CharString>
        <CharString name="dblbracketleft">
          -249 -249 37 926 37 hstem
          203 37 117 37 vstem
          330 -249 rmoveto
          7 37 rlineto
          -97 hlineto
          154 926 rlineto
          97 hlineto
          6 37 rlineto
          -256 hlineto
          -167 -1000 rlineto
          129 157 callgsubr
        </CharString>
        <CharString name="dblbracketright">
          -249 -249 37 926 37 hstem
          83 37 117 37 vstem
          235 -249 rmoveto
          167 1000 rlineto
          -255 hlineto
          -6 -37 rlineto
          96 hlineto
          -154 -926 rlineto
          -96 hlineto
          -7 -37 rlineto
          225 157 callgsubr
        </CharString>
        <CharString name="dblgrave.ts1">
          -154 537 -21 183 -20 hstem
          286 526 rmoveto
          44 callsubr
          163 hmoveto
          44 callsubr
          endchar
        </CharString>
        <CharString name="dblverticalbar">
          -257 112 callsubr
          hstem
          83 40 68 40 8 40 68 40 vstem
          123 -217 rmoveto
          19 callsubr
          108 hmoveto
          19 callsubr
          endchar
        </CharString>
        <CharString name="dcaron">
          -99 -10 20 -20 39 392 20 57 -21 144 73 -40 40 hstemhm
          71 76 292 76 hintmask 01100111
          -48 callsubr
          hintmask 10100110
          -24 callsubr
          231 295 rmoveto
          78 callgsubr
          hintmask 00011000
          -20 -4 13 -16 callgsubr
        </CharString>
        <CharString name="dcroat">
          -99 -10 20 -20 39 392 20 94 28 91 40 hstemhm
          394 76 0 63 0 76 cntrmask 00000111
          hintmask 01111111
          515 76 callsubr
          75 450 rlineto
          76 hlineto
          5 28 rlineto
          -76 hlineto
          22 131 -141 -81 callsubr
          -6 -35 rlineto
          -158 hlineto
          -5 -28 rlineto
          158 hlineto
          -26 -158 rlineto
          29 -16 -37 35 -61 hhcurveto
          -116 -117 -98 -128 -21 hvcurveto
          -127 -21 78 -98 110 hhcurveto
          76 53 50 19 17 hvcurveto
          -12 -69 rlineto
          22 127 rmoveto
          -3 -18 -1 -3 -18 -22 rrcurveto
          hintmask 10100111
          -24 callsubr
          endchar
        </CharString>
        <CharString name="ddotbelow">
          -99 -10 109 callsubr
          52 97 143 76 hintmask 01111010
          -48 callsubr
          hintmask 10101000
          -24 callsubr
          hintmask 00000100
          -132 -475 -102 callsubr
          endchar
        </CharString>
        <CharString name="degree">
          -276 411 36 200 36 hstem
          139 36 200 36 vstem
          411 547 rmoveto
          75 13 -51 61 -75 hhcurveto
          -76 -70 -61 -75 -13 hvcurveto
          -75 -12 50 -61 76 hhcurveto
          75 71 61 75 12 hvcurveto
          -36 hmoveto
          -55 -9 -52 -45 -55 hhcurveto
          -56 -37 45 55 9 hvcurveto
          56 10 51 44 56 hhcurveto
          55 38 -44 -56 -10 hvcurveto
          endchar
        </CharString>
        <CharString name="diameter">
          119 -56 36 540 36 hstem
          117 36 540 36 vstem
          800 558 rmoveto
          10 2 -7 8 -10 hhcurveto
          -5 -4 -2 -3 -5 hvcurveto
          -107 -92 rlineto
          48 -46 -66 29 -78 hhcurveto
          -169 -160 -137 -169 -28 hvcurveto
          -13 -78 17 -71 39 -54 -109 -93 rcurveline
          -3 -4 -3 -4 -1 -5 rrcurveto
          -10 -2 7 -8 10 hhcurveto
          5 4 2 3 5 hvcurveto
          109 93 rlineto
          -48 45 67 -29 78 hhcurveto
          169 160 141 callsubr
          13 78 -17 71 -39 54 107 92 rcurveline
          4 4 2 4 1 5 rrcurveto
          -107 -308 rmoveto
          -149 -25 -141 -121 -149 hhcurveto
          -68 -58 25 42 -41 hvcurveto
          444 381 34 -48 15 -62 -11 -68 rlinecurve
          -58 203 rmoveto
          -445 -381 -34 48 -15 62 12 68 rlinecurve
          149 25 141 121 149 hhcurveto
          68 58 -25 -42 41 hvcurveto
          endchar
        </CharString>
        <CharString name="died">
          -154 -12 31 -23 -21 367 43 -37 31 224 -20 hstemhm
          212 62 8 40 -35 40 0 40 hintmask 0010000000000000
          503 358 rmoveto
          2 11 rlineto
          9 1 -1 7 -11 hhcurveto
          hintmask 0001100010000000
          -54 -58 -6 -55 hhcurveto
          11 64 14 64 17 63 2 6 3 7 1 6 2 8 -4 5 -6 1 rrcurveto
          -41 hlineto
          -7 -7 -3 -8 -1 hvcurveto
          -3 -15 0 -18 -16 vvcurveto
          hintmask 0001000100000000
          -5 -55 -7 -54 -9 -55 rrcurveto
          hintmask 0010000000000000
          -55 -54 6 -55 hhcurveto
          -12 -3 -7 -10 -2 hvcurveto
          -1 -8 rlineto
          -9 -1 0 -9 12 hhcurveto
          hintmask 1001011000000000
          55 56 6 55 hhcurveto
          -19 -116 -22 -118 -29 -115 -1 -3 -1 -4 -1 -4 rrcurveto
          hintmask 0100010000000000
          -8 -1 2 -5 11 hhcurveto
          38 hlineto
          7 6 3 9 2 hvcurveto
          1 6 rlineto
          hintmask 1001001000000000
          1 9 1 8 9 vvcurveto
          10 109 17 111 18 109 rrcurveto
          hintmask 0010000000000000
          55 54 -6 55 hhcurveto
          11 4 6 10 2 hvcurveto
          endchar
        </CharString>
        <CharString name="dieresis">
          561 87 hstem
          223 87 73 87 vstem
          -47 callsubr
          endchar
        </CharString>
        <CharString name="dieresis.cap">
          481 87 hstem
          195 87 101 87 vstem
          -4 callgsubr
          endchar
        </CharString>
        <CharString name="dieresis.dup">
          561 87 hstem
          223 87 73 87 vstem
          -47 callsubr
          endchar
        </CharString>
        <CharString name="dieresis.ts1">
          -154 573 92 hstem
          488 619 rmoveto
          21 4 -14 25 -27 -3 -2 -1 -3 hhcurveto
          -23 -20 -24 -20 -4 hvcurveto
          -28 -4 18 -19 31 hhcurveto
          24 4 20 20 3 22 rrcurveto
          -190 hmoveto
          23 4 -14 23 -27 hhcurveto
          -3 -5 -1 0 hvcurveto
          -23 -3 -19 -19 -4 -23 rrcurveto
          -22 -3 12 -24 28 hhcurveto
          26 24 20 26 4 hvcurveto
          endchar
        </CharString>
        <CharString name="discount">
          -154 11 114 -103 -21 626 114 10 -20 hstemhm
          197 113 -7 113 hintmask 01010000
          555 731 rmoveto
          10 2 -5 10 -10 hhcurveto
          0 -4 0 -2 -1 vhcurveto
          -21 -6 -49 -92 -32 -47 -290 -447 rcurveline
          -81 -126 -2 -4 -3 -5 -1 -5 rlinecurve
          -9 7 -8 9 vhcurveto
          2 hlineto
          17 3 13 28 5 8 250 386 rcurveline
          84 130 36 55 39 56 34 56 rlinecurve
          1 3 0 2 1 3 rrcurveto
          -139 -663 rmoveto
          hintmask 10100100
          -29 -4 -26 -28 -34 hhcurveto
          -4 hlineto
          -35 -14 31 26 4 hvcurveto
          29 5 26 28 34 hhcurveto
          4 hlineto
          35 14 -31 -26 -5 hvcurveto
          -106 616 rmoveto
          -32 -5 -29 -25 -33 hhcurveto
          hintmask 00101000
          -34 -16 30 28 4 hvcurveto
          5 28 25 24 29 4 rrcurveto
          3 3 1 3 hhcurveto
          34 16 -30 -28 -5 hvcurveto
          endchar
        </CharString>
        <CharString name="divide">
          119 59 97 76 37 76 97 hstemhm
          350 97 -49 97 cntrmask 11100000
          hintmask 11101000
          749 250 89 callsubr
          -589 hlineto
          11 callgsubr
          -254 144 rmoveto
          27 4 -19 21 -25 hhcurveto
          4 callsubr
          25 21 28 5 hvcurveto
          -48 -286 rmoveto
          27 5 -20 21 -25 hhcurveto
          hintmask 11110000
          4 callsubr
          25 21 28 5 hvcurveto
          endchar
        </CharString>
        <CharString name="divorced">
          -154 -104 43 97 43 173 44 -43 43 127 43 -43 44 139 -20 hstemhm
          -143 44 364 62 -14 62 -10 44 262 44 hintmask 0000010000000000
          715 252 rmoveto
          105 18 -52 110 -104 hhcurveto
          hintmask 0110100001010000
          -4 -4 -1 -4 hhcurveto
          -103 -11 -71 -109 -16 -95 rrcurveto
          -97 -16 38 -118 108 hhcurveto
          11 hlineto
          105 10 78 107 16 99 rrcurveto
          -518 -2 rmoveto
          hintmask 0000010000000000
          96 16 -38 121 -108 hhcurveto
          hintmask 1100100110000000
          -4 -4 -1 -4 hhcurveto
          -105 -12 -77 -106 -16 -98 rrcurveto
          -105 -18 52 -109 105 hhcurveto
          10 hlineto
          102 11 73 107 16 96 rrcurveto
          64 -341 rmoveto
          1 10 2 10 1 10 7 89 15 88 12 89 rrcurveto
          hintmask 0010000001000000
          14 91 16 95 19 96 24 95 rlinecurve
          2 4 0 4 1 4 1 5 rcurveline
          hintmask 1101011110110000
          5 -1 -5 2 -5 hhcurveto
          -38 hlineto
          -3 -3 0 -1 -2 hvcurveto
          -5 -2 -2 -4 -1 -5 -12 -71 1 -70 -12 -71 -12 -73 rcurveline
          -22 -128 -21 -129 -33 -127 -1 -5 -2 -6 -1 -5 rrcurveto
          -8 -2 5 -5 8 hhcurveto
          38 hlineto
          10 4 4 9 2 hvcurveto
          410 341 rmoveto
          -68 -12 -47 -103 -100 hhcurveto
          -50 -39 31 44 -14 hvcurveto
          -11 28 1 30 3 31 1 7 rcurveline
          79 13 61 94 93 hhcurveto
          87 28 -88 -85 -14 hvcurveto
          -502 3 rmoveto
          -4 -1 -3 -2 -4 vhcurveto
          -72 -17 -51 -91 -96 hhcurveto
          -91 -23 92 79 13 hvcurveto
          74 12 49 99 98 hhcurveto
          90 32 -91 -79 -13 hvcurveto
          endchar
        </CharString>
</ttFont>
